SplineFontDB: 3.0
FontName: DroidSerif-Italic
FullName: Droid Serif Italic
FamilyName: Droid Serif
Weight: Book
Copyright: Digitized data copyright (c) 2007, Google Corporation.
Version: 1.00 build 112
ItalicAngle: -12
UnderlinePosition: -103
UnderlineWidth: 102
Ascent: 1638
Descent: 410
sfntRevision: 0x00010000
LayerCount: 2
Layer: 0 1 "Back"  1
Layer: 1 1 "Fore"  0
XUID: [1021 212 293451659 13162441]
FSType: 8
OS2Version: 3
OS2_WeightWidthSlopeOnly: 0
OS2_UseTypoMetrics: 1
CreationTime: 1170934479
ModificationTime: 1227708605
PfmFamily: 17
TTFWeight: 400
TTFWidth: 5
LineGap: 0
VLineGap: 0
Panose: 2 2 6 0 6 5 0 9 2 0
OS2TypoAscent: -61
OS2TypoAOffset: 1
OS2TypoDescent: -82
OS2TypoDOffset: 1
OS2TypoLinegap: 122
OS2WinAscent: -245
OS2WinAOffset: 1
OS2WinDescent: -88
OS2WinDOffset: 1
HheadAscent: -245
HheadAOffset: 1
HheadDescent: 88
HheadDOffset: 1
OS2SubXSize: 1434
OS2SubYSize: 1331
OS2SubXOff: 0
OS2SubYOff: 286
OS2SupXSize: 1434
OS2SupYSize: 1331
OS2SupXOff: 0
OS2SupYOff: 976
OS2StrikeYSize: 102
OS2StrikeYPos: 498
OS2FamilyClass: 512
OS2Vendor: '1ASC'
OS2CodePages: 2000019f.00000000
OS2UnicodeRanges: e00002ef.4000205b.00000028.00000000
Lookup: 258 8 0 "'kern' Horizontal Kerning in Latin lookup 0"  {"'kern' Horizontal Kerning in Latin lookup 0 subtable"  } ['kern' ('latn' <'dflt' > ) ]
DEI: 91125
TtTable: prep
NPUSHB
 86
 248
 0
 255
 31
 223
 51
 221
 85
 222
 51
 3
 85
 221
 1
 3
 85
 220
 3
 255
 31
 128
 183
 240
 183
 2
 15
 168
 63
 168
 2
 160
 155
 1
 15
 155
 31
 155
 2
 144
 151
 160
 151
 2
 48
 150
 1
 79
 146
 1
 15
 145
 1
 117
 78
 19
 31
 116
 78
 19
 31
 39
 111
 55
 111
 71
 111
 3
 26
 1
 24
 85
 25
 19
 255
 31
 7
 4
 255
 31
 6
 3
 255
 31
 175
 103
 1
PUSHW_1
 -64
NPUSHB
 135
 102
 10
 13
 70
 31
 101
 47
 101
 2
 48
 100
 64
 100
 160
 100
 3
 20
 1
 18
 85
 19
 51
 18
 85
 5
 1
 3
 85
 4
 51
 3
 85
 15
 3
 127
 3
 239
 3
 3
 64
 87
 21
 24
 70
 48
 86
 64
 86
 80
 86
 3
 63
 85
 79
 85
 207
 85
 223
 85
 239
 85
 5
 80
 84
 240
 84
 2
 176

StartChar: .notdef
Encoding: 65536 -1 0
Width: 1229
GlyphClass: 2
Flags: W
LayerCount: 2
Fore
SplineSet
193 1462 m 1,0,-1
 1034 1462 l 1,1,-1
 1034 0 l 1,2,-1
 193 0 l 1,3,-1
 193 1462 l 1,0,-1
297 104 m 1,4,-1
 930 104 l 1,5,-1
 930 1358 l 1,6,-1
 297 1358 l 1,7,-1
 297 104 l 1,4,-1
EndSplineSet
EndChar

StartChar: exclam
Encoding: 33 33 4
Width: 682
GlyphClass: 2
Flags: W
LayerCount: 2
Fore
SplineSet
410 1462 m 1,0,-1
 647 1462 l 1,1,-1
 352 412 l 1,2,-1
 258 412 l 1,3,-1
 410 1462 l 1,0,-1
250 -16 m 0,4,5
 123 -16 123 -16 123 109 c 0,6,7
 123 180 123 180 159.5 223 c 128,-1,8
 196 266 196 266 258 266 c 0,9,10
 385 266 385 266 385 141 c 0,11,12
 385 68 385 68 348.5 26 c 128,-1,13
 312 -16 312 -16 250 -16 c 0,4,5
EndSplineSet
EndChar

StartChar: quotedbl
Encoding: 34 34 5
Width: 836
GlyphClass: 2
Flags: W
LayerCount: 2
Fore
SplineSet
694 1462 m 1,0,-1
 911 1462 l 1,1,-1
 748 981 l 1,2,-1
 653 981 l 1,3,-1
 694 1462 l 1,0,-1
309 1462 m 1,4,-1
 526 1462 l 1,5,-1
 362 981 l 1,6,-1
 268 981 l 1,7,-1
 309 1462 l 1,4,-1
EndSplineSet
EndChar

StartChar: numbersign
Encoding: 35 35 6
Width: 1145
GlyphClass: 2
Flags: W
LayerCount: 2
Fore
SplineSet
1038 537 m 1,0,-1
 1024 416 l 1,1,-1
 766 416 l 1,2,-1
 645 0 l 1,3,-1
 522 0 l 1,4,-1
 643 416 l 1,5,-1
 358 416 l 1,6,-1
 238 0 l 1,7,-1
 115 0 l 1,8,-1
 236 416 l 1,9,-1
 68 416 l 1,10,-1
 82 537 l 1,11,-1
 272 537 l 1,12,-1
 391 938 l 1,13,-1
 147 938 l 1,14,-1
 160 1059 l 1,15,-1
 426 1059 l 1,16,-1
 543 1462 l 1,17,-1
 668 1462 l 1,18,-1
 549 1059 l 1,19,-1
 834 1059 l 1,20,-1
 952 1462 l 1,21,-1
 1075 1462 l 1,22,-1
 956 1059 l 1,23,-1
 1116 1059 l 1,24,-1
 1104 938 l 1,25,-1
 922 938 l 1,26,-1
 805 537 l 1,27,-1
 1038 537 l 1,0,-1
397 537 m 1,28,-1
 682 537 l 1,29,-1
 799 938 l 1,30,-1
 514 938 l 1,31,-1
 397 537 l 1,28,-1
EndSplineSet
EndChar

StartChar: dollar
Encoding: 36 36 7
Width: 1145
GlyphClass: 2
Flags: W
LayerCount: 2
Fore
SplineSet
412 76 m 1,0,1
 242 88 242 88 145.5 164 c 128,-1,2
 49 240 49 240 49 352 c 0,3,4
 49 429 49 429 99.5 474.5 c 128,-1,5
 150 520 150 520 207 520 c 1,6,7
 207 385 207 385 267.5 292.5 c 128,-1,8
 328 200 328 200 432 178 c 1,9,-1
 539 680 l 1,10,11
 268 815 268 815 268 1030 c 0,12,13
 268 1197 268 1197 379.5 1294 c 128,-1,14
 491 1391 491 1391 694 1401 c 1,15,-1
 727 1556 l 1,16,-1
 829 1556 l 1,17,-1
 797 1401 l 1,18,19
 1092 1375 1092 1375 1092 1196 c 0,20,21
 1092 1055 1092 1055 926 1055 c 1,22,23
 926 1275 926 1275 776 1309 c 1,24,-1
 672 817 l 1,25,-1
 694 805 l 2,26,27
 879 704 879 704 929 631 c 128,-1,28
 979 558 979 558 979 469 c 0,29,30
 979 301 979 301 855.5 194 c 128,-1,31
 732 87 732 87 512 74 c 1,32,-1
 463 -162 l 1,33,-1
 360 -162 l 1,34,-1
 412 76 l 1,0,1
580 864 m 1,35,-1
 674 1311 l 1,36,37
 459 1275 459 1275 459 1059 c 0,38,39
 459 940 459 940 580 864 c 1,35,-1
633 635 m 1,40,-1
 535 174 l 1,41,42
 651 184 651 184 717.5 253 c 128,-1,43
 784 322 784 322 784 424 c 0,44,45
 784 556 784 556 633 635 c 1,40,-1
EndSplineSet
EndChar

StartChar: percent
Encoding: 37 37 8
Width: 1835
GlyphClass: 2
Flags: W
LayerCount: 2
Fore
SplineSet
565 1481 m 0,0,1
 838 1481 838 1481 838 1155 c 0,2,3
 838 948 838 948 717.5 761.5 c 128,-1,4
 597 575 597 575 399 575 c 0,5,6
 274 575 274 575 204.5 658.5 c 128,-1,7
 135 742 135 742 135 901 c 0,8,9
 135 1117 135 1117 253 1299 c 128,-1,10
 371 1481 371 1481 565 1481 c 0,0,1
297 870 m 0,11,12
 297 659 297 659 408 659 c 256,13,14
 519 659 519 659 593.5 836.5 c 128,-1,15
 668 1014 668 1014 668 1188 c 0,16,17
 668 1399 668 1399 557 1399 c 256,18,19
 446 1399 446 1399 371.5 1222 c 128,-1,20
 297 1045 297 1045 297 870 c 0,11,12
494 0 m 1,21,-1
 342 0 l 1,22,-1
 1370 1462 l 1,23,-1
 1513 1462 l 1,24,-1
 494 0 l 1,21,-1
1470 889 m 0,25,26
 1743 889 1743 889 1743 563 c 0,27,28
 1743 356 1743 356 1622.5 170 c 128,-1,29
 1502 -16 1502 -16 1305 -16 c 0,30,31
 1040 -16 1040 -16 1040 309 c 0,32,33
 1040 525 1040 525 1158 707 c 128,-1,34
 1276 889 1276 889 1470 889 c 0,25,26
1202 279 m 0,35,36
 1202 68 1202 68 1313 68 c 256,37,38
 1424 68 1424 68 1498.5 244.5 c 128,-1,39
 1573 421 1573 421 1573 596 c 0,40,41
 1573 807 1573 807 1462 807 c 256,42,43
 1351 807 1351 807 1276.5 630.5 c 128,-1,44
 1202 454 1202 454 1202 279 c 0,35,36
EndSplineSet
EndChar

StartChar: ampersand
Encoding: 38 38 9
Width: 1520
GlyphClass: 2
Flags: W
LayerCount: 2
Fore
SplineSet
1096 0 m 1,0,-1
 973 170 l 1,1,2
 788 -20 788 -20 520 -20 c 0,3,4
 309 -20 309 -20 190.5 84.5 c 128,-1,5
 72 189 72 189 72 362 c 0,6,7
 72 521 72 521 168 631 c 128,-1,8
 264 741 264 741 502 829 c 1,9,10
 403 996 403 996 403 1130 c 0,11,12
 403 1300 403 1300 514.5 1391.5 c 128,-1,13
 626 1483 626 1483 840 1483 c 0,14,15
 1006 1483 1006 1483 1096 1411 c 128,-1,16
 1186 1339 1186 1339 1186 1217 c 0,17,18
 1186 1084 1186 1084 1111 1002 c 128,-1,19
 1036 920 1036 920 739 813 c 1,20,-1
 1026 420 l 1,21,22
 1113 584 1113 584 1155 782 c 1,23,-1
 1171 862 l 1,24,-1
 1540 862 l 1,25,-1
 1522 776 l 1,26,-1
 1503 776 l 2,27,28
 1401 776 1401 776 1355 745.5 c 128,-1,29
 1309 715 1309 715 1288.5 686.5 c 128,-1,30
 1268 658 1268 658 1186 487 c 0,31,32
 1147 406 1147 406 1096 326 c 1,33,-1
 1208 172 l 2,34,35
 1271 86 1271 86 1409 86 c 2,36,-1
 1427 86 l 1,37,-1
 1409 0 l 1,38,-1
 1096 0 l 1,0,-1
682 895 m 1,39,40
 855 960 855 960 927 1025.5 c 128,-1,41
 999 1091 999 1091 999 1202 c 0,42,43
 999 1283 999 1283 951.5 1332.5 c 128,-1,44
 904 1382 904 1382 825 1382 c 0,45,46
 600 1382 600 1382 600 1145 c 0,47,48
 600 1031 600 1031 682 895 c 1,39,40
909 258 m 1,49,-1
 561 741 l 1,50,51
 401 668 401 668 337.5 585.5 c 128,-1,52
 274 503 274 503 274 367 c 0,53,54
 274 248 274 248 345.5 171 c 128,-1,55
 417 94 417 94 541 94 c 0,56,57
 753 94 753 94 909 258 c 1,49,-1
EndSplineSet
EndChar

StartChar: quotesingle
Encoding: 39 39 10
Width: 451
GlyphClass: 2
Flags: W
LayerCount: 2
Fore
SplineSet
301 1462 m 1,0,-1
 518 1462 l 1,1,-1
 354 981 l 1,2,-1
 260 981 l 1,3,-1
 301 1462 l 1,0,-1
EndSplineSet
EndChar

StartChar: parenleft
Encoding: 40 40 11
Width: 709
GlyphClass: 2
Flags: W
LayerCount: 2
Fore
SplineSet
469 -168 m 1,0,-1
 449 -262 l 1,1,2
 86 -103 86 -103 86 381 c 0,3,4
 86 794 86 794 284.5 1127 c 128,-1,5
 483 1460 483 1460 836 1556 c 1,6,-1
 815 1464 l 1,7,8
 532 1310 532 1310 405.5 946.5 c 128,-1,9
 279 583 279 583 279 285 c 0,10,11
 279 -36 279 -36 469 -168 c 1,0,-1
EndSplineSet
EndChar

StartChar: parenright
Encoding: 41 41 12
Width: 709
GlyphClass: 2
Flags: W
LayerCount: 2
Fore
SplineSet
266 1446 m 1,0,-1
 287 1540 l 1,1,2
 649 1382 649 1382 649 897 c 0,3,4
 649 482 649 482 449 148.5 c 128,-1,5
 249 -185 249 -185 -100 -279 c 1,6,-1
 -80 -186 l 1,7,8
 204 -33 204 -33 330.5 333.5 c 128,-1,9
 457 700 457 700 457 993 c 0,10,11
 457 1313 457 1313 266 1446 c 1,0,-1
EndSplineSet
EndChar

StartChar: asterisk
Encoding: 42 42 13
Width: 1024
GlyphClass: 2
Flags: W
LayerCount: 2
Fore
SplineSet
281 1354 m 1,0,-1
 385 1497 l 1,1,-1
 651 1237 l 1,2,-1
 668 1567 l 1,3,-1
 842 1530 l 1,4,-1
 719 1225 l 1,5,-1
 1069 1348 l 1,6,-1
 1106 1176 l 1,7,-1
 745 1149 l 1,8,-1
 1063 979 l 1,9,-1
 961 840 l 1,10,-1
 690 1092 l 1,11,-1
 678 764 l 1,12,-1
 504 801 l 1,13,-1
 623 1106 l 1,14,-1
 274 981 l 1,15,-1
 238 1153 l 1,16,-1
 596 1182 l 1,17,-1
 281 1354 l 1,0,-1
EndSplineSet
EndChar

StartChar: plus
Encoding: 43 43 14
Width: 1145
GlyphClass: 2
Flags: W
LayerCount: 2
Fore
SplineSet
649 672 m 1,0,-1
 649 293 l 1,1,-1
 526 293 l 1,2,-1
 526 672 l 1,3,-1
 150 672 l 1,4,-1
 150 793 l 1,5,-1
 526 793 l 1,6,-1
 526 1171 l 1,7,-1
 649 1171 l 1,8,-1
 649 793 l 1,9,-1
 1028 793 l 1,10,-1
 1028 672 l 1,11,-1
 649 672 l 1,0,-1
EndSplineSet
EndChar

StartChar: comma
Encoding: 44 44 15
Width: 512
GlyphClass: 2
Flags: W
LayerCount: 2
Fore
SplineSet
-57 -299 m 1,0,-1
 -49 -213 l 1,1,2
 160 -166 160 -166 160 -41 c 0,3,4
 160 -5 160 -5 94 37 c 0,5,6
 27 79 27 79 27 141 c 0,7,8
 27 196 27 196 62 229 c 128,-1,9
 97 262 97 262 154 262 c 0,10,11
 223 262 223 262 268 216.5 c 128,-1,12
 313 171 313 171 313 94 c 0,13,14
 313 -56 313 -56 218 -159.5 c 128,-1,15
 123 -263 123 -263 -57 -299 c 1,0,-1
EndSplineSet
EndChar

StartChar: hyphen
Encoding: 45 45 16
Width: 635
GlyphClass: 2
Flags: W
LayerCount: 2
Fore
SplineSet
29 481 m 1,0,-1
 61 635 l 1,1,-1
 594 635 l 1,2,-1
 561 481 l 1,3,-1
 29 481 l 1,0,-1
EndSplineSet
EndChar

StartChar: period
Encoding: 46 46 17
Width: 586
GlyphClass: 2
Flags: W
LayerCount: 2
Fore
SplineSet
217 -16 m 0,0,1
 90 -16 90 -16 90 109 c 0,2,3
 90 180 90 180 126.5 223 c 128,-1,4
 163 266 163 266 225 266 c 0,5,6
 352 266 352 266 352 141 c 0,7,8
 352 69 352 69 315.5 26.5 c 128,-1,9
 279 -16 279 -16 217 -16 c 0,0,1
EndSplineSet
EndChar

StartChar: slash
Encoding: 47 47 18
Width: 590
GlyphClass: 2
Flags: W
LayerCount: 2
Fore
SplineSet
-61 -248 m 1,0,-1
 -190 -248 l 1,1,-1
 651 1556 l 1,2,-1
 780 1556 l 1,3,-1
 -61 -248 l 1,0,-1
EndSplineSet
EndChar

StartChar: zero
Encoding: 48 48 19
Width: 1145
GlyphClass: 2
Flags: W
LayerCount: 2
Fore
SplineSet
696 1485 m 0,0,1
 876 1485 876 1485 980.5 1362 c 128,-1,2
 1085 1239 1085 1239 1085 1016 c 0,3,4
 1085 622 1085 622 918 299.5 c 128,-1,5
 751 -23 751 -23 477 -23 c 0,6,7
 294 -23 294 -23 188 108 c 128,-1,8
 82 239 82 239 82 473 c 0,9,10
 82 867 82 867 252 1176 c 128,-1,11
 422 1485 422 1485 696 1485 c 0,0,1
494 90 m 0,12,13
 672 90 672 90 779.5 385.5 c 128,-1,14
 887 681 887 681 887 1055 c 0,15,16
 887 1374 887 1374 676 1374 c 0,17,18
 497 1374 497 1374 389 1077 c 128,-1,19
 281 780 281 780 281 414 c 0,20,21
 281 90 281 90 494 90 c 0,12,13
EndSplineSet
EndChar

StartChar: one
Encoding: 49 49 20
Width: 1145
GlyphClass: 2
Flags: W
LayerCount: 2
Fore
SplineSet
872 1470 m 1,0,-1
 608 225 l 2,1,2
 600 187 600 187 600 168 c 0,3,4
 600 86 600 86 748 86 c 2,5,-1
 858 86 l 1,6,-1
 840 0 l 1,7,-1
 78 0 l 1,8,-1
 94 86 l 1,9,-1
 203 86 l 2,10,11
 300 86 300 86 344 122.5 c 128,-1,12
 388 159 388 159 403 233 c 2,13,-1
 563 987 l 2,14,15
 598 1151 598 1151 639 1309 c 1,16,-1
 631 1309 l 1,17,18
 502 1182 502 1182 439 1139 c 128,-1,19
 376 1096 376 1096 322 1096 c 0,20,21
 240 1096 240 1096 240 1206 c 1,22,23
 380 1240 380 1240 575 1364 c 2,24,-1
 741 1470 l 1,25,-1
 872 1470 l 1,0,-1
EndSplineSet
EndChar

StartChar: two
Encoding: 50 50 21
Width: 1145
GlyphClass: 2
Flags: W
LayerCount: 2
Fore
SplineSet
-35 0 m 1,0,-1
 8 166 l 1,1,-1
 489 600 l 2,2,3
 680 772 680 772 757 898 c 128,-1,4
 834 1024 834 1024 834 1174 c 0,5,6
 834 1269 834 1269 783 1324.5 c 128,-1,7
 732 1380 732 1380 645 1380 c 0,8,9
 409 1380 409 1380 354 1071 c 1,10,11
 209 1071 209 1071 209 1202 c 0,12,13
 209 1316 209 1316 332.5 1399.5 c 128,-1,14
 456 1483 456 1483 655 1483 c 0,15,16
 840 1483 840 1483 941 1405 c 128,-1,17
 1042 1327 1042 1327 1042 1184 c 0,18,19
 1042 1062 1042 1062 955 932.5 c 128,-1,20
 868 803 868 803 616 578 c 1,21,-1
 156 164 l 1,22,-1
 631 164 l 2,23,24
 698 164 698 164 745.5 194.5 c 128,-1,25
 793 225 793 225 834 317 c 1,26,-1
 848 350 l 1,27,-1
 934 350 l 1,28,-1
 852 0 l 1,29,-1
 -35 0 l 1,0,-1
EndSplineSet
EndChar

StartChar: three
Encoding: 51 51 22
Width: 1145
GlyphClass: 2
Flags: W
LayerCount: 2
Fore
SplineSet
362 705 m 1,0,-1
 383 809 l 1,1,-1
 449 809 l 2,2,3
 623 809 623 809 735.5 916 c 128,-1,4
 848 1023 848 1023 848 1194 c 0,5,6
 848 1380 848 1380 674 1380 c 0,7,8
 446 1380 446 1380 383 1075 c 1,9,10
 231 1075 231 1075 231 1206 c 0,11,12
 231 1325 231 1325 358.5 1404 c 128,-1,13
 486 1483 486 1483 682 1483 c 0,14,15
 856 1483 856 1483 957.5 1404 c 128,-1,16
 1059 1325 1059 1325 1059 1190 c 0,17,18
 1059 1034 1059 1034 948.5 919 c 128,-1,19
 838 804 838 804 647 770 c 1,20,21
 794 755 794 755 874 671.5 c 128,-1,22
 954 588 954 588 954 461 c 0,23,24
 954 230 954 230 794.5 105 c 128,-1,25
 635 -20 635 -20 391 -20 c 0,26,27
 194 -20 194 -20 94 38.5 c 128,-1,28
 -6 97 -6 97 -6 195 c 0,29,30
 -6 263 -6 263 37 304.5 c 128,-1,31
 80 346 80 346 150 346 c 1,32,33
 150 234 150 234 217 163 c 128,-1,34
 284 92 284 92 406 92 c 0,35,36
 552 92 552 92 645.5 185 c 128,-1,37
 739 278 739 278 739 438 c 0,38,39
 739 565 739 565 663.5 635 c 128,-1,40
 588 705 588 705 451 705 c 2,41,-1
 362 705 l 1,0,-1
EndSplineSet
EndChar

StartChar: four
Encoding: 52 52 23
Width: 1145
GlyphClass: 2
Flags: W
LayerCount: 2
Fore
SplineSet
262 0 m 1,0,-1
 279 86 l 1,1,-1
 369 86 l 2,2,3
 466 86 466 86 510 122.5 c 128,-1,4
 554 159 554 159 569 233 c 2,5,-1
 602 401 l 1,6,-1
 -29 401 l 1,7,-1
 -10 485 l 1,8,-1
 829 1462 l 1,9,-1
 1026 1462 l 1,10,-1
 823 516 l 1,11,-1
 1077 516 l 1,12,-1
 1053 401 l 1,13,-1
 799 401 l 1,14,-1
 764 225 l 2,15,16
 756 185 756 185 756 168 c 0,17,18
 756 86 756 86 903 86 c 2,19,-1
 950 86 l 1,20,-1
 932 0 l 1,21,-1
 262 0 l 1,0,-1
707 899 m 2,22,23
 756 1131 756 1131 807 1296 c 1,24,25
 722 1167 722 1167 627 1061 c 1,26,-1
 162 516 l 1,27,-1
 627 516 l 1,28,-1
 707 899 l 2,22,23
EndSplineSet
EndChar

StartChar: five
Encoding: 53 53 24
Width: 1145
GlyphClass: 2
Flags: W
LayerCount: 2
Fore
SplineSet
258 717 m 1,0,-1
 188 731 l 1,1,-1
 408 1462 l 1,2,-1
 1092 1462 l 1,3,-1
 1036 1153 l 1,4,-1
 950 1153 l 1,5,6
 956 1231 956 1231 956 1249 c 0,7,8
 956 1298 956 1298 862 1298 c 2,9,-1
 465 1298 l 1,10,-1
 330 842 l 1,11,12
 429 874 429 874 526 874 c 0,13,14
 728 874 728 874 842 774 c 128,-1,15
 956 674 956 674 956 498 c 0,16,17
 956 270 956 270 796.5 125 c 128,-1,18
 637 -20 637 -20 375 -20 c 0,19,20
 16 -20 16 -20 16 184 c 0,21,22
 16 311 16 311 170 311 c 1,23,24
 177 92 177 92 393 92 c 0,25,26
 558 92 558 92 650.5 195 c 128,-1,27
 743 298 743 298 743 483 c 0,28,29
 743 615 743 615 671.5 688.5 c 128,-1,30
 600 762 600 762 481 762 c 0,31,32
 371 762 371 762 258 717 c 1,0,-1
EndSplineSet
EndChar

StartChar: six
Encoding: 54 54 25
Width: 1145
GlyphClass: 2
Flags: W
LayerCount: 2
Fore
SplineSet
360 782 m 1,0,1
 512 889 512 889 662 889 c 0,2,3
 824 889 824 889 916 791.5 c 128,-1,4
 1008 694 1008 694 1008 530 c 0,5,6
 1008 292 1008 292 873.5 136 c 128,-1,7
 739 -20 739 -20 508 -20 c 0,8,9
 335 -20 335 -20 229 111.5 c 128,-1,10
 123 243 123 243 123 475 c 0,11,12
 123 888 123 888 321.5 1185.5 c 128,-1,13
 520 1483 520 1483 823 1483 c 0,14,15
 969 1483 969 1483 1053 1430 c 128,-1,16
 1137 1377 1137 1377 1137 1298 c 0,17,18
 1137 1145 1137 1145 958 1145 c 1,19,20
 958 1284 958 1284 923 1334 c 128,-1,21
 888 1384 888 1384 819 1384 c 0,22,23
 511 1384 511 1384 360 782 c 1,0,1
338 666 m 1,24,25
 309 502 309 502 309 399 c 0,26,27
 309 92 309 92 520 92 c 0,28,29
 644 92 644 92 724.5 212 c 128,-1,30
 805 332 805 332 805 518 c 0,31,32
 805 784 805 784 621 784 c 0,33,34
 484 784 484 784 338 666 c 1,24,25
EndSplineSet
EndChar

StartChar: seven
Encoding: 55 55 26
Width: 1145
GlyphClass: 2
Flags: W
LayerCount: 2
Fore
SplineSet
221 0 m 1,0,-1
 979 1298 l 1,1,-1
 440 1298 l 2,2,3
 328 1298 328 1298 299 1194 c 2,4,-1
 270 1092 l 1,5,-1
 184 1092 l 1,6,-1
 272 1462 l 1,7,-1
 1188 1462 l 1,8,-1
 1176 1403 l 1,9,-1
 375 0 l 1,10,-1
 221 0 l 1,0,-1
EndSplineSet
EndChar

StartChar: eight
Encoding: 56 56 27
Width: 1145
GlyphClass: 2
Flags: W
LayerCount: 2
Fore
SplineSet
426 748 m 1,0,1
 225 892 225 892 225 1087 c 0,2,3
 225 1274 225 1274 351.5 1378.5 c 128,-1,4
 478 1483 478 1483 715 1483 c 0,5,6
 889 1483 889 1483 990.5 1400.5 c 128,-1,7
 1092 1318 1092 1318 1092 1184 c 0,8,9
 1092 1052 1092 1052 1011.5 956.5 c 128,-1,10
 931 861 931 861 735 780 c 1,11,12
 995 629 995 629 995 414 c 0,13,14
 995 205 995 205 850 92.5 c 128,-1,15
 705 -20 705 -20 455 -20 c 0,16,17
 257 -20 257 -20 138.5 78 c 128,-1,18
 20 176 20 176 20 332 c 0,19,20
 20 474 20 474 110 570 c 128,-1,21
 200 666 200 666 426 748 c 1,0,1
637 829 m 1,22,23
 909 945 909 945 909 1169 c 0,24,25
 909 1269 909 1269 853 1324.5 c 128,-1,26
 797 1380 797 1380 698 1380 c 0,27,28
 573 1380 573 1380 497.5 1306 c 128,-1,29
 422 1232 422 1232 422 1110 c 0,30,31
 422 945 422 945 637 829 c 1,22,23
520 694 m 1,32,33
 217 583 217 583 217 328 c 0,34,35
 217 213 217 213 288 146.5 c 128,-1,36
 359 80 359 80 481 80 c 0,37,38
 625 80 625 80 713 156 c 128,-1,39
 801 232 801 232 801 365 c 0,40,41
 801 471 801 471 733 546.5 c 128,-1,42
 665 622 665 622 520 694 c 1,32,33
EndSplineSet
EndChar

StartChar: nine
Encoding: 57 57 28
Width: 1145
GlyphClass: 2
Flags: W
LayerCount: 2
Fore
SplineSet
809 702 m 1,0,1
 675 563 675 563 496 563 c 0,2,3
 337 563 337 563 243.5 656 c 128,-1,4
 150 749 150 749 150 903 c 0,5,6
 150 1153 150 1153 307.5 1318 c 128,-1,7
 465 1483 465 1483 690 1483 c 0,8,9
 863 1483 863 1483 964 1377 c 128,-1,10
 1065 1271 1065 1271 1065 1079 c 0,11,12
 1065 685 1065 685 877 332.5 c 128,-1,13
 689 -20 689 -20 358 -20 c 0,14,15
 72 -20 72 -20 72 164 c 0,16,17
 72 215 72 215 104 249 c 128,-1,18
 136 283 136 283 193 283 c 1,19,20
 197 190 197 190 245.5 135 c 128,-1,21
 294 80 294 80 375 80 c 0,22,23
 517 80 517 80 618.5 225.5 c 128,-1,24
 720 371 720 371 809 702 c 1,0,1
842 850 m 1,25,26
 874 983 874 983 874 1092 c 0,27,28
 874 1370 874 1370 684 1370 c 0,29,30
 549 1370 549 1370 451.5 1226 c 128,-1,31
 354 1082 354 1082 354 897 c 0,32,33
 354 788 354 788 406.5 732 c 128,-1,34
 459 676 459 676 547 676 c 0,35,36
 711 676 711 676 842 850 c 1,25,26
EndSplineSet
EndChar

StartChar: colon
Encoding: 58 58 29
Width: 588
GlyphClass: 2
Flags: W
LayerCount: 2
Fore
SplineSet
377 825 m 0,0,1
 250 825 250 825 250 950 c 0,2,3
 250 1021 250 1021 286.5 1064.5 c 128,-1,4
 323 1108 323 1108 385 1108 c 0,5,6
 512 1108 512 1108 512 983 c 0,7,8
 512 909 512 909 475.5 867 c 128,-1,9
 439 825 439 825 377 825 c 0,0,1
193 -16 m 0,10,11
 66 -16 66 -16 66 109 c 0,12,13
 66 180 66 180 102.5 223 c 128,-1,14
 139 266 139 266 201 266 c 0,15,16
 261 266 261 266 294.5 232 c 128,-1,17
 328 198 328 198 328 141 c 0,18,19
 328 68 328 68 291.5 26 c 128,-1,20
 255 -16 255 -16 193 -16 c 0,10,11
EndSplineSet
EndChar

StartChar: semicolon
Encoding: 59 59 30
Width: 586
GlyphClass: 2
Flags: W
LayerCount: 2
Fore
SplineSet
381 825 m 0,0,1
 254 825 254 825 254 950 c 0,2,3
 254 1021 254 1021 290.5 1064.5 c 128,-1,4
 327 1108 327 1108 389 1108 c 0,5,6
 516 1108 516 1108 516 983 c 0,7,8
 516 909 516 909 479.5 867 c 128,-1,9
 443 825 443 825 381 825 c 0,0,1
37 -299 m 1,10,-1
 45 -213 l 1,11,12
 254 -166 254 -166 254 -41 c 0,13,14
 254 -5 254 -5 188 37 c 0,15,16
 121 79 121 79 121 141 c 0,17,18
 121 196 121 196 156 229 c 128,-1,19
 191 262 191 262 248 262 c 0,20,21
 317 262 317 262 362.5 215.5 c 128,-1,22
 408 169 408 169 408 94 c 0,23,24
 408 -57 408 -57 311.5 -160 c 128,-1,25
 215 -263 215 -263 37 -299 c 1,10,-1
EndSplineSet
EndChar

StartChar: less
Encoding: 60 60 31
Width: 1145
GlyphClass: 2
Flags: W
LayerCount: 2
Fore
SplineSet
150 696 m 1,0,-1
 150 768 l 1,1,-1
 1028 1241 l 1,2,-1
 1028 1104 l 1,3,-1
 340 731 l 1,4,-1
 1028 362 l 1,5,-1
 1028 225 l 1,6,-1
 150 696 l 1,0,-1
EndSplineSet
EndChar

StartChar: equal
Encoding: 61 61 32
Width: 1145
GlyphClass: 2
Flags: W
LayerCount: 2
Fore
SplineSet
1028 993 m 1,0,-1
 1028 872 l 1,1,-1
 150 872 l 1,2,-1
 150 993 l 1,3,-1
 1028 993 l 1,0,-1
1028 590 m 1,4,-1
 1028 469 l 1,5,-1
 150 469 l 1,6,-1
 150 590 l 1,7,-1
 1028 590 l 1,4,-1
EndSplineSet
EndChar

StartChar: greater
Encoding: 62 62 33
Width: 1145
GlyphClass: 2
Flags: W
LayerCount: 2
Fore
SplineSet
150 225 m 1,0,-1
 150 362 l 1,1,-1
 838 731 l 1,2,-1
 150 1104 l 1,3,-1
 150 1241 l 1,4,-1
 1028 768 l 1,5,-1
 1028 696 l 1,6,-1
 150 225 l 1,0,-1
EndSplineSet
EndChar

StartChar: question
Encoding: 63 63 34
Width: 1024
GlyphClass: 2
Flags: W
LayerCount: 2
Fore
SplineSet
565 649 m 1,0,-1
 514 412 l 1,1,-1
 389 412 l 1,2,-1
 453 715 l 1,3,4
 868 869 868 869 868 1159 c 0,5,6
 868 1259 868 1259 814 1319.5 c 128,-1,7
 760 1380 760 1380 670 1380 c 0,8,9
 459 1380 459 1380 416 1090 c 1,10,11
 268 1090 268 1090 268 1212 c 0,12,13
 268 1326 268 1326 382.5 1404.5 c 128,-1,14
 497 1483 497 1483 682 1483 c 0,15,16
 1069 1483 1069 1483 1069 1143 c 0,17,18
 1069 832 1069 832 565 649 c 1,0,-1
406 -16 m 0,19,20
 279 -16 279 -16 279 109 c 0,21,22
 279 180 279 180 315.5 223 c 128,-1,23
 352 266 352 266 414 266 c 0,24,25
 474 266 474 266 507.5 232 c 128,-1,26
 541 198 541 198 541 141 c 0,27,28
 541 68 541 68 504.5 26 c 128,-1,29
 468 -16 468 -16 406 -16 c 0,19,20
EndSplineSet
EndChar

StartChar: at
Encoding: 64 64 35
Width: 1886
GlyphClass: 2
Flags: W
LayerCount: 2
Fore
SplineSet
1135 344 m 1,0,-1
 1124 344 l 1,1,2
 1027 158 1027 158 848 158 c 0,3,4
 709 158 709 158 623 251 c 128,-1,5
 537 344 537 344 537 508 c 0,6,7
 537 726 537 726 678 904.5 c 128,-1,8
 819 1083 819 1083 1059 1083 c 0,9,10
 1173 1083 1173 1083 1251 1022 c 1,11,-1
 1333 1065 l 1,12,-1
 1382 1065 l 1,13,-1
 1278 543 l 2,14,15
 1264 473 1264 473 1264 406 c 0,16,17
 1264 343 1264 343 1297.5 304.5 c 128,-1,18
 1331 266 1331 266 1389 266 c 0,19,20
 1490 266 1490 266 1571.5 418.5 c 128,-1,21
 1653 571 1653 571 1653 809 c 0,22,23
 1653 1064 1653 1064 1497 1211 c 128,-1,24
 1341 1358 1341 1358 1073 1358 c 0,25,26
 755 1358 755 1358 525 1102.5 c 128,-1,27
 295 847 295 847 295 451 c 0,28,29
 295 146 295 146 458 -19 c 128,-1,30
 621 -184 621 -184 905 -184 c 0,31,32
 1187 -184 1187 -184 1425 -14 c 1,33,-1
 1473 -88 l 1,34,35
 1198 -291 1198 -291 885 -291 c 0,36,37
 533 -291 533 -291 333 -96.5 c 128,-1,38
 133 98 133 98 133 446 c 0,39,40
 133 885 133 885 403 1173.5 c 128,-1,41
 673 1462 673 1462 1085 1462 c 0,42,43
 1407 1462 1407 1462 1592.5 1282.5 c 128,-1,44
 1778 1103 1778 1103 1778 803 c 0,45,46
 1778 525 1778 525 1653.5 341.5 c 128,-1,47
 1529 158 1529 158 1376 158 c 0,48,49
 1198 158 1198 158 1135 344 c 1,0,-1
1182 938 m 1,50,51
 1153 999 1153 999 1067 999 c 0,52,53
 913 999 913 999 820 831 c 128,-1,54
 727 663 727 663 727 479 c 0,55,56
 727 371 727 371 770.5 318.5 c 128,-1,57
 814 266 814 266 883 266 c 0,58,59
 1055 266 1055 266 1104 522 c 2,60,-1
 1182 938 l 1,50,51
EndSplineSet
EndChar

StartChar: A
Encoding: 65 65 36
Width: 1444
GlyphClass: 2
Flags: W
LayerCount: 2
Fore
SplineSet
408 489 m 1,0,-1
 285 274 l 2,1,2
 246 206 246 206 246 160 c 0,3,4
 246 86 246 86 360 86 c 2,5,-1
 408 86 l 1,6,-1
 391 0 l 1,7,-1
 -115 0 l 1,8,-1
 -98 86 l 1,9,-1
 -59 86 l 2,10,11
 -4 86 -4 86 33 114.5 c 128,-1,12
 70 143 70 143 131 246 c 2,13,-1
 844 1462 l 1,14,-1
 1004 1462 l 1,15,-1
 1198 195 l 2,16,17
 1208 131 1208 131 1233 108.5 c 128,-1,18
 1258 86 1258 86 1319 86 c 2,19,-1
 1346 86 l 1,20,-1
 1329 0 l 1,21,-1
 772 0 l 1,22,-1
 788 86 l 1,23,-1
 836 86 l 2,24,25
 983 86 983 86 983 190 c 0,26,27
 983 232 983 232 979 260 c 2,28,-1
 946 489 l 1,29,-1
 408 489 l 1,0,-1
881 950 m 2,30,31
 850 1168 850 1168 848 1274 c 1,32,33
 801 1163 801 1163 688 969 c 2,34,-1
 469 592 l 1,35,-1
 932 592 l 1,36,-1
 881 950 l 2,30,31
EndSplineSet
EndChar

StartChar: B
Encoding: 66 66 37
Width: 1339
GlyphClass: 2
Flags: W
LayerCount: 2
Fore
SplineSet
-27 86 m 1,0,-1
 0 86 l 2,1,2
 170 86 170 86 201 233 c 2,3,-1
 414 1237 l 2,4,5
 422 1275 422 1275 422 1294 c 0,6,7
 422 1376 422 1376 274 1376 c 2,8,-1
 248 1376 l 1,9,-1
 266 1462 l 1,10,-1
 797 1462 l 2,11,12
 1276 1462 1276 1462 1276 1155 c 0,13,14
 1276 852 1276 852 942 774 c 1,15,-1
 940 766 l 1,16,17
 1190 716 1190 716 1190 467 c 0,18,19
 1190 242 1190 242 1039 121 c 128,-1,20
 888 0 888 0 600 0 c 2,21,-1
 -43 0 l 1,22,-1
 -27 86 l 1,0,-1
530 817 m 1,23,-1
 688 817 l 2,24,25
 1053 817 1053 817 1053 1128 c 0,26,27
 1053 1360 1053 1360 770 1360 c 2,28,-1
 647 1360 l 1,29,-1
 530 817 l 1,23,-1
379 102 m 1,30,-1
 578 102 l 2,31,32
 969 102 969 102 969 481 c 0,33,34
 969 715 969 715 682 715 c 2,35,-1
 510 715 l 1,36,-1
 379 102 l 1,30,-1
EndSplineSet
EndChar

StartChar: C
Encoding: 67 67 38
Width: 1284
GlyphClass: 2
Flags: W
LayerCount: 2
Fore
SplineSet
1073 299 m 1,0,1
 1100 280 1100 280 1100 231 c 0,2,3
 1100 133 1100 133 986 56.5 c 128,-1,4
 872 -20 872 -20 672 -20 c 0,5,6
 405 -20 405 -20 255.5 123 c 128,-1,7
 106 266 106 266 106 528 c 0,8,9
 106 916 106 916 348 1199.5 c 128,-1,10
 590 1483 590 1483 950 1483 c 0,11,12
 1129 1483 1129 1483 1229 1421.5 c 128,-1,13
 1329 1360 1329 1360 1329 1255 c 0,14,15
 1329 1182 1329 1182 1274 1139 c 128,-1,16
 1219 1096 1219 1096 1128 1096 c 1,17,18
 1128 1374 1128 1374 924 1374 c 0,19,20
 671 1374 671 1374 500.5 1098.5 c 128,-1,21
 330 823 330 823 330 496 c 0,22,23
 330 113 330 113 694 113 c 0,24,25
 931 113 931 113 1073 299 c 1,0,1
EndSplineSet
EndChar

StartChar: D
Encoding: 68 68 39
Width: 1485
GlyphClass: 2
Flags: W
LayerCount: 2
Fore
SplineSet
-27 86 m 1,0,-1
 0 86 l 2,1,2
 170 86 170 86 201 233 c 2,3,-1
 414 1237 l 2,4,5
 422 1275 422 1275 422 1294 c 0,6,7
 422 1376 422 1376 274 1376 c 2,8,-1
 248 1376 l 1,9,-1
 266 1462 l 1,10,-1
 840 1462 l 2,11,12
 1119 1462 1119 1462 1270 1317.5 c 128,-1,13
 1421 1173 1421 1173 1421 905 c 0,14,15
 1421 513 1421 513 1198 256.5 c 128,-1,16
 975 0 975 0 602 0 c 2,17,-1
 -43 0 l 1,18,-1
 -27 86 l 1,0,-1
557 104 m 2,19,20
 853 104 853 104 1025.5 331 c 128,-1,21
 1198 558 1198 558 1198 928 c 0,22,23
 1198 1360 1198 1360 809 1360 c 2,24,-1
 647 1360 l 1,25,-1
 379 104 l 1,26,-1
 557 104 l 2,19,20
EndSplineSet
EndChar

StartChar: E
Encoding: 69 69 40
Width: 1276
GlyphClass: 2
Flags: W
LayerCount: 2
Fore
SplineSet
379 102 m 1,0,-1
 774 102 l 2,1,2
 947 102 947 102 1006 270 c 1,3,-1
 1038 358 l 1,4,-1
 1145 358 l 1,5,-1
 1055 0 l 1,6,-1
 -43 0 l 1,7,-1
 -27 86 l 1,8,-1
 0 86 l 2,9,10
 104 86 104 86 144.5 122.5 c 128,-1,11
 185 159 185 159 199 223 c 2,12,-1
 412 1229 l 2,13,14
 418 1257 418 1257 418 1278 c 0,15,16
 418 1326 418 1326 390 1351 c 128,-1,17
 362 1376 362 1376 274 1376 c 2,18,-1
 248 1376 l 1,19,-1
 266 1462 l 1,20,-1
 1298 1462 l 1,21,-1
 1233 1104 l 1,22,-1
 1126 1104 l 1,23,-1
 1132 1167 l 2,24,25
 1137 1215 1137 1215 1137 1223 c 0,26,27
 1137 1360 1137 1360 991 1360 c 2,28,-1
 647 1360 l 1,29,-1
 530 815 l 1,30,-1
 1024 815 l 1,31,-1
 1004 715 l 1,32,-1
 510 715 l 1,33,-1
 379 102 l 1,0,-1
EndSplineSet
EndChar

StartChar: F
Encoding: 70 70 41
Width: 1208
GlyphClass: 2
Flags: W
LayerCount: 2
Fore
SplineSet
-27 86 m 1,0,-1
 0 86 l 2,1,2
 96 86 96 86 138 119 c 128,-1,3
 180 152 180 152 199 223 c 1,4,-1
 414 1237 l 2,5,6
 422 1275 422 1275 422 1294 c 0,7,8
 422 1376 422 1376 274 1376 c 2,9,-1
 248 1376 l 1,10,-1
 266 1462 l 1,11,-1
 1298 1462 l 1,12,-1
 1233 1104 l 1,13,-1
 1126 1104 l 1,14,-1
 1130 1140 l 1,15,16
 1131 1159 1131 1159 1133 1176 c 0,17,18
 1137 1210 1137 1210 1137 1223 c 0,19,20
 1137 1360 1137 1360 983 1360 c 2,21,-1
 647 1360 l 1,22,-1
 520 768 l 1,23,-1
 1014 768 l 1,24,-1
 993 668 l 1,25,-1
 500 668 l 1,26,-1
 408 233 l 2,27,28
 401 200 401 200 401 182 c 0,29,30
 401 86 401 86 543 86 c 2,31,-1
 610 86 l 1,32,-1
 594 0 l 1,33,-1
 -43 0 l 1,34,-1
 -27 86 l 1,0,-1
EndSplineSet
EndChar

StartChar: G
Encoding: 71 71 42
Width: 1462
GlyphClass: 2
Flags: W
LayerCount: 2
Fore
SplineSet
1430 676 m 1,0,-1
 1411 590 l 1,1,-1
 1403 590 l 2,2,3
 1321 590 1321 590 1283 553.5 c 128,-1,4
 1245 517 1245 517 1229 442 c 2,5,-1
 1151 74 l 1,6,7
 934 -20 934 -20 688 -20 c 0,8,9
 408 -20 408 -20 257 123.5 c 128,-1,10
 106 267 106 267 106 528 c 0,11,12
 106 935 106 935 356 1209 c 128,-1,13
 606 1483 606 1483 987 1483 c 0,14,15
 1191 1483 1191 1483 1305 1421 c 128,-1,16
 1419 1359 1419 1359 1419 1262 c 0,17,18
 1419 1186 1419 1186 1358 1143 c 128,-1,19
 1297 1100 1297 1100 1202 1100 c 1,20,21
 1202 1232 1202 1232 1135 1303 c 128,-1,22
 1068 1374 1068 1374 944 1374 c 0,23,24
 691 1374 691 1374 510.5 1112.5 c 128,-1,25
 330 851 330 851 330 496 c 0,26,27
 330 96 330 96 725 96 c 0,28,29
 840 96 840 96 956 125 c 1,30,-1
 1024 451 l 2,31,32
 1032 489 1032 489 1032 508 c 0,33,34
 1032 590 1032 590 885 590 c 2,35,-1
 866 590 l 1,36,-1
 885 676 l 1,37,-1
 1430 676 l 1,0,-1
EndSplineSet
EndChar

StartChar: H
Encoding: 72 72 43
Width: 1624
GlyphClass: 2
Flags: W
LayerCount: 2
Fore
SplineSet
829 0 m 1,0,-1
 846 86 l 1,1,-1
 872 86 l 2,2,3
 970 86 970 86 1014 122.5 c 128,-1,4
 1058 159 1058 159 1073 233 c 2,5,-1
 1174 713 l 1,6,-1
 508 713 l 1,7,-1
 406 225 l 2,8,9
 397 182 397 182 397 168 c 0,10,11
 397 86 397 86 545 86 c 2,12,-1
 571 86 l 1,13,-1
 553 0 l 1,14,-1
 -43 0 l 1,15,-1
 -27 86 l 1,16,-1
 0 86 l 2,17,18
 99 86 99 86 142 123.5 c 128,-1,19
 185 161 185 161 201 233 c 2,20,-1
 414 1237 l 2,21,22
 422 1275 422 1275 422 1294 c 0,23,24
 422 1376 422 1376 274 1376 c 2,25,-1
 248 1376 l 1,26,-1
 266 1462 l 1,27,-1
 862 1462 l 1,28,-1
 844 1376 l 1,29,-1
 817 1376 l 2,30,31
 719 1376 719 1376 676 1339 c 128,-1,32
 633 1302 633 1302 618 1229 c 2,33,-1
 530 815 l 1,34,-1
 1196 815 l 1,35,-1
 1286 1237 l 2,36,37
 1294 1275 1294 1275 1294 1294 c 0,38,39
 1294 1376 1294 1376 1147 1376 c 2,40,-1
 1120 1376 l 1,41,-1
 1139 1462 l 1,42,-1
 1735 1462 l 1,43,-1
 1716 1376 l 1,44,-1
 1690 1376 l 2,45,46
 1592 1376 1592 1376 1549 1338.5 c 128,-1,47
 1506 1301 1506 1301 1491 1229 c 2,48,-1
 1278 225 l 2,49,50
 1270 187 1270 187 1270 168 c 0,51,52
 1270 86 1270 86 1417 86 c 2,53,-1
 1444 86 l 1,54,-1
 1425 0 l 1,55,-1
 829 0 l 1,0,-1
EndSplineSet
EndChar

StartChar: I
Encoding: 73 73 44
Width: 752
GlyphClass: 2
Flags: W
LayerCount: 2
Fore
SplineSet
862 1462 m 1,0,-1
 844 1376 l 1,1,-1
 817 1376 l 2,2,3
 719 1376 719 1376 676 1339 c 128,-1,4
 633 1302 633 1302 618 1229 c 2,5,-1
 406 225 l 2,6,7
 397 182 397 182 397 168 c 0,8,9
 397 86 397 86 545 86 c 2,10,-1
 571 86 l 1,11,-1
 553 0 l 1,12,-1
 -43 0 l 1,13,-1
 -27 86 l 1,14,-1
 0 86 l 2,15,16
 170 86 170 86 201 233 c 2,17,-1
 414 1237 l 2,18,19
 422 1275 422 1275 422 1294 c 0,20,21
 422 1376 422 1376 274 1376 c 2,22,-1
 248 1376 l 1,23,-1
 266 1462 l 1,24,-1
 862 1462 l 1,0,-1
EndSplineSet
EndChar

StartChar: J
Encoding: 74 74 45
Width: 731
GlyphClass: 2
Flags: W
LayerCount: 2
Fore
SplineSet
852 1462 m 1,0,-1
 834 1376 l 1,1,-1
 807 1376 l 2,2,3
 709 1376 709 1376 666 1339 c 128,-1,4
 623 1302 623 1302 608 1229 c 2,5,-1
 342 -16 l 2,6,7
 288 -267 288 -267 170.5 -379.5 c 128,-1,8
 53 -492 53 -492 -150 -492 c 0,9,10
 -241 -492 -241 -492 -317 -469 c 1,11,-1
 -289 -377 l 1,12,13
 -238 -395 -238 -395 -156 -395 c 0,14,15
 -37 -395 -37 -395 29 -306 c 128,-1,16
 95 -217 95 -217 137 -18 c 2,17,-1
 403 1237 l 2,18,19
 412 1279 412 1279 412 1294 c 0,20,21
 412 1376 412 1376 264 1376 c 2,22,-1
 238 1376 l 1,23,-1
 256 1462 l 1,24,-1
 852 1462 l 1,0,-1
EndSplineSet
EndChar

StartChar: K
Encoding: 75 75 46
Width: 1434
GlyphClass: 2
Flags: W
LayerCount: 2
Fore
SplineSet
-27 86 m 1,0,-1
 0 86 l 2,1,2
 99 86 99 86 142 123.5 c 128,-1,3
 185 161 185 161 201 233 c 2,4,-1
 414 1237 l 2,5,6
 422 1275 422 1275 422 1294 c 0,7,8
 422 1376 422 1376 274 1376 c 2,9,-1
 248 1376 l 1,10,-1
 266 1462 l 1,11,-1
 862 1462 l 1,12,-1
 844 1376 l 1,13,-1
 817 1376 l 2,14,15
 719 1376 719 1376 676 1339 c 128,-1,16
 633 1302 633 1302 618 1229 c 2,17,-1
 530 815 l 1,18,-1
 494 664 l 1,19,-1
 1022 1149 l 2,20,21
 1176 1290 1176 1290 1176 1333 c 0,22,23
 1176 1378 1176 1378 1085 1378 c 1,24,-1
 1102 1462 l 1,25,-1
 1554 1462 l 1,26,-1
 1538 1378 l 1,27,28
 1485 1378 1485 1378 1420 1342.5 c 128,-1,29
 1355 1307 1355 1307 1223 1186 c 1,30,-1
 850 848 l 1,31,-1
 1098 250 l 2,32,33
 1166 86 1166 86 1292 86 c 2,34,-1
 1298 86 l 1,35,-1
 1280 0 l 1,36,-1
 1251 0 l 2,37,38
 1089 0 1089 0 1010 33.5 c 128,-1,39
 931 67 931 67 883 190 c 2,40,-1
 684 696 l 1,41,-1
 473 549 l 1,42,-1
 406 225 l 2,43,44
 397 181 397 181 397 168 c 0,45,46
 397 86 397 86 545 86 c 2,47,-1
 571 86 l 1,48,-1
 553 0 l 1,49,-1
 -43 0 l 1,50,-1
 -27 86 l 1,0,-1
EndSplineSet
EndChar

StartChar: L
Encoding: 76 76 47
Width: 1276
GlyphClass: 2
Flags: W
LayerCount: 2
Fore
SplineSet
-23 86 m 1,0,-1
 4 86 l 2,1,2
 100 86 100 86 142 123.5 c 128,-1,3
 184 161 184 161 201 233 c 1,4,-1
 414 1237 l 2,5,6
 422 1275 422 1275 422 1294 c 0,7,8
 422 1376 422 1376 274 1376 c 2,9,-1
 248 1376 l 1,10,-1
 266 1462 l 1,11,-1
 862 1462 l 1,12,-1
 844 1376 l 1,13,-1
 817 1376 l 2,14,15
 720 1376 720 1376 678 1341.5 c 128,-1,16
 636 1307 636 1307 621 1237 c 2,17,-1
 379 102 l 1,18,-1
 782 102 l 2,19,20
 939 102 939 102 1001 287 c 1,21,-1
 1055 440 l 1,22,-1
 1161 440 l 1,23,-1
 1055 0 l 1,24,-1
 -41 0 l 1,25,-1
 -23 86 l 1,0,-1
EndSplineSet
EndChar

StartChar: M
Encoding: 77 77 48
Width: 1921
GlyphClass: 2
Flags: W
LayerCount: 2
Fore
SplineSet
1178 0 m 1,0,-1
 1196 86 l 1,1,-1
 1202 86 l 2,2,3
 1289 86 1289 86 1324 118.5 c 128,-1,4
 1359 151 1359 151 1376 215 c 1,5,-1
 1610 1309 l 1,6,-1
 862 0 l 1,7,-1
 752 0 l 1,8,-1
 553 1309 l 1,9,-1
 324 225 l 2,10,11
 315 182 315 182 315 168 c 0,12,13
 315 86 315 86 463 86 c 2,14,-1
 489 86 l 1,15,-1
 471 0 l 1,16,-1
 -41 0 l 1,17,-1
 -23 86 l 1,18,-1
 4 86 l 2,19,20
 106 86 106 86 145.5 122 c 128,-1,21
 185 158 185 158 199 223 c 2,22,-1
 414 1237 l 2,23,24
 422 1275 422 1275 422 1294 c 0,25,26
 422 1376 422 1376 274 1376 c 2,27,-1
 248 1376 l 1,28,-1
 266 1462 l 1,29,-1
 731 1462 l 1,30,-1
 905 295 l 1,31,-1
 1575 1462 l 1,32,-1
 2032 1462 l 1,33,-1
 2013 1376 l 1,34,-1
 1987 1376 l 2,35,36
 1889 1376 1889 1376 1846 1338.5 c 128,-1,37
 1803 1301 1803 1301 1788 1229 c 2,38,-1
 1575 225 l 2,39,40
 1567 187 1567 187 1567 168 c 0,41,42
 1567 86 1567 86 1714 86 c 2,43,-1
 1741 86 l 1,44,-1
 1722 0 l 1,45,-1
 1178 0 l 1,0,-1
EndSplineSet
EndChar

StartChar: N
Encoding: 78 78 49
Width: 1563
GlyphClass: 2
Flags: W
LayerCount: 2
Fore
SplineSet
1327 1237 m 2,0,1
 1335 1275 1335 1275 1335 1294 c 0,2,3
 1335 1376 1335 1376 1188 1376 c 2,4,-1
 1161 1376 l 1,5,-1
 1180 1462 l 1,6,-1
 1694 1462 l 1,7,-1
 1675 1376 l 1,8,-1
 1649 1376 l 2,9,10
 1551 1376 1551 1376 1508.5 1338.5 c 128,-1,11
 1466 1301 1466 1301 1450 1229 c 2,12,-1
 1190 0 l 1,13,-1
 1057 0 l 1,14,-1
 530 1200 l 1,15,-1
 324 225 l 2,16,17
 315 182 315 182 315 168 c 0,18,19
 315 86 315 86 463 86 c 2,20,-1
 489 86 l 1,21,-1
 471 0 l 1,22,-1
 -41 0 l 1,23,-1
 -23 86 l 1,24,-1
 4 86 l 2,25,26
 100 86 100 86 142 123.5 c 128,-1,27
 184 161 184 161 201 233 c 1,28,-1
 414 1237 l 2,29,30
 422 1275 422 1275 422 1294 c 0,31,32
 422 1376 422 1376 274 1376 c 2,33,-1
 248 1376 l 1,34,-1
 266 1462 l 1,35,-1
 639 1462 l 1,36,-1
 1135 332 l 1,37,-1
 1327 1237 l 2,0,1
EndSplineSet
EndChar

StartChar: O
Encoding: 79 79 50
Width: 1520
GlyphClass: 2
Flags: W
LayerCount: 2
Fore
SplineSet
926 1485 m 0,0,1
 1164 1485 1164 1485 1310 1337 c 128,-1,2
 1456 1189 1456 1189 1456 922 c 0,3,4
 1456 571 1456 571 1228 274 c 128,-1,5
 1000 -23 1000 -23 643 -23 c 0,6,7
 400 -23 400 -23 253 130.5 c 128,-1,8
 106 284 106 284 106 545 c 0,9,10
 106 897 106 897 336 1191 c 128,-1,11
 566 1485 566 1485 926 1485 c 0,0,1
655 90 m 0,12,13
 910 90 910 90 1070.5 372.5 c 128,-1,14
 1231 655 1231 655 1231 977 c 0,15,16
 1231 1168 1231 1168 1146.5 1271 c 128,-1,17
 1062 1374 1062 1374 909 1374 c 0,18,19
 653 1374 653 1374 491.5 1090.5 c 128,-1,20
 330 807 330 807 330 487 c 0,21,22
 330 295 330 295 417 192.5 c 128,-1,23
 504 90 504 90 655 90 c 0,12,13
EndSplineSet
EndChar

StartChar: P
Encoding: 80 80 51
Width: 1270
GlyphClass: 2
Flags: W
LayerCount: 2
Fore
SplineSet
-41 0 m 1,0,-1
 -23 86 l 1,1,-1
 4 86 l 2,2,3
 100 86 100 86 143 123 c 128,-1,4
 186 160 186 160 201 233 c 2,5,-1
 414 1237 l 2,6,7
 422 1275 422 1275 422 1294 c 0,8,9
 422 1376 422 1376 274 1376 c 2,10,-1
 248 1376 l 1,11,-1
 266 1462 l 1,12,-1
 791 1462 l 2,13,14
 1013 1462 1013 1462 1135 1359 c 128,-1,15
 1257 1256 1257 1256 1257 1067 c 0,16,17
 1257 834 1257 834 1100.5 701.5 c 128,-1,18
 944 569 944 569 631 569 c 2,19,-1
 479 569 l 1,20,-1
 406 225 l 2,21,22
 397 183 397 183 397 168 c 0,23,24
 397 86 397 86 545 86 c 2,25,-1
 612 86 l 1,26,-1
 594 0 l 1,27,-1
 -41 0 l 1,0,-1
500 666 m 1,28,-1
 608 666 l 2,29,30
 1040 666 1040 666 1040 1065 c 0,31,32
 1040 1364 1040 1364 741 1364 c 2,33,-1
 647 1364 l 1,34,-1
 500 666 l 1,28,-1
EndSplineSet
EndChar

StartChar: Q
Encoding: 81 81 52
Width: 1520
GlyphClass: 2
Flags: W
LayerCount: 2
Fore
SplineSet
752 -14 m 1,0,1
 761 -197 761 -197 813.5 -279.5 c 128,-1,2
 866 -362 866 -362 973 -362 c 0,3,4
 1047 -362 1047 -362 1112 -344 c 1,5,-1
 1126 -430 l 1,6,7
 1023 -463 1023 -463 924 -463 c 0,8,9
 547 -463 547 -463 530 -12 c 1,10,11
 331 22 331 22 218.5 171 c 128,-1,12
 106 320 106 320 106 545 c 0,13,14
 106 897 106 897 336 1191 c 128,-1,15
 566 1485 566 1485 926 1485 c 0,16,17
 1164 1485 1164 1485 1310 1337 c 128,-1,18
 1456 1189 1456 1189 1456 922 c 0,19,20
 1456 611 1456 611 1265 323.5 c 128,-1,21
 1074 36 1074 36 752 -14 c 1,0,1
655 90 m 0,22,23
 910 90 910 90 1070.5 372.5 c 128,-1,24
 1231 655 1231 655 1231 977 c 0,25,26
 1231 1168 1231 1168 1146.5 1271 c 128,-1,27
 1062 1374 1062 1374 909 1374 c 0,28,29
 653 1374 653 1374 491.5 1090.5 c 128,-1,30
 330 807 330 807 330 487 c 0,31,32
 330 295 330 295 417 192.5 c 128,-1,33
 504 90 504 90 655 90 c 0,22,23
EndSplineSet
EndChar

StartChar: R
Encoding: 82 82 53
Width: 1325
GlyphClass: 2
Flags: W
LayerCount: 2
Fore
SplineSet
461 645 m 1,0,-1
 371 225 l 2,1,2
 362 183 362 183 362 168 c 0,3,4
 362 86 362 86 510 86 c 2,5,-1
 578 86 l 1,6,-1
 559 0 l 1,7,-1
 -76 0 l 1,8,-1
 -57 86 l 1,9,-1
 -31 86 l 2,10,11
 71 86 71 86 110.5 122 c 128,-1,12
 150 158 150 158 164 223 c 2,13,-1
 379 1237 l 2,14,15
 387 1275 387 1275 387 1294 c 0,16,17
 387 1376 387 1376 240 1376 c 2,18,-1
 213 1376 l 1,19,-1
 231 1462 l 1,20,-1
 768 1462 l 2,21,22
 1237 1462 1237 1462 1237 1114 c 0,23,24
 1237 776 1237 776 858 686 c 1,25,-1
 1006 248 l 2,26,27
 1042 143 1042 143 1079 114.5 c 128,-1,28
 1116 86 1116 86 1174 86 c 2,29,-1
 1190 86 l 1,30,-1
 1174 0 l 1,31,-1
 1147 0 l 2,32,33
 971 0 971 0 898 46.5 c 128,-1,34
 825 93 825 93 782 240 c 2,35,-1
 664 645 l 1,36,-1
 461 645 l 1,0,-1
481 741 m 1,37,-1
 639 741 l 2,38,39
 822 741 822 741 921 834.5 c 128,-1,40
 1020 928 1020 928 1020 1102 c 0,41,42
 1020 1238 1020 1238 959.5 1301 c 128,-1,43
 899 1364 899 1364 752 1364 c 2,44,-1
 612 1364 l 1,45,-1
 481 741 l 1,37,-1
EndSplineSet
EndChar

StartChar: S
Encoding: 83 83 54
Width: 1114
GlyphClass: 2
Flags: W
LayerCount: 2
Fore
SplineSet
172 428 m 1,0,1
 172 271 172 271 255 175.5 c 128,-1,2
 338 80 338 80 483 80 c 0,3,4
 626 80 626 80 710.5 151 c 128,-1,5
 795 222 795 222 795 344 c 0,6,7
 795 441 795 441 746.5 508 c 128,-1,8
 698 575 698 575 537 666 c 1,9,10
 373 761 373 761 309.5 861 c 128,-1,11
 246 961 246 961 246 1087 c 0,12,13
 246 1264 246 1264 380 1373.5 c 128,-1,14
 514 1483 514 1483 743 1483 c 0,15,16
 921 1483 921 1483 1027 1421 c 128,-1,17
 1133 1359 1133 1359 1133 1262 c 0,18,19
 1133 1120 1133 1120 952 1120 c 1,20,21
 952 1240 952 1240 895 1310 c 128,-1,22
 838 1380 838 1380 727 1380 c 0,23,24
 605 1380 605 1380 527 1310 c 128,-1,25
 449 1240 449 1240 449 1122 c 0,26,27
 449 1035 449 1035 490.5 971.5 c 128,-1,28
 532 908 532 908 702 809 c 0,29,30
 863 715 863 715 934.5 622 c 128,-1,31
 1006 529 1006 529 1006 410 c 0,32,33
 1006 207 1006 207 864 93.5 c 128,-1,34
 722 -20 722 -20 469 -20 c 0,35,36
 260 -20 260 -20 137 62.5 c 128,-1,37
 14 145 14 145 14 272 c 0,38,39
 14 343 14 343 58.5 385.5 c 128,-1,40
 103 428 103 428 172 428 c 1,0,1
EndSplineSet
EndChar

StartChar: T
Encoding: 84 84 55
Width: 1255
GlyphClass: 2
Flags: W
LayerCount: 2
Fore
SplineSet
657 225 m 2,0,1
 649 187 649 187 649 168 c 0,2,3
 649 86 649 86 797 86 c 2,4,-1
 844 86 l 1,5,-1
 825 0 l 1,6,-1
 188 0 l 1,7,-1
 207 86 l 1,8,-1
 254 86 l 2,9,10
 357 86 357 86 397 121.5 c 128,-1,11
 437 157 437 157 451 223 c 2,12,-1
 692 1360 l 1,13,-1
 496 1360 l 2,14,15
 350 1360 350 1360 291 1192 c 1,16,-1
 262 1104 l 1,17,-1
 156 1104 l 1,18,-1
 242 1462 l 1,19,-1
 1395 1462 l 1,20,-1
 1329 1104 l 1,21,-1
 1223 1104 l 1,22,23
 1233 1184 1233 1184 1233 1229 c 0,24,25
 1233 1360 1233 1360 1098 1360 c 2,26,-1
 899 1360 l 1,27,-1
 657 225 l 2,0,1
EndSplineSet
EndChar

StartChar: U
Encoding: 85 85 56
Width: 1495
GlyphClass: 2
Flags: W
LayerCount: 2
Fore
SplineSet
205 1376 m 1,0,-1
 223 1462 l 1,1,-1
 819 1462 l 1,2,-1
 803 1376 l 1,3,-1
 776 1376 l 2,4,5
 680 1376 680 1376 636 1339.5 c 128,-1,6
 592 1303 592 1303 575 1229 c 1,7,-1
 422 506 l 2,8,9
 397 388 397 388 397 315 c 0,10,11
 397 102 397 102 692 102 c 0,12,13
 858 102 858 102 955 176 c 128,-1,14
 1052 250 1052 250 1090 422 c 1,15,-1
 1264 1237 l 2,16,17
 1272 1274 1272 1274 1272 1294 c 0,18,19
 1272 1376 1272 1376 1124 1376 c 2,20,-1
 1098 1376 l 1,21,-1
 1116 1462 l 1,22,-1
 1630 1462 l 1,23,-1
 1614 1376 l 1,24,-1
 1587 1376 l 2,25,26
 1491 1376 1491 1376 1447 1339.5 c 128,-1,27
 1403 1303 1403 1303 1386 1229 c 1,28,-1
 1214 418 l 2,29,30
 1121 -20 1121 -20 662 -20 c 0,31,32
 436 -20 436 -20 316.5 72 c 128,-1,33
 197 164 197 164 197 334 c 0,34,35
 197 417 197 417 219 516 c 1,36,-1
 371 1237 l 2,37,38
 379 1275 379 1275 379 1294 c 0,39,40
 379 1376 379 1376 231 1376 c 2,41,-1
 205 1376 l 1,0,-1
EndSplineSet
EndChar

StartChar: V
Encoding: 86 86 57
Width: 1382
GlyphClass: 2
Flags: W
LayerCount: 2
Fore
SplineSet
639 201 m 1,0,1
 715 378 715 378 805 537 c 2,2,-1
 1169 1188 l 2,3,4
 1208 1258 1208 1258 1208 1303 c 0,5,6
 1208 1376 1208 1376 1094 1376 c 2,7,-1
 1047 1376 l 1,8,-1
 1063 1462 l 1,9,-1
 1569 1462 l 1,10,-1
 1550 1376 l 1,11,-1
 1511 1376 l 2,12,13
 1442 1376 1442 1376 1407.5 1341 c 128,-1,14
 1373 1306 1373 1306 1323 1217 c 2,15,-1
 641 0 l 1,16,-1
 492 0 l 1,17,-1
 317 1268 l 2,18,19
 309 1329 309 1329 283.5 1352.5 c 128,-1,20
 258 1376 258 1376 195 1376 c 2,21,-1
 168 1376 l 1,22,-1
 186 1462 l 1,23,-1
 743 1462 l 1,24,-1
 727 1376 l 1,25,-1
 680 1376 l 2,26,27
 614 1376 614 1376 573 1348.5 c 128,-1,28
 532 1321 532 1321 532 1272 c 0,29,30
 532 1237 532 1237 537 1202 c 2,31,-1
 618 537 l 2,32,33
 639 365 639 365 639 201 c 1,0,1
EndSplineSet
EndChar

StartChar: W
Encoding: 87 87 58
Width: 2140
GlyphClass: 2
Flags: W
LayerCount: 2
Fore
SplineSet
1915 1188 m 2,0,1
 1954 1266 1954 1266 1954 1303 c 0,2,3
 1954 1376 1954 1376 1839 1376 c 2,4,-1
 1790 1376 l 1,5,-1
 1806 1462 l 1,6,-1
 2306 1462 l 1,7,-1
 2288 1376 l 1,8,-1
 2249 1376 l 2,9,10
 2183 1376 2183 1376 2145.5 1344 c 128,-1,11
 2108 1312 2108 1312 2060 1217 c 2,12,-1
 1456 0 l 1,13,-1
 1268 0 l 1,14,-1
 1176 1135 l 1,15,-1
 625 0 l 1,16,-1
 438 0 l 1,17,-1
 332 1268 l 2,18,19
 327 1323 327 1323 302 1349.5 c 128,-1,20
 277 1376 277 1376 209 1376 c 2,21,-1
 182 1376 l 1,22,-1
 201 1462 l 1,23,-1
 758 1462 l 1,24,-1
 739 1376 l 1,25,-1
 692 1376 l 2,26,27
 545 1376 545 1376 545 1272 c 0,28,29
 545 1230 545 1230 549 1202 c 1,30,-1
 598 547 l 2,31,32
 612 360 612 360 612 201 c 1,33,34
 698 403 698 403 780 569 c 2,35,-1
 1210 1448 l 1,36,-1
 1358 1448 l 1,37,-1
 1425 561 l 2,38,39
 1440 360 1440 360 1436 201 c 1,40,41
 1526 410 1526 410 1589 537 c 2,42,-1
 1915 1188 l 2,0,1
EndSplineSet
EndChar

StartChar: X
Encoding: 88 88 59
Width: 1352
GlyphClass: 2
Flags: W
LayerCount: 2
Fore
SplineSet
1458 1376 m 1,0,-1
 1440 1376 l 2,1,2
 1384 1376 1384 1376 1339.5 1346 c 128,-1,3
 1295 1316 1295 1316 1208 1223 c 1,4,-1
 821 795 l 1,5,-1
 1067 195 l 2,6,7
 1112 86 1112 86 1208 86 c 2,8,-1
 1235 86 l 1,9,-1
 1217 0 l 1,10,-1
 664 0 l 1,11,-1
 682 86 l 1,12,-1
 705 86 l 2,13,14
 766 86 766 86 801 106.5 c 128,-1,15
 836 127 836 127 836 158 c 0,16,17
 836 200 836 200 797 299 c 1,18,-1
 664 625 l 1,19,-1
 358 285 l 2,20,21
 276 194 276 194 276 141 c 0,22,23
 276 86 276 86 397 86 c 2,24,-1
 403 86 l 1,25,-1
 385 0 l 1,26,-1
 -100 0 l 1,27,-1
 -82 86 l 1,28,-1
 -74 86 l 2,29,30
 -7 86 -7 86 45.5 121 c 128,-1,31
 98 156 98 156 168 233 c 2,32,-1
 621 727 l 1,33,-1
 401 1272 l 2,34,35
 359 1376 359 1376 242 1376 c 2,36,-1
 215 1376 l 1,37,-1
 233 1462 l 1,38,-1
 788 1462 l 1,39,-1
 770 1376 l 1,40,-1
 723 1376 l 2,41,42
 627 1376 627 1376 627 1319 c 0,43,44
 627 1290 627 1290 664 1196 c 2,45,-1
 780 897 l 1,46,-1
 1036 1192 l 2,47,48
 1114 1282 1114 1282 1114 1325 c 0,49,50
 1114 1376 1114 1376 1016 1376 c 2,51,-1
 1010 1376 l 1,52,-1
 1028 1462 l 1,53,-1
 1477 1462 l 1,54,-1
 1458 1376 l 1,0,-1
EndSplineSet
EndChar

StartChar: Y
Encoding: 89 89 60
Width: 1280
GlyphClass: 2
Flags: W
LayerCount: 2
Fore
SplineSet
729 1462 m 1,0,-1
 711 1376 l 1,1,-1
 608 1376 l 2,2,3
 524 1376 524 1376 524 1321 c 0,4,5
 524 1281 524 1281 551 1202 c 2,6,-1
 643 928 l 2,7,8
 692 782 692 782 698 682 c 1,9,10
 718 720 718 720 852 897 c 1,11,-1
 1047 1157 l 2,12,13
 1122 1257 1122 1257 1122 1323 c 0,14,15
 1122 1376 1122 1376 1024 1376 c 2,16,-1
 948 1376 l 1,17,-1
 967 1462 l 1,18,-1
 1473 1462 l 1,19,-1
 1454 1376 l 1,20,-1
 1415 1376 l 2,21,22
 1376 1376 1376 1376 1337.5 1344.5 c 128,-1,23
 1299 1313 1299 1313 1229 1221 c 2,24,-1
 752 596 l 1,25,-1
 672 225 l 2,26,27
 664 188 664 188 664 168 c 0,28,29
 664 86 664 86 811 86 c 2,30,-1
 858 86 l 1,31,-1
 840 0 l 1,32,-1
 203 0 l 1,33,-1
 221 86 l 1,34,-1
 268 86 l 2,35,36
 371 86 371 86 411 121.5 c 128,-1,37
 451 157 451 157 465 223 c 2,38,-1
 545 600 l 1,39,-1
 307 1268 l 2,40,41
 284 1333 284 1333 261.5 1354.5 c 128,-1,42
 239 1376 239 1376 184 1376 c 2,43,-1
 158 1376 l 1,44,-1
 176 1462 l 1,45,-1
 729 1462 l 1,0,-1
EndSplineSet
EndChar

StartChar: Z
Encoding: 90 90 61
Width: 1239
GlyphClass: 2
Flags: W
LayerCount: 2
Fore
SplineSet
1276 1378 m 1,0,-1
 244 102 l 1,1,-1
 791 102 l 2,2,3
 943 102 943 102 997 270 c 1,4,-1
 1026 358 l 1,5,-1
 1133 358 l 1,6,-1
 1047 0 l 1,7,-1
 -35 0 l 1,8,-1
 -18 82 l 1,9,-1
 1012 1360 l 1,10,-1
 535 1360 l 2,11,12
 384 1360 384 1360 330 1192 c 1,13,-1
 301 1104 l 1,14,-1
 195 1104 l 1,15,-1
 281 1462 l 1,16,-1
 1292 1462 l 1,17,-1
 1276 1378 l 1,0,-1
EndSplineSet
EndChar

StartChar: bracketleft
Encoding: 91 91 62
Width: 735
GlyphClass: 2
Flags: W
LayerCount: 2
Fore
SplineSet
10 -262 m 1,0,-1
 397 1556 l 1,1,-1
 854 1556 l 1,2,-1
 836 1470 l 1,3,-1
 748 1470 l 2,4,5
 652 1470 652 1470 608.5 1434 c 128,-1,6
 565 1398 565 1398 549 1323 c 2,7,-1
 258 -37 l 2,8,9
 250 -74 250 -74 250 -94 c 0,10,11
 250 -176 250 -176 397 -176 c 2,12,-1
 485 -176 l 1,13,-1
 467 -262 l 1,14,-1
 10 -262 l 1,0,-1
EndSplineSet
EndChar

StartChar: backslash
Encoding: 92 92 63
Width: 590
GlyphClass: 2
Flags: W
LayerCount: 2
Fore
SplineSet
231 1556 m 1,0,-1
 350 1556 l 1,1,-1
 438 -248 l 1,2,-1
 317 -248 l 1,3,-1
 231 1556 l 1,0,-1
EndSplineSet
EndChar

StartChar: bracketright
Encoding: 93 93 64
Width: 737
GlyphClass: 2
Flags: W
LayerCount: 2
Fore
SplineSet
-96 -262 m 1,0,-1
 -78 -176 l 1,1,-1
 10 -176 l 2,2,3
 106 -176 106 -176 149 -139 c 128,-1,4
 192 -102 192 -102 207 -29 c 2,5,-1
 498 1331 l 2,6,7
 506 1368 506 1368 506 1389 c 0,8,9
 506 1470 506 1470 358 1470 c 2,10,-1
 270 1470 l 1,11,-1
 289 1556 l 1,12,-1
 745 1556 l 1,13,-1
 358 -262 l 1,14,-1
 -96 -262 l 1,0,-1
EndSplineSet
EndChar

StartChar: asciicircum
Encoding: 94 94 65
Width: 1145
GlyphClass: 2
Flags: W
LayerCount: 2
Fore
SplineSet
552 1462 m 1,0,-1
 624 1462 l 1,1,-1
 1055 545 l 1,2,-1
 918 545 l 1,3,-1
 588 1274 l 1,4,-1
 258 545 l 1,5,-1
 121 545 l 1,6,-1
 552 1462 l 1,0,-1
EndSplineSet
EndChar

StartChar: underscore
Encoding: 95 95 66
Width: 940
GlyphClass: 2
Flags: W
LayerCount: 2
Fore
SplineSet
772 -291 m 1,0,-1
 -186 -291 l 1,1,-1
 -160 -170 l 1,2,-1
 799 -170 l 1,3,-1
 772 -291 l 1,0,-1
EndSplineSet
EndChar

StartChar: grave
Encoding: 96 96 67
Width: 1182
GlyphClass: 2
Flags: W
LayerCount: 2
Fore
SplineSet
829 1241 m 1,0,1
 675 1391 675 1391 565 1548 c 1,2,-1
 571 1569 l 1,3,-1
 776 1569 l 1,4,5
 836 1414 836 1414 913 1268 c 1,6,-1
 907 1241 l 1,7,-1
 829 1241 l 1,0,1
EndSplineSet
EndChar

StartChar: a
Encoding: 97 97 68
Width: 1186
GlyphClass: 2
Flags: W
LayerCount: 2
Fore
SplineSet
748 309 m 1,0,-1
 735 309 l 1,1,2
 588 -20 588 -20 352 -20 c 0,3,4
 227 -20 227 -20 157.5 78.5 c 128,-1,5
 88 177 88 177 88 354 c 0,6,7
 88 636 88 636 263.5 877 c 128,-1,8
 439 1118 439 1118 698 1118 c 0,9,10
 837 1118 837 1118 938 1044 c 1,11,-1
 1028 1096 l 1,12,-1
 1094 1096 l 1,13,-1
 954 440 l 2,14,15
 924 299 924 299 924 213 c 0,16,17
 924 109 924 109 991 109 c 0,18,19
 1049 109 1049 109 1139 162 c 1,20,-1
 1176 102 l 1,21,22
 1029 -20 1029 -20 887 -20 c 0,23,24
 727 -20 727 -20 727 150 c 0,25,26
 727 215 727 215 748 309 c 1,0,-1
864 952 m 1,27,28
 817 1026 817 1026 709 1026 c 0,29,30
 534 1026 534 1026 415.5 803.5 c 128,-1,31
 297 581 297 581 297 346 c 0,32,33
 297 109 297 109 426 109 c 0,34,35
 528 109 528 109 640 260 c 128,-1,36
 752 411 752 411 788 590 c 1,37,-1
 864 952 l 1,27,28
EndSplineSet
EndChar

StartChar: b
Encoding: 98 98 69
Width: 1151
GlyphClass: 2
Flags: W
LayerCount: 2
Fore
SplineSet
213 53 m 1,0,-1
 121 -6 l 1,1,-1
 55 -6 l 1,2,-1
 326 1266 l 2,3,4
 344 1350 344 1350 344 1374 c 0,5,6
 344 1470 344 1470 201 1470 c 2,7,-1
 184 1470 l 1,8,-1
 203 1556 l 1,9,-1
 590 1556 l 1,10,-1
 492 1096 l 2,11,12
 471 997 471 997 418 825 c 1,13,-1
 428 825 l 1,14,15
 579 1118 579 1118 803 1118 c 0,16,17
 925 1118 925 1118 994 1024 c 128,-1,18
 1063 930 1063 930 1063 748 c 0,19,20
 1063 463 1063 463 887 221.5 c 128,-1,21
 711 -20 711 -20 453 -20 c 0,22,23
 306 -20 306 -20 213 53 c 1,0,-1
285 145 m 1,24,25
 347 72 347 72 444 72 c 0,26,27
 622 72 622 72 738 299 c 128,-1,28
 854 526 854 526 854 750 c 0,29,30
 854 989 854 989 725 989 c 0,31,32
 613 989 613 989 506.5 833.5 c 128,-1,33
 400 678 400 678 373 551 c 2,34,-1
 285 145 l 1,24,25
EndSplineSet
EndChar

StartChar: c
Encoding: 99 99 70
Width: 997
GlyphClass: 2
Flags: W
LayerCount: 2
Fore
SplineSet
821 256 m 1,0,1
 842 243 842 243 842 205 c 0,2,3
 842 123 842 123 745.5 51.5 c 128,-1,4
 649 -20 649 -20 487 -20 c 0,5,6
 308 -20 308 -20 198 93 c 128,-1,7
 88 206 88 206 88 403 c 0,8,9
 88 671 88 671 261 894.5 c 128,-1,10
 434 1118 434 1118 698 1118 c 0,11,12
 839 1118 839 1118 918 1062 c 128,-1,13
 997 1006 997 1006 997 922 c 0,14,15
 997 860 997 860 947.5 819 c 128,-1,16
 898 778 898 778 815 778 c 1,17,18
 815 887 815 887 773 953.5 c 128,-1,19
 731 1020 731 1020 657 1020 c 0,20,21
 514 1020 514 1020 407.5 806 c 128,-1,22
 301 592 301 592 301 387 c 0,23,24
 301 109 301 109 526 109 c 0,25,26
 705 109 705 109 821 256 c 1,0,1
EndSplineSet
EndChar

StartChar: d
Encoding: 100 100 71
Width: 1186
GlyphClass: 2
Flags: W
LayerCount: 2
Fore
SplineSet
748 309 m 1,0,-1
 735 309 l 1,1,2
 588 -20 588 -20 352 -20 c 0,3,4
 227 -20 227 -20 157.5 78.5 c 128,-1,5
 88 177 88 177 88 354 c 0,6,7
 88 636 88 636 263.5 877 c 128,-1,8
 439 1118 439 1118 698 1118 c 0,9,10
 813 1118 813 1118 899 1069 c 1,11,12
 915 1163 915 1163 922 1184 c 1,13,-1
 942 1282 l 2,14,15
 956 1351 956 1351 956 1374 c 0,16,17
 956 1470 956 1470 813 1470 c 2,18,-1
 797 1470 l 1,19,-1
 815 1556 l 1,20,-1
 1192 1556 l 1,21,-1
 954 440 l 2,22,23
 924 299 924 299 924 213 c 0,24,25
 924 109 924 109 991 109 c 0,26,27
 1049 109 1049 109 1139 162 c 1,28,-1
 1176 102 l 1,29,30
 1029 -20 1029 -20 887 -20 c 0,31,32
 727 -20 727 -20 727 150 c 0,33,34
 727 215 727 215 748 309 c 1,0,-1
864 952 m 1,35,36
 817 1026 817 1026 709 1026 c 0,37,38
 534 1026 534 1026 415.5 803.5 c 128,-1,39
 297 581 297 581 297 346 c 0,40,41
 297 109 297 109 426 109 c 0,42,43
 528 109 528 109 640 260 c 128,-1,44
 752 411 752 411 788 590 c 1,45,-1
 864 952 l 1,35,36
EndSplineSet
EndChar

StartChar: e
Encoding: 101 101 72
Width: 1010
GlyphClass: 2
Flags: W
LayerCount: 2
Fore
SplineSet
821 256 m 1,0,1
 842 243 842 243 842 205 c 0,2,3
 842 123 842 123 745.5 51.5 c 128,-1,4
 649 -20 649 -20 487 -20 c 0,5,6
 308 -20 308 -20 198 93 c 128,-1,7
 88 206 88 206 88 403 c 0,8,9
 88 671 88 671 261 894.5 c 128,-1,10
 434 1118 434 1118 698 1118 c 0,11,12
 828 1118 828 1118 899.5 1056 c 128,-1,13
 971 994 971 994 971 883 c 0,14,15
 971 717 971 717 798.5 594 c 128,-1,16
 626 471 626 471 377 471 c 2,17,-1
 342 471 l 2,18,19
 324 471 324 471 305 473 c 1,20,21
 301 445 301 445 301 387 c 0,22,23
 301 109 301 109 526 109 c 0,24,25
 701 109 701 109 821 256 c 1,0,1
324 567 m 1,26,-1
 344 567 l 2,27,28
 525 567 525 567 642.5 655 c 128,-1,29
 760 743 760 743 760 883 c 0,30,31
 760 1020 760 1020 641 1020 c 0,32,33
 542 1020 542 1020 456 895.5 c 128,-1,34
 370 771 370 771 324 567 c 1,26,-1
EndSplineSet
EndChar

StartChar: f
Encoding: 102 102 73
Width: 651
GlyphClass: 2
Flags: W
LayerCount: 2
Fore
SplineSet
719 981 m 1,0,-1
 489 981 l 1,1,-1
 276 -16 l 2,2,3
 223 -263 223 -263 121 -377.5 c 128,-1,4
 19 -492 19 -492 -168 -492 c 0,5,6
 -226 -492 -226 -492 -287 -475 c 1,7,-1
 -268 -381 l 1,8,9
 -217 -395 -217 -395 -174 -395 c 0,10,11
 -75 -395 -75 -395 -18 -310 c 128,-1,12
 39 -225 39 -225 84 -18 c 2,13,-1
 299 981 l 1,14,-1
 113 981 l 1,15,-1
 125 1055 l 1,16,-1
 322 1098 l 1,17,-1
 344 1210 l 2,18,19
 416 1577 416 1577 733 1577 c 0,20,21
 864 1577 864 1577 930.5 1535.5 c 128,-1,22
 997 1494 997 1494 997 1425 c 0,23,24
 997 1292 997 1292 827 1292 c 1,25,26
 827 1483 827 1483 723 1483 c 0,27,28
 648 1483 648 1483 606.5 1421 c 128,-1,29
 565 1359 565 1359 541 1229 c 1,30,-1
 514 1098 l 1,31,-1
 741 1098 l 1,32,-1
 719 981 l 1,0,-1
EndSplineSet
EndChar

StartChar: g
Encoding: 103 103 74
Width: 1139
GlyphClass: 2
Flags: W
LayerCount: 2
Fore
SplineSet
901 1053 m 1,0,1
 998 1198 998 1198 1122 1198 c 0,2,3
 1225 1198 1225 1198 1225 1104 c 0,4,5
 1225 977 1225 977 1104 977 c 1,6,7
 1104 1051 1104 1051 1047 1051 c 0,8,9
 1007 1051 1007 1051 946 1004 c 1,10,11
 991 940 991 940 991 846 c 0,12,13
 991 674 991 674 862 530.5 c 128,-1,14
 733 387 733 387 522 387 c 0,15,16
 475 387 475 387 457 391 c 1,17,18
 311 332 311 332 311 262 c 0,19,20
 311 211 311 211 416 201 c 1,21,-1
 612 180 l 2,22,23
 930 146 930 146 930 -88 c 0,24,25
 930 -279 930 -279 786 -385.5 c 128,-1,26
 642 -492 642 -492 375 -492 c 0,27,28
 -72 -492 -72 -492 -72 -225 c 0,29,30
 -72 -115 -72 -115 17.5 -37.5 c 128,-1,31
 107 40 107 40 262 70 c 1,32,33
 164 118 164 118 164 211 c 0,34,35
 164 274 164 274 204.5 318 c 128,-1,36
 245 362 245 362 358 420 c 1,37,38
 215 487 215 487 215 662 c 0,39,40
 215 835 215 835 345.5 976.5 c 128,-1,41
 476 1118 476 1118 690 1118 c 0,42,43
 821 1118 821 1118 901 1053 c 1,0,1
545 485 m 0,44,45
 662 485 662 485 733.5 601.5 c 128,-1,46
 805 718 805 718 805 856 c 0,47,48
 805 1024 805 1024 664 1024 c 0,49,50
 544 1024 544 1024 473.5 906.5 c 128,-1,51
 403 789 403 789 403 653 c 0,52,53
 403 485 403 485 545 485 c 0,44,45
561 6 m 1,54,-1
 362 25 l 2,55,56
 347 26 347 26 273.5 5 c 128,-1,57
 200 -16 200 -16 147 -73 c 128,-1,58
 94 -130 94 -130 94 -213 c 0,59,60
 94 -391 94 -391 383 -391 c 0,61,62
 563 -391 563 -391 657.5 -324.5 c 128,-1,63
 752 -258 752 -258 752 -145 c 0,64,65
 752 -11 752 -11 561 6 c 1,54,-1
EndSplineSet
EndChar

StartChar: h
Encoding: 104 104 75
Width: 1227
GlyphClass: 2
Flags: W
LayerCount: 2
Fore
SplineSet
471 840 m 1,0,1
 641 1116 641 1116 850 1116 c 0,2,3
 1069 1116 1069 1116 1069 889 c 0,4,5
 1069 824 1069 824 1032 664 c 1,6,-1
 979 422 l 2,7,8
 952 299 952 299 952 207 c 0,9,10
 952 109 952 109 1024 109 c 0,11,12
 1083 109 1083 109 1155 156 c 1,13,-1
 1192 96 l 1,14,15
 1058 -20 1058 -20 942 -20 c 0,16,17
 857 -20 857 -20 806.5 35 c 128,-1,18
 756 90 756 90 756 184 c 256,19,20
 756 278 756 278 795 461 c 1,21,-1
 842 673 l 1,22,23
 872 797 872 797 872 864 c 0,24,25
 872 985 872 985 778 985 c 0,26,27
 664 985 664 985 543.5 829.5 c 128,-1,28
 423 674 423 674 391 524 c 2,29,-1
 281 0 l 1,30,-1
 90 0 l 1,31,-1
 356 1266 l 2,32,33
 375 1356 375 1356 375 1374 c 0,34,35
 375 1470 375 1470 231 1470 c 2,36,-1
 215 1470 l 1,37,-1
 233 1556 l 1,38,-1
 610 1556 l 1,39,-1
 530 1180 l 2,40,41
 494 1012 494 1012 449 840 c 1,42,-1
 471 840 l 1,0,1
EndSplineSet
EndChar

StartChar: i
Encoding: 105 105 76
Width: 623
GlyphClass: 2
Flags: W
LayerCount: 2
Fore
SplineSet
459 1303 m 0,0,1
 344 1303 344 1303 344 1415 c 0,2,3
 344 1480 344 1480 377.5 1519.5 c 128,-1,4
 411 1559 411 1559 467 1559 c 0,5,6
 582 1559 582 1559 582 1446 c 0,7,8
 582 1376 582 1376 547.5 1339.5 c 128,-1,9
 513 1303 513 1303 459 1303 c 0,0,1
127 1012 m 1,10,-1
 145 1098 l 1,11,-1
 512 1098 l 1,12,-1
 373 440 l 2,13,14
 342 293 342 293 342 213 c 0,15,16
 342 109 342 109 410 109 c 0,17,18
 469 109 469 109 557 162 c 1,19,-1
 594 102 l 1,20,21
 452 -20 452 -20 317 -20 c 0,22,23
 241 -20 241 -20 194 35 c 128,-1,24
 147 90 147 90 147 174 c 0,25,26
 147 266 147 266 193 496 c 1,27,-1
 272 872 l 2,28,29
 279 905 279 905 279 926 c 0,30,31
 279 1012 279 1012 154 1012 c 2,32,-1
 127 1012 l 1,10,-1
EndSplineSet
EndChar

StartChar: j
Encoding: 106 106 77
Width: 596
GlyphClass: 2
Flags: W
LayerCount: 2
Fore
SplineSet
461 1303 m 0,0,1
 346 1303 346 1303 346 1415 c 0,2,3
 346 1480 346 1480 379.5 1519.5 c 128,-1,4
 413 1559 413 1559 469 1559 c 0,5,6
 584 1559 584 1559 584 1446 c 0,7,8
 584 1376 584 1376 549.5 1339.5 c 128,-1,9
 515 1303 515 1303 461 1303 c 0,0,1
-287 -475 m 1,10,-1
 -268 -381 l 1,11,12
 -217 -395 -217 -395 -174 -395 c 0,13,14
 -71 -395 -71 -395 -12.5 -303.5 c 128,-1,15
 46 -212 46 -212 86 -16 c 1,16,-1
 274 872 l 2,17,18
 281 905 281 905 281 926 c 0,19,20
 281 1012 281 1012 156 1012 c 2,21,-1
 129 1012 l 1,22,-1
 147 1098 l 1,23,-1
 514 1098 l 1,24,-1
 279 -16 l 2,25,26
 227 -260 227 -260 123.5 -376 c 128,-1,27
 20 -492 20 -492 -168 -492 c 0,28,29
 -226 -492 -226 -492 -287 -475 c 1,10,-1
EndSplineSet
EndChar

StartChar: k
Encoding: 107 107 78
Width: 1165
GlyphClass: 2
Flags: W
LayerCount: 2
Fore
SplineSet
694 786 m 2,0,1
 845 917 845 917 845 979 c 0,2,3
 845 1010 845 1010 754 1010 c 1,4,-1
 772 1096 l 1,5,-1
 1225 1096 l 1,6,-1
 1206 1010 l 1,7,8
 1087 1010 1087 1010 877 819 c 1,9,-1
 692 649 l 1,10,-1
 879 244 l 2,11,12
 958 72 958 72 1087 72 c 1,13,-1
 1069 -14 l 1,14,15
 899 -14 899 -14 819 25.5 c 128,-1,16
 739 65 739 65 684 197 c 1,17,-1
 551 524 l 1,18,-1
 365 406 l 1,19,-1
 281 0 l 1,20,-1
 90 0 l 1,21,-1
 356 1266 l 2,22,23
 375 1356 375 1356 375 1374 c 0,24,25
 375 1470 375 1470 231 1470 c 2,26,-1
 215 1470 l 1,27,-1
 233 1556 l 1,28,-1
 610 1556 l 1,29,-1
 530 1180 l 2,30,31
 420 663 420 663 371 506 c 1,32,-1
 694 786 l 2,0,1
EndSplineSet
EndChar

StartChar: l
Encoding: 108 108 79
Width: 623
GlyphClass: 2
Flags: W
LayerCount: 2
Fore
SplineSet
207 1470 m 1,0,-1
 225 1556 l 1,1,-1
 612 1556 l 1,2,-1
 375 440 l 2,3,4
 344 294 344 294 344 213 c 0,5,6
 344 109 344 109 412 109 c 0,7,8
 471 109 471 109 559 162 c 1,9,-1
 596 102 l 1,10,11
 454 -20 454 -20 319 -20 c 0,12,13
 245 -20 245 -20 197.5 34 c 128,-1,14
 150 88 150 88 150 174 c 0,15,16
 150 271 150 271 195 496 c 1,17,-1
 362 1282 l 2,18,19
 375 1343 375 1343 375 1374 c 0,20,21
 375 1470 375 1470 231 1470 c 2,22,-1
 207 1470 l 1,0,-1
EndSplineSet
EndChar

StartChar: m
Encoding: 109 109 80
Width: 1835
GlyphClass: 2
Flags: W
LayerCount: 2
Fore
SplineSet
920 0 m 1,0,-1
 725 0 l 1,1,2
 725 46 725 46 751 212.5 c 128,-1,3
 777 379 777 379 795 461 c 2,4,-1
 842 673 l 1,5,6
 872 797 872 797 872 864 c 0,7,8
 872 985 872 985 778 985 c 0,9,10
 664 985 664 985 543.5 829.5 c 128,-1,11
 423 674 423 674 391 524 c 2,12,-1
 281 0 l 1,13,-1
 90 0 l 1,14,-1
 262 823 l 2,15,16
 274 880 274 880 274 915 c 0,17,18
 274 1012 274 1012 131 1012 c 2,19,-1
 115 1012 l 1,20,-1
 133 1098 l 1,21,-1
 512 1098 l 1,22,-1
 457 840 l 1,23,-1
 477 840 l 1,24,25
 643 1116 643 1116 850 1116 c 0,26,27
 1069 1116 1069 1116 1069 889 c 0,28,29
 1069 864 1069 864 1065 840 c 1,30,-1
 1085 840 l 1,31,32
 1252 1116 1252 1116 1458 1116 c 0,33,34
 1677 1116 1677 1116 1677 889 c 0,35,36
 1677 824 1677 824 1640 664 c 1,37,-1
 1587 422 l 2,38,39
 1561 303 1561 303 1561 207 c 0,40,41
 1561 109 1561 109 1632 109 c 0,42,43
 1691 109 1691 109 1763 156 c 1,44,-1
 1800 96 l 1,45,46
 1670 -20 1670 -20 1550 -20 c 0,47,48
 1466 -20 1466 -20 1415 35 c 128,-1,49
 1364 90 1364 90 1364 184 c 256,50,51
 1364 278 1364 278 1403 461 c 1,52,-1
 1438 621 l 2,53,54
 1481 818 1481 818 1481 864 c 0,55,56
 1481 985 1481 985 1386 985 c 0,57,58
 1281 985 1281 985 1169 850.5 c 128,-1,59
 1057 716 1057 716 1012 569 c 1,60,-1
 979 422 l 2,61,62
 966 366 966 366 943 203 c 128,-1,63
 920 40 920 40 920 0 c 1,0,-1
EndSplineSet
EndChar

StartChar: n
Encoding: 110 110 81
Width: 1227
GlyphClass: 2
Flags: W
LayerCount: 2
Fore
SplineSet
281 0 m 1,0,-1
 90 0 l 1,1,-1
 262 823 l 2,2,3
 274 880 274 880 274 915 c 0,4,5
 274 1012 274 1012 131 1012 c 2,6,-1
 115 1012 l 1,7,-1
 133 1098 l 1,8,-1
 512 1098 l 1,9,-1
 457 840 l 1,10,-1
 477 840 l 1,11,12
 643 1116 643 1116 850 1116 c 0,13,14
 1069 1116 1069 1116 1069 889 c 0,15,16
 1069 824 1069 824 1032 664 c 1,17,-1
 979 422 l 2,18,19
 952 299 952 299 952 207 c 0,20,21
 952 109 952 109 1024 109 c 0,22,23
 1083 109 1083 109 1155 156 c 1,24,-1
 1192 96 l 1,25,26
 1058 -20 1058 -20 942 -20 c 0,27,28
 857 -20 857 -20 806.5 35 c 128,-1,29
 756 90 756 90 756 184 c 256,30,31
 756 278 756 278 795 461 c 1,32,-1
 842 673 l 1,33,34
 872 797 872 797 872 864 c 0,35,36
 872 985 872 985 778 985 c 0,37,38
 664 985 664 985 544.5 831 c 128,-1,39
 425 677 425 677 391 524 c 1,40,-1
 281 0 l 1,0,-1
EndSplineSet
EndChar

StartChar: o
Encoding: 111 111 82
Width: 1176
GlyphClass: 2
Flags: W
LayerCount: 2
Fore
SplineSet
698 1118 m 0,0,1
 879 1118 879 1118 983 1009 c 128,-1,2
 1087 900 1087 900 1087 694 c 0,3,4
 1087 421 1087 421 920 200.5 c 128,-1,5
 753 -20 753 -20 481 -20 c 0,6,7
 296 -20 296 -20 192 92 c 128,-1,8
 88 204 88 204 88 403 c 0,9,10
 88 679 88 679 256.5 898.5 c 128,-1,11
 425 1118 425 1118 698 1118 c 0,0,1
504 80 m 0,12,13
 673 80 673 80 773.5 280.5 c 128,-1,14
 874 481 874 481 874 725 c 0,15,16
 874 1010 874 1010 674 1010 c 0,17,18
 507 1010 507 1010 404 809 c 128,-1,19
 301 608 301 608 301 362 c 0,20,21
 301 80 301 80 504 80 c 0,12,13
EndSplineSet
EndChar

StartChar: p
Encoding: 112 112 83
Width: 1182
GlyphClass: 2
Flags: W
LayerCount: 2
Fore
SplineSet
389 -406 m 1,0,-1
 371 -492 l 1,1,-1
 -14 -492 l 1,2,-1
 258 807 l 2,3,4
 276 893 276 893 276 915 c 0,5,6
 276 1012 276 1012 133 1012 c 2,7,-1
 117 1012 l 1,8,-1
 135 1098 l 1,9,-1
 498 1098 l 1,10,-1
 449 825 l 1,11,-1
 459 825 l 1,12,13
 607 1118 607 1118 834 1118 c 0,14,15
 959 1118 959 1118 1026.5 1023 c 128,-1,16
 1094 928 1094 928 1094 748 c 0,17,18
 1094 473 1094 473 922.5 226.5 c 128,-1,19
 751 -20 751 -20 483 -20 c 0,20,21
 366 -20 366 -20 283 27 c 1,22,23
 274 -39 274 -39 266 -72 c 2,24,-1
 238 -197 l 2,25,26
 219 -282 219 -282 219 -311 c 0,27,28
 219 -406 219 -406 362 -406 c 2,29,-1
 389 -406 l 1,0,-1
315 145 m 1,30,31
 381 72 381 72 477 72 c 0,32,33
 648 72 648 72 766.5 295.5 c 128,-1,34
 885 519 885 519 885 750 c 0,35,36
 885 989 885 989 756 989 c 0,37,38
 650 989 650 989 542 841.5 c 128,-1,39
 434 694 434 694 399 535 c 2,40,-1
 315 145 l 1,30,31
EndSplineSet
EndChar

StartChar: q
Encoding: 113 113 84
Width: 1147
GlyphClass: 2
Flags: W
LayerCount: 2
Fore
SplineSet
735 309 m 1,0,1
 586 -20 586 -20 352 -20 c 0,2,3
 228 -20 228 -20 158 78.5 c 128,-1,4
 88 177 88 177 88 354 c 0,5,6
 88 636 88 636 263.5 877 c 128,-1,7
 439 1118 439 1118 698 1118 c 0,8,9
 826 1118 826 1118 926 1063 c 1,10,-1
 976 1091 l 2,11,12
 1024 1118 1024 1118 1028 1118 c 2,13,-1
 1100 1118 l 1,14,-1
 817 -217 l 2,15,16
 805 -274 805 -274 805 -309 c 0,17,18
 805 -406 805 -406 946 -406 c 2,19,-1
 963 -406 l 1,20,-1
 944 -492 l 1,21,-1
 571 -492 l 1,22,-1
 657 -82 l 2,23,24
 665 -43 665 -43 748 309 c 1,25,-1
 735 309 l 1,0,1
864 952 m 1,26,27
 819 1026 819 1026 709 1026 c 0,28,29
 532 1026 532 1026 414.5 800 c 128,-1,30
 297 574 297 574 297 344 c 0,31,32
 297 109 297 109 426 109 c 0,33,34
 527 109 527 109 638 257.5 c 128,-1,35
 749 406 749 406 788 590 c 2,36,-1
 864 952 l 1,26,27
EndSplineSet
EndChar

StartChar: r
Encoding: 114 114 85
Width: 958
GlyphClass: 2
Flags: W
LayerCount: 2
Fore
SplineSet
799 821 m 1,0,1
 799 983 799 983 717 983 c 0,2,3
 622 983 622 983 515.5 796 c 128,-1,4
 409 609 409 609 358 373 c 1,5,-1
 281 0 l 1,6,-1
 90 0 l 1,7,-1
 262 823 l 2,8,9
 274 880 274 880 274 915 c 0,10,11
 274 1012 274 1012 111 1012 c 2,12,-1
 94 1012 l 1,13,-1
 113 1098 l 1,14,-1
 475 1098 l 1,15,-1
 432 803 l 1,16,-1
 453 803 l 1,17,18
 535 986 535 986 615 1052 c 128,-1,19
 695 1118 695 1118 801 1118 c 0,20,21
 969 1118 969 1118 969 977 c 0,22,23
 969 821 969 821 799 821 c 1,0,1
EndSplineSet
EndChar

StartChar: s
Encoding: 115 115 86
Width: 950
GlyphClass: 2
Flags: W
LayerCount: 2
Fore
SplineSet
741 795 m 1,0,1
 741 898 741 898 692.5 960 c 128,-1,2
 644 1022 644 1022 557 1022 c 0,3,4
 465 1022 465 1022 411.5 972.5 c 128,-1,5
 358 923 358 923 358 846 c 0,6,7
 358 778 358 778 409 730 c 128,-1,8
 460 682 460 682 567 635 c 0,9,10
 813 525 813 525 813 317 c 0,11,12
 813 166 813 166 697 73 c 128,-1,13
 581 -20 581 -20 389 -20 c 0,14,15
 234 -20 234 -20 142.5 42.5 c 128,-1,16
 51 105 51 105 51 211 c 0,17,18
 51 277 51 277 87.5 311.5 c 128,-1,19
 124 346 124 346 180 346 c 1,20,21
 180 219 180 219 241.5 148.5 c 128,-1,22
 303 78 303 78 414 78 c 0,23,24
 635 78 635 78 635 268 c 0,25,26
 635 341 635 341 588 391.5 c 128,-1,27
 541 442 541 442 428 494 c 1,28,29
 281 564 281 564 230.5 638.5 c 128,-1,30
 180 713 180 713 180 811 c 0,31,32
 180 945 180 945 289.5 1030.5 c 128,-1,33
 399 1116 399 1116 575 1116 c 0,34,35
 726 1116 726 1116 810.5 1060 c 128,-1,36
 895 1004 895 1004 895 922 c 0,37,38
 895 795 895 795 741 795 c 1,0,1
EndSplineSet
EndChar

StartChar: t
Encoding: 116 116 87
Width: 754
GlyphClass: 2
Flags: W
LayerCount: 2
Fore
SplineSet
616 154 m 1,0,-1
 651 78 l 1,1,2
 513 -20 513 -20 375 -20 c 0,3,4
 152 -20 152 -20 152 219 c 0,5,6
 152 296 152 296 172 391 c 2,7,-1
 297 981 l 1,8,-1
 141 981 l 1,9,-1
 160 1063 l 1,10,11
 360 1063 360 1063 473 1350 c 1,12,-1
 567 1350 l 1,13,-1
 514 1098 l 1,14,-1
 762 1098 l 1,15,-1
 737 981 l 1,16,-1
 489 981 l 1,17,-1
 365 397 l 2,18,19
 340 279 340 279 340 221 c 0,20,21
 340 109 340 109 449 109 c 0,22,23
 532 109 532 109 616 154 c 1,0,-1
EndSplineSet
EndChar

StartChar: u
Encoding: 117 117 88
Width: 1227
GlyphClass: 2
Flags: W
LayerCount: 2
Fore
SplineSet
135 1098 m 1,0,-1
 516 1098 l 1,1,-1
 381 485 l 2,2,3
 340 299 340 299 340 238 c 0,4,5
 340 113 340 113 440 113 c 0,6,7
 545 113 545 113 666.5 264.5 c 128,-1,8
 788 416 788 416 825 588 c 2,9,-1
 932 1098 l 1,10,-1
 1130 1098 l 1,11,-1
 989 440 l 2,12,13
 958 295 958 295 958 213 c 0,14,15
 958 109 958 109 1026 109 c 0,16,17
 1084 109 1084 109 1157 154 c 1,18,-1
 1194 94 l 1,19,20
 1064 -20 1064 -20 934 -20 c 0,21,22
 857 -20 857 -20 809.5 35 c 128,-1,23
 762 90 762 90 762 174 c 0,24,25
 762 227 762 227 772 295 c 1,26,-1
 756 295 l 1,27,28
 645 112 645 112 557.5 47 c 128,-1,29
 470 -18 470 -18 360 -18 c 0,30,31
 141 -18 141 -18 141 209 c 0,32,33
 141 274 141 274 178 434 c 1,34,-1
 258 793 l 2,35,36
 276 874 276 874 276 915 c 0,37,38
 276 1012 276 1012 133 1012 c 2,39,-1
 117 1012 l 1,40,-1
 135 1098 l 1,0,-1
EndSplineSet
EndChar

StartChar: v
Encoding: 118 118 89
Width: 1102
GlyphClass: 2
Flags: W
LayerCount: 2
Fore
SplineSet
197 903 m 2,0,1
 180 1012 180 1012 55 1012 c 2,2,-1
 35 1012 l 1,3,-1
 51 1098 l 1,4,-1
 358 1098 l 1,5,-1
 453 492 l 2,6,7
 489 260 489 260 500 129 c 1,8,-1
 506 129 l 1,9,10
 659 276 659 276 771 472.5 c 128,-1,11
 883 669 883 669 883 788 c 0,12,13
 883 860 883 860 848 902 c 128,-1,14
 813 944 813 944 756 944 c 1,15,16
 756 1018 756 1018 796 1063 c 128,-1,17
 836 1108 836 1108 895 1108 c 0,18,19
 1034 1108 1034 1108 1034 918 c 0,20,21
 1034 732 1034 732 892.5 482.5 c 128,-1,22
 751 233 751 233 524 2 c 1,23,-1
 340 -18 l 1,24,-1
 197 903 l 2,0,1
EndSplineSet
EndChar

StartChar: w
Encoding: 119 119 90
Width: 1677
GlyphClass: 2
Flags: W
LayerCount: 2
Fore
SplineSet
246 -18 m 1,0,-1
 231 864 l 2,1,2
 230 936 230 936 202.5 974 c 128,-1,3
 175 1012 175 1012 96 1012 c 2,4,-1
 76 1012 l 1,5,-1
 104 1098 l 1,6,-1
 412 1098 l 1,7,8
 418 666 418 666 418 164 c 1,9,-1
 426 164 l 1,10,11
 693 633 693 633 883 1079 c 1,12,-1
 1053 1087 l 1,13,14
 1096 548 1096 548 1096 150 c 1,15,-1
 1110 150 l 1,16,17
 1277 355 1277 355 1386 555.5 c 128,-1,18
 1495 756 1495 756 1495 874 c 0,19,20
 1495 968 1495 968 1407 997 c 1,21,22
 1425 1118 1425 1118 1528 1118 c 0,23,24
 1636 1118 1636 1118 1636 965 c 0,25,26
 1636 670 1636 670 1122 2 c 1,27,-1
 920 -20 l 1,28,-1
 889 866 l 1,29,30
 796 645 796 645 457 6 c 1,31,-1
 246 -18 l 1,0,-1
EndSplineSet
EndChar

StartChar: x
Encoding: 120 120 91
Width: 1118
GlyphClass: 2
Flags: W
LayerCount: 2
Fore
SplineSet
-41 0 m 1,0,-1
 -18 86 l 1,1,-1
 8 86 l 2,2,3
 64 86 64 86 105.5 111.5 c 128,-1,4
 147 137 147 137 221 227 c 2,5,-1
 483 545 l 1,6,-1
 350 864 l 2,7,8
 311 959 311 959 285.5 985.5 c 128,-1,9
 260 1012 260 1012 203 1012 c 2,10,-1
 176 1012 l 1,11,-1
 193 1098 l 1,12,-1
 465 1098 l 1,13,-1
 621 684 l 1,14,-1
 893 1098 l 1,15,-1
 1155 1098 l 1,16,-1
 1122 1012 l 1,17,-1
 1096 1012 l 2,18,19
 1036 1012 1036 1012 995.5 983 c 128,-1,20
 955 954 955 954 883 864 c 1,21,-1
 668 588 l 1,22,-1
 809 233 l 2,23,24
 845 141 845 141 870.5 113.5 c 128,-1,25
 896 86 896 86 956 86 c 2,26,-1
 983 86 l 1,27,-1
 967 0 l 1,28,-1
 692 0 l 1,29,-1
 526 451 l 1,30,-1
 219 0 l 1,31,-1
 -41 0 l 1,0,-1
EndSplineSet
EndChar

StartChar: y
Encoding: 121 121 92
Width: 1081
GlyphClass: 2
Flags: W
LayerCount: 2
Fore
SplineSet
164 903 m 2,0,1
 146 963 146 963 115 987.5 c 128,-1,2
 84 1012 84 1012 23 1012 c 2,3,-1
 2 1012 l 1,4,-1
 18 1098 l 1,5,-1
 317 1098 l 1,6,-1
 477 545 l 2,7,8
 551 288 551 288 563 174 c 1,9,-1
 569 174 l 1,10,11
 846 595 846 595 846 854 c 0,12,13
 846 965 846 965 745 965 c 1,14,15
 745 1034 745 1034 785 1075 c 128,-1,16
 825 1116 825 1116 879 1116 c 0,17,18
 1018 1116 1018 1116 1018 944 c 0,19,20
 1018 697 1018 697 742 249.5 c 128,-1,21
 466 -198 466 -198 299.5 -345 c 128,-1,22
 133 -492 133 -492 -139 -492 c 0,23,24
 -247 -492 -247 -492 -332 -455 c 1,25,-1
 -301 -352 l 1,26,27
 -229 -375 -229 -375 -141 -375 c 0,28,29
 152 -375 152 -375 434 -2 c 1,30,-1
 164 903 l 2,0,1
EndSplineSet
EndChar

StartChar: z
Encoding: 122 122 93
Width: 1047
GlyphClass: 2
Flags: W
LayerCount: 2
Fore
SplineSet
616 117 m 2,0,1
 665 117 665 117 705.5 148 c 128,-1,2
 746 179 746 179 791 285 c 2,3,-1
 811 332 l 1,4,-1
 897 332 l 1,5,-1
 817 0 l 1,6,-1
 -2 0 l 1,7,-1
 14 82 l 1,8,-1
 711 981 l 1,9,-1
 451 981 l 2,10,11
 380 981 380 981 341.5 947 c 128,-1,12
 303 913 303 913 258 815 c 1,13,-1
 254 807 l 1,14,-1
 168 807 l 1,15,-1
 250 1098 l 1,16,-1
 967 1098 l 1,17,-1
 950 1014 l 1,18,-1
 252 117 l 1,19,-1
 616 117 l 2,0,1
EndSplineSet
EndChar

StartChar: braceleft
Encoding: 123 123 94
Width: 877
GlyphClass: 2
Flags: W
LayerCount: 2
Fore
SplineSet
676 -262 m 2,0,1
 537 -262 537 -262 459 -185 c 128,-1,2
 381 -108 381 -108 381 33 c 2,3,-1
 381 389 l 2,4,5
 381 599 381 599 139 606 c 1,6,-1
 139 692 l 1,7,8
 381 697 381 697 381 907 c 2,9,-1
 381 1264 l 2,10,11
 381 1556 381 1556 676 1556 c 2,12,-1
 811 1556 l 1,13,-1
 811 1468 l 1,14,-1
 750 1468 l 2,15,16
 582 1468 582 1468 582 1253 c 2,17,-1
 582 903 l 2,18,19
 582 689 582 689 354 651 c 1,20,-1
 354 649 l 1,21,22
 582 610 582 610 582 395 c 2,23,-1
 582 41 l 2,24,25
 582 -174 582 -174 750 -174 c 2,26,-1
 811 -174 l 1,27,-1
 811 -262 l 1,28,-1
 676 -262 l 2,0,1
EndSplineSet
EndChar

StartChar: bar
Encoding: 124 124 95
Width: 1145
GlyphClass: 2
Flags: W
LayerCount: 2
Fore
SplineSet
649 -492 m 1,0,-1
 526 -492 l 1,1,-1
 526 1556 l 1,2,-1
 649 1556 l 1,3,-1
 649 -492 l 1,0,-1
EndSplineSet
EndChar

StartChar: braceright
Encoding: 125 125 96
Width: 877
GlyphClass: 2
Flags: W
LayerCount: 2
Fore
SplineSet
129 -174 m 1,0,-1
 190 -174 l 2,1,2
 358 -174 358 -174 358 41 c 2,3,-1
 358 395 l 2,4,5
 358 610 358 610 586 649 c 1,6,-1
 586 651 l 1,7,8
 358 689 358 689 358 903 c 2,9,-1
 358 1253 l 2,10,11
 358 1468 358 1468 190 1468 c 2,12,-1
 129 1468 l 1,13,-1
 129 1556 l 1,14,-1
 264 1556 l 2,15,16
 559 1556 559 1556 559 1264 c 2,17,-1
 559 907 l 2,18,19
 559 697 559 697 801 692 c 1,20,-1
 801 606 l 1,21,22
 559 599 559 599 559 389 c 2,23,-1
 559 33 l 2,24,25
 559 -108 559 -108 481 -185 c 128,-1,26
 403 -262 403 -262 264 -262 c 2,27,-1
 129 -262 l 1,28,-1
 129 -174 l 1,0,-1
EndSplineSet
EndChar

StartChar: asciitilde
Encoding: 126 126 97
Width: 1149
GlyphClass: 2
Flags: W
LayerCount: 2
Fore
SplineSet
250 551 m 1,0,-1
 129 551 l 1,1,2
 157 909 157 909 387 909 c 0,3,4
 481 909 481 909 635 774 c 1,5,6
 742 672 742 672 803 672 c 0,7,8
 860 672 860 672 887 734 c 128,-1,9
 914 796 914 796 928 909 c 1,10,-1
 1051 909 l 1,11,12
 1012 551 1012 551 793 551 c 0,13,14
 696 551 696 551 555 680 c 0,15,16
 437 788 437 788 379 788 c 0,17,18
 319 788 319 788 290 729.5 c 128,-1,19
 261 671 261 671 250 551 c 1,0,-1
EndSplineSet
EndChar

StartChar: exclamdown
Encoding: 161 161 99
Width: 682
GlyphClass: 2
Flags: W
LayerCount: 2
Fore
SplineSet
420 1112 m 0,0,1
 547 1112 547 1112 547 987 c 0,2,3
 547 916 547 916 510.5 872.5 c 128,-1,4
 474 829 474 829 412 829 c 0,5,6
 285 829 285 829 285 954 c 0,7,8
 285 1028 285 1028 321.5 1070 c 128,-1,9
 358 1112 358 1112 420 1112 c 0,0,1
260 -367 m 1,10,-1
 23 -367 l 1,11,-1
 317 684 l 1,12,-1
 412 684 l 1,13,-1
 260 -367 l 1,10,-1
EndSplineSet
EndChar

StartChar: cent
Encoding: 162 162 100
Width: 1145
GlyphClass: 2
Flags: W
LayerCount: 2
Fore
SplineSet
496 182 m 1,0,1
 340 208 340 208 256 318 c 128,-1,2
 172 428 172 428 172 600 c 0,3,4
 172 849 172 849 327 1068.5 c 128,-1,5
 482 1288 482 1288 733 1313 c 1,6,-1
 766 1462 l 1,7,-1
 868 1462 l 1,8,-1
 836 1311 l 1,9,10
 952 1300 952 1300 1016.5 1246.5 c 128,-1,11
 1081 1193 1081 1193 1081 1118 c 0,12,13
 1081 1056 1081 1056 1031.5 1015.5 c 128,-1,14
 982 975 982 975 899 975 c 1,15,16
 899 1141 899 1141 811 1196 c 1,17,-1
 623 305 l 1,18,19
 792 311 792 311 905 453 c 1,20,21
 926 438 926 438 926 401 c 0,22,23
 926 322 926 322 838 252 c 128,-1,24
 750 182 750 182 596 176 c 1,25,-1
 559 0 l 1,26,-1
 457 0 l 1,27,-1
 496 182 l 1,0,1
524 319 m 1,28,-1
 713 1212 l 1,29,30
 575 1187 575 1187 480 980 c 128,-1,31
 385 773 385 773 385 584 c 0,32,33
 385 370 385 370 524 319 c 1,28,-1
EndSplineSet
EndChar

StartChar: sterling
Encoding: 163 163 101
Width: 1145
GlyphClass: 2
Flags: W
LayerCount: 2
Fore
SplineSet
530 690 m 1,0,1
 537 646 537 646 537 582 c 0,2,3
 537 345 537 345 279 193 c 1,4,-1
 281 184 l 1,5,6
 365 221 365 221 438 221 c 0,7,8
 498 221 498 221 617 182 c 0,9,10
 735 143 735 143 776 143 c 0,11,12
 890 143 890 143 981 236 c 1,13,-1
 1036 168 l 1,14,15
 851 -20 851 -20 688 -20 c 0,16,17
 623 -20 623 -20 499 26 c 256,18,19
 375 72 375 72 301 72 c 0,20,21
 187 72 187 72 63 12 c 1,22,-1
 35 -2 l 1,23,-1
 -2 80 l 1,24,-1
 70 121 l 2,25,26
 365 289 365 289 365 563 c 0,27,28
 365 613 365 613 350 690 c 1,29,-1
 123 690 l 1,30,-1
 145 793 l 1,31,-1
 334 793 l 1,32,33
 307 919 307 919 307 999 c 0,34,35
 307 1225 307 1225 442.5 1354 c 128,-1,36
 578 1483 578 1483 807 1483 c 0,37,38
 962 1483 962 1483 1054.5 1427 c 128,-1,39
 1147 1371 1147 1371 1147 1282 c 0,40,41
 1147 1120 1147 1120 977 1120 c 1,42,43
 977 1380 977 1380 776 1380 c 0,44,45
 637 1380 637 1380 562 1283.5 c 128,-1,46
 487 1187 487 1187 487 1012 c 0,47,48
 487 932 487 932 516 793 c 1,49,-1
 864 793 l 1,50,-1
 842 690 l 1,51,-1
 530 690 l 1,0,1
EndSplineSet
EndChar

StartChar: currency
Encoding: 164 164 102
Width: 1145
GlyphClass: 2
Flags: W
LayerCount: 2
Fore
SplineSet
283 952 m 1,0,-1
 147 1087 l 1,1,-1
 233 1174 l 1,2,-1
 367 1038 l 1,3,4
 466 1110 466 1110 588 1110 c 0,5,6
 704 1110 704 1110 805 1038 c 1,7,-1
 942 1176 l 1,8,-1
 1028 1087 l 1,9,-1
 893 952 l 1,10,11
 965 853 965 853 965 733 c 256,12,13
 965 613 965 613 893 514 c 1,14,-1
 1028 379 l 1,15,-1
 944 293 l 1,16,-1
 807 428 l 1,17,18
 703 358 703 358 588 358 c 0,19,20
 464 358 464 358 369 428 c 1,21,-1
 233 293 l 1,22,-1
 147 379 l 1,23,-1
 281 514 l 1,24,25
 213 613 213 613 213 733 c 0,26,27
 213 857 213 857 283 952 c 1,0,-1
588 471 m 0,28,29
 696 471 696 471 773 548.5 c 128,-1,30
 850 626 850 626 850 733 c 0,31,32
 850 843 850 843 774 920 c 128,-1,33
 698 997 698 997 588 997 c 0,34,35
 480 997 480 997 404 920 c 128,-1,36
 328 843 328 843 328 733 c 0,37,38
 328 626 328 626 404.5 548.5 c 128,-1,39
 481 471 481 471 588 471 c 0,28,29
EndSplineSet
EndChar

StartChar: yen
Encoding: 165 165 103
Width: 1104
GlyphClass: 2
Flags: W
LayerCount: 2
Fore
SplineSet
582 225 m 2,0,1
 573 181 573 181 573 168 c 0,2,3
 573 86 573 86 721 86 c 2,4,-1
 768 86 l 1,5,-1
 750 0 l 1,6,-1
 121 0 l 1,7,-1
 139 86 l 1,8,-1
 186 86 l 2,9,10
 290 86 290 86 330 122 c 128,-1,11
 370 158 370 158 383 223 c 2,12,-1
 412 362 l 1,13,-1
 125 362 l 1,14,-1
 145 459 l 1,15,-1
 432 459 l 1,16,-1
 463 602 l 1,17,-1
 176 602 l 1,18,-1
 197 698 l 1,19,-1
 444 698 l 1,20,-1
 287 1268 l 2,21,22
 271 1326 271 1326 248 1351 c 128,-1,23
 225 1376 225 1376 164 1376 c 2,24,-1
 158 1376 l 1,25,-1
 176 1462 l 1,26,-1
 655 1462 l 1,27,-1
 637 1376 l 1,28,-1
 633 1376 l 2,29,30
 564 1376 564 1376 528 1363 c 128,-1,31
 492 1350 492 1350 492 1307 c 256,32,33
 492 1264 492 1264 516 1176 c 1,34,-1
 569 956 l 2,35,36
 604 810 604 810 612 707 c 1,37,38
 634 746 634 746 719 874 c 1,39,-1
 889 1124 l 2,40,41
 981 1259 981 1259 981 1317 c 0,42,43
 981 1376 981 1376 870 1376 c 2,44,-1
 864 1376 l 1,45,-1
 883 1462 l 1,46,-1
 1300 1462 l 1,47,-1
 1282 1376 l 1,48,-1
 1264 1376 l 2,49,50
 1218 1376 1218 1376 1186 1352.5 c 128,-1,51
 1154 1329 1154 1329 1075 1217 c 1,52,-1
 715 698 l 1,53,-1
 969 698 l 1,54,-1
 948 602 l 1,55,-1
 662 602 l 1,56,-1
 631 459 l 1,57,-1
 918 459 l 1,58,-1
 897 362 l 1,59,-1
 610 362 l 1,60,-1
 582 225 l 2,0,1
EndSplineSet
EndChar

StartChar: brokenbar
Encoding: 166 166 104
Width: 1145
GlyphClass: 2
Flags: W
LayerCount: 2
Fore
SplineSet
649 737 m 1,0,-1
 526 737 l 1,1,-1
 526 1556 l 1,2,-1
 649 1556 l 1,3,-1
 649 737 l 1,0,-1
649 -492 m 1,4,-1
 526 -492 l 1,5,-1
 526 328 l 1,6,-1
 649 328 l 1,7,-1
 649 -492 l 1,4,-1
EndSplineSet
EndChar

StartChar: section
Encoding: 167 167 105
Width: 1114
GlyphClass: 2
Flags: W
LayerCount: 2
Fore
SplineSet
170 131 m 1,0,1
 170 11 170 11 237 -62 c 128,-1,2
 304 -135 304 -135 420 -135 c 0,3,4
 545 -135 545 -135 622.5 -68.5 c 128,-1,5
 700 -2 700 -2 700 106 c 0,6,7
 700 171 700 171 648.5 231 c 128,-1,8
 597 291 597 291 408 393 c 0,9,10
 180 517 180 517 180 723 c 0,11,12
 180 889 180 889 360 1001 c 1,13,14
 311 1084 311 1084 311 1186 c 0,15,16
 311 1354 311 1354 434 1455 c 128,-1,17
 557 1556 557 1556 748 1556 c 0,18,19
 891 1556 891 1556 981 1496 c 128,-1,20
 1071 1436 1071 1436 1071 1352 c 0,21,22
 1071 1278 1071 1278 1034 1244 c 128,-1,23
 997 1210 997 1210 905 1210 c 1,24,25
 905 1325 905 1325 855.5 1392.5 c 128,-1,26
 806 1460 806 1460 711 1460 c 0,27,28
 611 1460 611 1460 540 1404 c 128,-1,29
 469 1348 469 1348 469 1251 c 0,30,31
 469 1171 469 1171 510.5 1117.5 c 128,-1,32
 552 1064 552 1064 739 963 c 0,33,34
 989 829 989 829 989 645 c 0,35,36
 989 473 989 473 811 336 c 1,37,38
 852 260 852 260 852 184 c 0,39,40
 852 1 852 1 725 -117.5 c 128,-1,41
 598 -236 598 -236 389 -236 c 0,42,43
 232 -236 232 -236 136.5 -172.5 c 128,-1,44
 41 -109 41 -109 41 -4 c 0,45,46
 41 61 41 61 77.5 96 c 128,-1,47
 114 131 114 131 170 131 c 1,0,1
406 944 m 1,48,49
 324 884 324 884 324 799 c 0,50,51
 324 723 324 723 374 669 c 128,-1,52
 424 615 424 615 561 539 c 0,53,54
 682 472 682 472 760 401 c 1,55,56
 836 484 836 484 836 557 c 0,57,58
 836 680 836 680 625 795 c 0,59,60
 480 874 480 874 406 944 c 1,48,49
EndSplineSet
EndChar

StartChar: dieresis
Encoding: 168 168 106
Width: 1182
GlyphClass: 2
Flags: W
LayerCount: 2
Fore
SplineSet
514 1294 m 0,0,1
 412 1294 412 1294 412 1397 c 0,2,3
 412 1526 412 1526 522 1526 c 0,4,5
 625 1526 625 1526 625 1423 c 0,6,7
 625 1294 625 1294 514 1294 c 0,0,1
903 1294 m 0,8,9
 801 1294 801 1294 801 1397 c 0,10,11
 801 1526 801 1526 911 1526 c 0,12,13
 1014 1526 1014 1526 1014 1423 c 0,14,15
 1014 1294 1014 1294 903 1294 c 0,8,9
EndSplineSet
EndChar

StartChar: copyright
Encoding: 169 169 107
Width: 1731
GlyphClass: 2
Flags: W
LayerCount: 2
Fore
SplineSet
881 1485 m 0,0,1
 1190 1485 1190 1485 1412 1263.5 c 128,-1,2
 1634 1042 1634 1042 1634 731 c 0,3,4
 1634 422 1634 422 1413 201 c 128,-1,5
 1192 -20 1192 -20 881 -20 c 0,6,7
 569 -20 569 -20 349 201 c 128,-1,8
 129 422 129 422 129 731 c 0,9,10
 129 1042 129 1042 350 1263.5 c 128,-1,11
 571 1485 571 1485 881 1485 c 0,0,1
881 92 m 0,12,13
 1145 92 1145 92 1333.5 280 c 128,-1,14
 1522 468 1522 468 1522 731 c 0,15,16
 1522 995 1522 995 1333.5 1183.5 c 128,-1,17
 1145 1372 1145 1372 881 1372 c 0,18,19
 616 1372 616 1372 429 1183 c 128,-1,20
 242 994 242 994 242 731 c 0,21,22
 242 469 242 469 429 280.5 c 128,-1,23
 616 92 616 92 881 92 c 0,12,13
1169 504 m 1,24,25
 1198 483 1198 483 1198 440 c 0,26,27
 1198 376 1198 376 1114.5 326 c 128,-1,28
 1031 276 1031 276 891 276 c 0,29,30
 697 276 697 276 589 396 c 128,-1,31
 481 516 481 516 481 733 c 0,32,33
 481 943 481 943 598 1064.5 c 128,-1,34
 715 1186 715 1186 920 1186 c 0,35,36
 1052 1186 1052 1186 1126 1146 c 128,-1,37
 1200 1106 1200 1106 1200 1040 c 0,38,39
 1200 997 1200 997 1161 970.5 c 128,-1,40
 1122 944 1122 944 1061 944 c 1,41,42
 1061 1100 1061 1100 915 1100 c 0,43,44
 649 1100 649 1100 649 733 c 0,45,46
 649 556 649 556 718 460.5 c 128,-1,47
 787 365 787 365 918 365 c 0,48,49
 1088 365 1088 365 1169 504 c 1,24,25
EndSplineSet
EndChar

StartChar: ordfeminine
Encoding: 170 170 108
Width: 805
GlyphClass: 2
Flags: W
LayerCount: 2
Fore
SplineSet
573 995 m 1,0,-1
 565 995 l 1,1,2
 458 782 458 782 303 782 c 0,3,4
 217 782 217 782 170 842 c 128,-1,5
 123 902 123 902 123 1008 c 0,6,7
 123 1174 123 1174 242.5 1320 c 128,-1,8
 362 1466 362 1466 543 1466 c 0,9,10
 641 1466 641 1466 707 1423 c 1,11,-1
 770 1452 l 1,12,-1
 815 1452 l 1,13,-1
 719 1073 l 2,14,15
 698 990 698 990 698 942 c 0,16,17
 698 881 698 881 739 881 c 0,18,19
 774 881 774 881 827 913 c 1,20,-1
 850 874 l 1,21,22
 757 782 757 782 672 782 c 0,23,24
 559 782 559 782 559 885 c 0,25,26
 559 942 559 942 573 995 c 1,0,-1
629 1350 m 1,27,28
 600 1391 600 1391 539 1391 c 0,29,30
 437 1391 437 1391 369 1265.5 c 128,-1,31
 301 1140 301 1140 301 1012 c 0,32,33
 301 879 301 879 371 879 c 0,34,35
 425 879 425 879 486.5 964.5 c 128,-1,36
 548 1050 548 1050 575 1147 c 1,37,-1
 629 1350 l 1,27,28
EndSplineSet
EndChar

StartChar: guillemotleft
Encoding: 171 171 109
Width: 1053
GlyphClass: 2
Flags: W
LayerCount: 2
Fore
SplineSet
139 586 m 1,0,-1
 528 942 l 1,1,-1
 631 942 l 1,2,-1
 336 543 l 1,3,-1
 465 164 l 1,4,-1
 362 164 l 1,5,-1
 125 520 l 1,6,-1
 139 586 l 1,0,-1
510 586 m 1,7,-1
 899 942 l 1,8,-1
 1001 942 l 1,9,-1
 707 543 l 1,10,-1
 836 164 l 1,11,-1
 733 164 l 1,12,-1
 496 520 l 1,13,-1
 510 586 l 1,7,-1
EndSplineSet
EndChar

StartChar: logicalnot
Encoding: 172 172 110
Width: 1145
GlyphClass: 2
Flags: W
LayerCount: 2
Fore
SplineSet
1028 793 m 1,0,-1
 1028 252 l 1,1,-1
 905 252 l 1,2,-1
 905 672 l 1,3,-1
 150 672 l 1,4,-1
 150 793 l 1,5,-1
 1028 793 l 1,0,-1
EndSplineSet
EndChar

StartChar: registered
Encoding: 174 174 112
Width: 1731
GlyphClass: 2
Flags: W
LayerCount: 2
Fore
SplineSet
881 1485 m 0,0,1
 1190 1485 1190 1485 1412 1263.5 c 128,-1,2
 1634 1042 1634 1042 1634 731 c 0,3,4
 1634 422 1634 422 1413 201 c 128,-1,5
 1192 -20 1192 -20 881 -20 c 0,6,7
 569 -20 569 -20 349 201 c 128,-1,8
 129 422 129 422 129 731 c 0,9,10
 129 1042 129 1042 350 1263.5 c 128,-1,11
 571 1485 571 1485 881 1485 c 0,0,1
881 92 m 0,12,13
 1145 92 1145 92 1333.5 280 c 128,-1,14
 1522 468 1522 468 1522 731 c 0,15,16
 1522 995 1522 995 1333.5 1183.5 c 128,-1,17
 1145 1372 1145 1372 881 1372 c 0,18,19
 616 1372 616 1372 429 1183 c 128,-1,20
 242 994 242 994 242 731 c 0,21,22
 242 469 242 469 429 280.5 c 128,-1,23
 616 92 616 92 881 92 c 0,12,13
494 358 m 1,24,-1
 520 358 l 2,25,26
 621 358 621 358 621 430 c 2,27,-1
 621 1030 l 2,28,29
 621 1102 621 1102 520 1102 c 2,30,-1
 494 1102 l 1,31,-1
 494 1174 l 1,32,-1
 862 1174 l 2,33,34
 1214 1174 1214 1174 1214 930 c 0,35,36
 1214 766 1214 766 1028 705 c 1,37,-1
 1210 412 l 2,38,39
 1230 379 1230 379 1250.5 368.5 c 128,-1,40
 1271 358 1271 358 1325 358 c 1,41,-1
 1325 289 l 1,42,-1
 1108 289 l 1,43,-1
 883 670 l 1,44,-1
 774 670 l 1,45,-1
 774 430 l 2,46,47
 774 358 774 358 874 358 c 2,48,-1
 903 358 l 1,49,-1
 903 289 l 1,50,-1
 494 289 l 1,51,-1
 494 358 l 1,24,-1
774 748 m 1,52,-1
 860 748 l 2,53,54
 963 748 963 748 1008 788 c 128,-1,55
 1053 828 1053 828 1053 928 c 0,56,57
 1053 1019 1053 1019 1007 1056.5 c 128,-1,58
 961 1094 961 1094 854 1094 c 2,59,-1
 774 1094 l 1,60,-1
 774 748 l 1,52,-1
EndSplineSet
EndChar

StartChar: overscore
Encoding: 175 175 113
Width: 940
GlyphClass: 2
Flags: W
LayerCount: 2
Fore
SplineSet
950 1556 m 1,0,-1
 -10 1556 l 1,1,-1
 -10 1677 l 1,2,-1
 950 1677 l 1,3,-1
 950 1556 l 1,0,-1
EndSplineSet
EndChar

StartChar: degree
Encoding: 176 176 114
Width: 819
GlyphClass: 2
Flags: W
LayerCount: 2
Fore
SplineSet
481 1462 m 0,0,1
 609 1462 609 1462 701 1371 c 128,-1,2
 793 1280 793 1280 793 1151 c 0,3,4
 793 1024 793 1024 702 933 c 128,-1,5
 611 842 611 842 481 842 c 0,6,7
 353 842 353 842 262.5 932.5 c 128,-1,8
 172 1023 172 1023 172 1151 c 0,9,10
 172 1281 172 1281 263.5 1371.5 c 128,-1,11
 355 1462 355 1462 481 1462 c 0,0,1
481 963 m 0,12,13
 560 963 560 963 615 1018 c 128,-1,14
 670 1073 670 1073 670 1151 c 0,15,16
 670 1231 670 1231 614.5 1286 c 128,-1,17
 559 1341 559 1341 481 1341 c 0,18,19
 406 1341 406 1341 350.5 1286.5 c 128,-1,20
 295 1232 295 1232 295 1151 c 0,21,22
 295 1073 295 1073 350.5 1018 c 128,-1,23
 406 963 406 963 481 963 c 0,12,13
EndSplineSet
EndChar

StartChar: plusminus
Encoding: 177 177 115
Width: 1145
GlyphClass: 2
Flags: W
LayerCount: 2
Fore
SplineSet
649 672 m 1,0,-1
 649 293 l 1,1,-1
 526 293 l 1,2,-1
 526 672 l 1,3,-1
 150 672 l 1,4,-1
 150 793 l 1,5,-1
 526 793 l 1,6,-1
 526 1171 l 1,7,-1
 649 1171 l 1,8,-1
 649 793 l 1,9,-1
 1028 793 l 1,10,-1
 1028 672 l 1,11,-1
 649 672 l 1,0,-1
1028 0 m 1,12,-1
 150 0 l 1,13,-1
 150 121 l 1,14,-1
 1028 121 l 1,15,-1
 1028 0 l 1,12,-1
EndSplineSet
EndChar

StartChar: twosuperior
Encoding: 178 178 116
Width: 819
GlyphClass: 2
Flags: W
LayerCount: 2
Fore
SplineSet
41 586 m 1,0,-1
 51 647 l 1,1,-1
 369 909 l 2,2,3
 480 1000 480 1000 535 1084.5 c 128,-1,4
 590 1169 590 1169 590 1282 c 0,5,6
 590 1401 590 1401 487 1401 c 0,7,8
 425 1401 425 1401 379.5 1347.5 c 128,-1,9
 334 1294 334 1294 322 1206 c 1,10,11
 260 1206 260 1206 225 1233.5 c 128,-1,12
 190 1261 190 1261 190 1305 c 0,13,14
 190 1382 190 1382 274.5 1432.5 c 128,-1,15
 359 1483 359 1483 502 1483 c 0,16,17
 626 1483 626 1483 698 1429 c 128,-1,18
 770 1375 770 1375 770 1288 c 0,19,20
 770 1191 770 1191 707.5 1107 c 128,-1,21
 645 1023 645 1023 487 897 c 2,22,-1
 242 702 l 1,23,-1
 524 702 l 2,24,25
 601 702 601 702 633 786 c 2,26,-1
 649 829 l 1,27,-1
 719 829 l 1,28,-1
 662 586 l 1,29,-1
 41 586 l 1,0,-1
EndSplineSet
EndChar

StartChar: threesuperior
Encoding: 179 179 117
Width: 819
GlyphClass: 2
Flags: W
LayerCount: 2
Fore
SplineSet
197 842 m 1,0,1
 197 767 197 767 242 716.5 c 128,-1,2
 287 666 287 666 362 666 c 0,3,4
 557 666 557 666 557 848 c 0,5,6
 557 917 557 917 508 959 c 128,-1,7
 459 1001 459 1001 371 1001 c 2,8,-1
 303 1001 l 1,9,-1
 319 1085 l 1,10,-1
 387 1085 l 2,11,12
 484 1085 484 1085 549 1147 c 128,-1,13
 614 1209 614 1209 614 1305 c 256,14,15
 614 1401 614 1401 520 1401 c 0,16,17
 384 1401 384 1401 348 1223 c 1,18,19
 213 1223 213 1223 213 1309 c 0,20,21
 213 1382 213 1382 297.5 1432.5 c 128,-1,22
 382 1483 382 1483 526 1483 c 0,23,24
 657 1483 657 1483 730 1432 c 128,-1,25
 803 1381 803 1381 803 1296 c 0,26,27
 803 1107 803 1107 541 1055 c 1,28,-1
 539 1044 l 1,29,30
 745 1017 745 1017 745 856 c 0,31,32
 745 723 745 723 637.5 648 c 128,-1,33
 530 573 530 573 348 573 c 0,34,35
 218 573 218 573 149 616 c 128,-1,36
 80 659 80 659 80 731 c 0,37,38
 80 842 80 842 197 842 c 1,0,1
EndSplineSet
EndChar

StartChar: acute
Encoding: 180 180 118
Width: 1182
GlyphClass: 2
Flags: W
LayerCount: 2
Fore
SplineSet
508 1268 m 1,0,1
 625 1403 625 1403 727 1569 c 1,2,-1
 946 1569 l 1,3,-1
 940 1548 l 1,4,5
 783 1365 783 1365 584 1241 c 1,6,-1
 502 1241 l 1,7,-1
 508 1268 l 1,0,1
EndSplineSet
EndChar

StartChar: mu
Encoding: 181 181 119
Width: 1237
GlyphClass: 2
Flags: W
LayerCount: 2
Fore
SplineSet
223 100 m 1,0,1
 190 -70 190 -70 190 -147 c 0,2,3
 190 -296 190 -296 303 -313 c 1,4,5
 284 -492 284 -492 129 -492 c 0,6,7
 -4 -492 -4 -492 -4 -344 c 0,8,9
 -4 -253 -4 -253 57 -34 c 0,10,11
 144 280 144 280 182 461 c 2,12,-1
 317 1098 l 1,13,-1
 510 1098 l 1,14,-1
 375 457 l 2,15,16
 352 348 352 348 352 268 c 0,17,18
 352 111 352 111 502 111 c 0,19,20
 608 111 608 111 690 201 c 128,-1,21
 772 291 772 291 803 442 c 2,22,-1
 942 1098 l 1,23,-1
 1135 1098 l 1,24,-1
 971 332 l 2,25,26
 946 215 946 215 946 174 c 0,27,28
 946 109 946 109 1006 109 c 0,29,30
 1050 109 1050 109 1118 143 c 1,31,-1
 1153 74 l 1,32,33
 1017 -20 1017 -20 915 -20 c 0,34,35
 770 -20 770 -20 762 176 c 1,36,-1
 752 176 l 1,37,38
 619 -20 619 -20 455 -20 c 0,39,40
 286 -20 286 -20 223 100 c 1,0,1
EndSplineSet
EndChar

StartChar: paragraph
Encoding: 182 182 120
Width: 1264
GlyphClass: 2
Flags: W
LayerCount: 2
Fore
SplineSet
877 1452 m 1,0,-1
 682 1452 l 1,1,-1
 682 -227 l 1,2,-1
 362 -227 l 1,3,-1
 362 -141 l 1,4,-1
 389 -141 l 2,5,6
 488 -141 488 -141 522.5 -103 c 128,-1,7
 557 -65 557 -65 557 6 c 2,8,-1
 557 791 l 1,9,-1
 412 791 l 2,10,11
 98 791 98 791 98 1192 c 0,12,13
 98 1556 98 1556 416 1556 c 2,14,-1
 1196 1556 l 1,15,-1
 1196 1470 l 1,16,-1
 1169 1470 l 2,17,18
 1071 1470 1071 1470 1036 1432.5 c 128,-1,19
 1001 1395 1001 1395 1001 1323 c 2,20,-1
 1001 6 l 2,21,22
 1001 -66 1001 -66 1036 -103.5 c 128,-1,23
 1071 -141 1071 -141 1169 -141 c 2,24,-1
 1196 -141 l 1,25,-1
 1196 -227 l 1,26,-1
 877 -227 l 1,27,-1
 877 1452 l 1,0,-1
EndSplineSet
EndChar

StartChar: periodcentered
Encoding: 183 183 121
Width: 586
GlyphClass: 2
Flags: W
LayerCount: 2
Fore
SplineSet
315 588 m 0,0,1
 188 588 188 588 188 713 c 0,2,3
 188 784 188 784 224.5 827 c 128,-1,4
 261 870 261 870 323 870 c 0,5,6
 450 870 450 870 450 745 c 0,7,8
 450 672 450 672 413.5 630 c 128,-1,9
 377 588 377 588 315 588 c 0,0,1
EndSplineSet
EndChar

StartChar: cedilla
Encoding: 184 184 122
Width: 682
GlyphClass: 2
Flags: W
LayerCount: 2
Fore
SplineSet
387 -70 m 1,0,1
 461 -80 461 -80 506 -128 c 128,-1,2
 551 -176 551 -176 551 -240 c 0,3,4
 551 -359 551 -359 464.5 -425.5 c 128,-1,5
 378 -492 378 -492 225 -492 c 0,6,7
 146 -492 146 -492 72 -469 c 1,8,-1
 94 -365 l 1,9,10
 164 -381 164 -381 231 -381 c 0,11,12
 383 -381 383 -381 383 -256 c 0,13,14
 383 -154 383 -154 252 -141 c 1,15,-1
 330 18 l 1,16,-1
 426 18 l 1,17,-1
 387 -70 l 1,0,1
EndSplineSet
EndChar

StartChar: onesuperior
Encoding: 185 185 123
Width: 819
GlyphClass: 2
Flags: W
LayerCount: 2
Fore
SplineSet
135 588 m 1,0,-1
 150 657 l 1,1,-1
 244 657 l 2,2,3
 329 657 329 657 344 735 c 1,4,-1
 469 1325 l 1,5,-1
 279 1325 l 1,6,-1
 293 1395 l 1,7,-1
 395 1395 l 2,8,9
 538 1395 538 1395 582 1473 c 1,10,-1
 684 1473 l 1,11,-1
 541 795 l 2,12,13
 526 724 526 724 526 709 c 0,14,15
 526 657 526 657 598 657 c 2,16,-1
 692 657 l 1,17,-1
 678 588 l 1,18,-1
 135 588 l 1,0,-1
EndSplineSet
EndChar

StartChar: ordmasculine
Encoding: 186 186 124
Width: 813
GlyphClass: 2
Flags: W
LayerCount: 2
Fore
SplineSet
420 780 m 0,0,1
 287 780 287 780 212 848.5 c 128,-1,2
 137 917 137 917 137 1036 c 0,3,4
 137 1198 137 1198 254 1333 c 128,-1,5
 371 1468 371 1468 557 1468 c 0,6,7
 687 1468 687 1468 761.5 1401.5 c 128,-1,8
 836 1335 836 1335 836 1217 c 0,9,10
 836 1053 836 1053 721 916.5 c 128,-1,11
 606 780 606 780 420 780 c 0,0,1
543 1386 m 0,12,13
 445 1386 445 1386 381 1267 c 128,-1,14
 317 1148 317 1148 317 1014 c 0,15,16
 317 862 317 862 420 862 c 0,17,18
 519 862 519 862 581 980.5 c 128,-1,19
 643 1099 643 1099 643 1241 c 0,20,21
 643 1386 643 1386 543 1386 c 0,12,13
EndSplineSet
EndChar

StartChar: guillemotright
Encoding: 187 187 125
Width: 1053
GlyphClass: 2
Flags: W
LayerCount: 2
Fore
SplineSet
911 520 m 1,0,-1
 522 164 l 1,1,-1
 420 164 l 1,2,-1
 719 563 l 1,3,-1
 586 942 l 1,4,-1
 688 942 l 1,5,-1
 926 586 l 1,6,-1
 911 520 l 1,0,-1
541 520 m 1,7,-1
 152 164 l 1,8,-1
 49 164 l 1,9,-1
 348 563 l 1,10,-1
 215 942 l 1,11,-1
 317 942 l 1,12,-1
 555 586 l 1,13,-1
 541 520 l 1,7,-1
EndSplineSet
EndChar

StartChar: questiondown
Encoding: 191 191 129
Width: 1024
GlyphClass: 2
Flags: W
LayerCount: 2
Fore
SplineSet
666 1110 m 0,0,1
 793 1110 793 1110 793 985 c 0,2,3
 793 914 793 914 756 870.5 c 128,-1,4
 719 827 719 827 657 827 c 0,5,6
 597 827 597 827 563.5 861.5 c 128,-1,7
 530 896 530 896 530 952 c 0,8,9
 530 1027 530 1027 567 1068.5 c 128,-1,10
 604 1110 604 1110 666 1110 c 0,0,1
506 444 m 1,11,-1
 557 682 l 1,12,-1
 682 682 l 1,13,-1
 618 379 l 1,14,15
 203 227 203 227 203 -66 c 0,16,17
 203 -166 203 -166 257 -226.5 c 128,-1,18
 311 -287 311 -287 401 -287 c 0,19,20
 613 -287 613 -287 655 4 c 1,21,22
 803 4 803 4 803 -119 c 0,23,24
 803 -232 803 -232 688.5 -310.5 c 128,-1,25
 574 -389 574 -389 389 -389 c 0,26,27
 2 -389 2 -389 2 -49 c 0,28,29
 2 262 2 262 506 444 c 1,11,-1
EndSplineSet
EndChar

StartChar: AE
Encoding: 198 198 136
Width: 1948
GlyphClass: 2
Flags: W
LayerCount: 2
Fore
SplineSet
-127 0 m 1,0,-1
 -98 86 l 1,1,-1
 -59 86 l 2,2,3
 -5 86 -5 86 35.5 114 c 128,-1,4
 76 142 76 142 152 246 c 2,5,-1
 967 1364 l 1,6,-1
 793 1376 l 1,7,-1
 811 1462 l 1,8,-1
 1970 1462 l 1,9,-1
 1905 1104 l 1,10,-1
 1798 1104 l 1,11,12
 1808 1174 1808 1174 1808 1223 c 0,13,14
 1808 1360 1808 1360 1663 1360 c 2,15,-1
 1319 1360 l 1,16,-1
 1202 815 l 1,17,-1
 1696 815 l 1,18,-1
 1675 715 l 1,19,-1
 1182 715 l 1,20,-1
 1051 102 l 1,21,-1
 1446 102 l 2,22,23
 1618 102 1618 102 1677 270 c 1,24,-1
 1710 358 l 1,25,-1
 1817 358 l 1,26,-1
 1726 0 l 1,27,-1
 629 0 l 1,28,-1
 645 86 l 1,29,-1
 672 86 l 2,30,31
 775 86 775 86 816 121.5 c 128,-1,32
 857 157 857 157 870 223 c 2,33,-1
 926 489 l 1,34,-1
 463 489 l 1,35,-1
 309 274 l 2,36,37
 254 197 254 197 254 154 c 0,38,39
 254 86 254 86 358 86 c 2,40,-1
 406 86 l 1,41,-1
 377 0 l 1,42,-1
 -127 0 l 1,0,-1
1110 1360 m 1,43,-1
 1071 1360 l 1,44,45
 974 1192 974 1192 811 969 c 1,46,-1
 539 592 l 1,47,-1
 948 592 l 1,48,-1
 1110 1360 l 1,43,-1
EndSplineSet
EndChar

StartChar: Eth
Encoding: 208 208 146
Width: 1530
GlyphClass: 2
Flags: W
LayerCount: 2
Fore
SplineSet
-27 86 m 1,0,-1
 0 86 l 2,1,2
 170 86 170 86 201 233 c 2,3,-1
 303 715 l 1,4,-1
 104 715 l 1,5,-1
 127 815 l 1,6,-1
 324 815 l 1,7,-1
 414 1237 l 2,8,9
 422 1275 422 1275 422 1294 c 0,10,11
 422 1376 422 1376 274 1376 c 2,12,-1
 248 1376 l 1,13,-1
 266 1462 l 1,14,-1
 881 1462 l 2,15,16
 1160 1462 1160 1462 1311 1317.5 c 128,-1,17
 1462 1173 1462 1173 1462 905 c 0,18,19
 1462 513 1462 513 1239 256.5 c 128,-1,20
 1016 0 1016 0 643 0 c 2,21,-1
 -43 0 l 1,22,-1
 -27 86 l 1,0,-1
598 104 m 2,23,24
 892 104 892 104 1065.5 330 c 128,-1,25
 1239 556 1239 556 1239 928 c 0,26,27
 1239 1360 1239 1360 850 1360 c 2,28,-1
 647 1360 l 1,29,-1
 530 815 l 1,30,-1
 918 815 l 1,31,-1
 895 715 l 1,32,-1
 508 715 l 1,33,-1
 379 104 l 1,34,-1
 598 104 l 2,23,24
EndSplineSet
EndChar

StartChar: multiply
Encoding: 215 215 153
Width: 1145
GlyphClass: 2
Flags: W
LayerCount: 2
Fore
SplineSet
571 647 m 1,0,-1
 231 307 l 1,1,-1
 145 395 l 1,2,-1
 485 735 l 1,3,-1
 145 1073 l 1,4,-1
 231 1159 l 1,5,-1
 571 819 l 1,6,-1
 911 1161 l 1,7,-1
 997 1073 l 1,8,-1
 657 733 l 1,9,-1
 997 393 l 1,10,-1
 911 307 l 1,11,-1
 571 647 l 1,0,-1
EndSplineSet
EndChar

StartChar: Oslash
Encoding: 216 216 154
Width: 1520
GlyphClass: 2
Flags: W
LayerCount: 2
Fore
SplineSet
1217 1409 m 1,0,-1
 1323 1546 l 1,1,-1
 1442 1546 l 1,2,-1
 1292 1352 l 1,3,4
 1456 1200 1456 1200 1456 922 c 0,5,6
 1456 571 1456 571 1228 274 c 128,-1,7
 1000 -23 1000 -23 643 -23 c 0,8,9
 478 -23 478 -23 354 51 c 1,10,-1
 258 -82 l 1,11,-1
 137 -82 l 1,12,-1
 274 109 l 1,13,14
 106 265 106 265 106 545 c 0,15,16
 106 897 106 897 336 1191 c 128,-1,17
 566 1485 566 1485 926 1485 c 0,18,19
 1091 1485 1091 1485 1217 1409 c 1,0,-1
379 250 m 1,20,-1
 1130 1288 l 1,21,22
 1046 1374 1046 1374 909 1374 c 0,23,24
 653 1374 653 1374 491.5 1090.5 c 128,-1,25
 330 807 330 807 330 487 c 0,26,27
 330 348 330 348 379 250 c 1,20,-1
1188 1204 m 1,28,-1
 438 168 l 1,29,30
 524 90 524 90 655 90 c 0,31,32
 910 90 910 90 1070.5 372.5 c 128,-1,33
 1231 655 1231 655 1231 977 c 0,34,35
 1231 1106 1231 1106 1188 1204 c 1,28,-1
EndSplineSet
EndChar

StartChar: Thorn
Encoding: 222 222 160
Width: 1237
GlyphClass: 2
Flags: W
LayerCount: 2
Fore
SplineSet
-41 0 m 1,0,-1
 -23 86 l 1,1,-1
 4 86 l 2,2,3
 100 86 100 86 143 123 c 128,-1,4
 186 160 186 160 201 233 c 2,5,-1
 414 1237 l 2,6,7
 422 1275 422 1275 422 1294 c 0,8,9
 422 1376 422 1376 274 1376 c 2,10,-1
 248 1376 l 1,11,-1
 266 1462 l 1,12,-1
 883 1462 l 1,13,-1
 864 1376 l 1,14,-1
 817 1376 l 2,15,16
 714 1376 714 1376 673 1337.5 c 128,-1,17
 632 1299 632 1299 618 1229 c 2,18,-1
 614 1208 l 1,19,-1
 735 1208 l 2,20,21
 957 1208 957 1208 1079.5 1105 c 128,-1,22
 1202 1002 1202 1002 1202 813 c 0,23,24
 1202 580 1202 580 1044.5 447.5 c 128,-1,25
 887 315 887 315 575 315 c 2,26,-1
 424 315 l 1,27,-1
 406 225 l 2,28,29
 397 180 397 180 397 168 c 0,30,31
 397 86 397 86 545 86 c 2,32,-1
 592 86 l 1,33,-1
 573 0 l 1,34,-1
 -41 0 l 1,0,-1
444 412 m 1,35,-1
 553 412 l 2,36,37
 985 412 985 412 985 811 c 0,38,39
 985 1110 985 1110 686 1110 c 2,40,-1
 592 1110 l 1,41,-1
 444 412 l 1,35,-1
EndSplineSet
EndChar

StartChar: germandbls
Encoding: 223 223 161
Width: 1284
GlyphClass: 2
Flags: W
LayerCount: 2
Fore
SplineSet
-279 -475 m 1,0,-1
 -260 -381 l 1,1,2
 -209 -395 -209 -395 -166 -395 c 0,3,4
 -64 -395 -64 -395 -7 -307.5 c 128,-1,5
 50 -220 50 -220 92 -18 c 2,6,-1
 309 1001 l 1,7,-1
 143 1001 l 1,8,-1
 164 1098 l 1,9,-1
 330 1098 l 1,10,-1
 344 1159 l 2,11,12
 438 1567 438 1567 856 1567 c 0,13,14
 1229 1567 1229 1567 1229 1253 c 0,15,16
 1229 1144 1229 1144 1200 1006 c 1,17,-1
 1024 1006 l 2,18,19
 799 1006 799 1006 799 838 c 0,20,21
 799 768 799 768 843.5 721 c 128,-1,22
 888 674 888 674 969 627 c 0,23,24
 1161 514 1161 514 1161 319 c 0,25,26
 1161 157 1161 157 1059.5 68.5 c 128,-1,27
 958 -20 958 -20 766 -20 c 0,28,29
 621 -20 621 -20 538 35.5 c 128,-1,30
 455 91 455 91 455 188 c 0,31,32
 455 248 455 248 498.5 285 c 128,-1,33
 542 322 542 322 608 322 c 1,34,35
 608 78 608 78 780 78 c 0,36,37
 871 78 871 78 926 130.5 c 128,-1,38
 981 183 981 183 981 272 c 0,39,40
 981 410 981 410 825 502 c 1,41,42
 621 628 621 628 621 795 c 0,43,44
 621 1102 621 1102 1028 1102 c 1,45,46
 1051 1205 1051 1205 1051 1272 c 0,47,48
 1051 1475 1051 1475 850 1475 c 0,49,50
 607 1475 607 1475 543 1188 c 1,51,-1
 285 -16 l 2,52,53
 231 -266 231 -266 128.5 -379 c 128,-1,54
 26 -492 26 -492 -160 -492 c 0,55,56
 -218 -492 -218 -492 -279 -475 c 1,0,-1
EndSplineSet
EndChar

StartChar: ae
Encoding: 230 230 168
Width: 1665
GlyphClass: 2
Flags: W
LayerCount: 2
Fore
SplineSet
1477 256 m 1,0,1
 1497 242 1497 242 1497 205 c 0,2,3
 1497 121 1497 121 1400.5 50.5 c 128,-1,4
 1304 -20 1304 -20 1143 -20 c 0,5,6
 1002 -20 1002 -20 900 55 c 128,-1,7
 798 130 798 130 764 274 c 1,8,9
 648 -20 648 -20 397 -20 c 0,10,11
 257 -20 257 -20 172.5 88 c 128,-1,12
 88 196 88 196 88 387 c 0,13,14
 88 665 88 665 252.5 891.5 c 128,-1,15
 417 1118 417 1118 686 1118 c 0,16,17
 847 1118 847 1118 999 991 c 1,18,19
 1152 1118 1152 1118 1354 1118 c 0,20,21
 1484 1118 1484 1118 1555 1056 c 128,-1,22
 1626 994 1626 994 1626 883 c 0,23,24
 1626 717 1626 717 1453.5 594 c 128,-1,25
 1281 471 1281 471 1032 471 c 2,26,-1
 997 471 l 2,27,28
 979 471 979 471 961 473 c 1,29,30
 956 448 956 448 956 387 c 0,31,32
 956 109 956 109 1182 109 c 0,33,34
 1353 109 1353 109 1477 256 c 1,0,1
905 893 m 1,35,36
 808 1026 808 1026 696 1026 c 0,37,38
 523 1026 523 1026 410 809 c 128,-1,39
 297 592 297 592 297 365 c 0,40,41
 297 243 297 243 342.5 176 c 128,-1,42
 388 109 388 109 469 109 c 0,43,44
 571 109 571 109 646 208 c 128,-1,45
 721 307 721 307 750 475 c 1,46,47
 788 708 788 708 905 893 c 1,35,36
979 567 m 1,48,-1
 999 567 l 2,49,50
 1180 567 1180 567 1297.5 655 c 128,-1,51
 1415 743 1415 743 1415 883 c 0,52,53
 1415 1020 1415 1020 1296 1020 c 0,54,55
 1196 1020 1196 1020 1109.5 892.5 c 128,-1,56
 1023 765 1023 765 979 567 c 1,48,-1
EndSplineSet
EndChar

StartChar: eth
Encoding: 240 240 178
Width: 1182
GlyphClass: 2
Flags: W
LayerCount: 2
Fore
SplineSet
877 983 m 1,0,1
 832 1168 832 1168 733 1274 c 1,2,-1
 440 1124 l 1,3,-1
 465 1239 l 1,4,-1
 664 1341 l 1,5,6
 575 1409 575 1409 438 1456 c 1,7,-1
 473 1559 l 1,8,9
 657 1512 657 1512 797 1407 c 1,10,-1
 1094 1561 l 1,11,-1
 1067 1444 l 1,12,-1
 866 1341 l 1,13,14
 968 1240 968 1240 1027.5 1079 c 128,-1,15
 1087 918 1087 918 1087 741 c 0,16,17
 1087 393 1087 393 925.5 180 c 128,-1,18
 764 -33 764 -33 481 -33 c 0,19,20
 301 -33 301 -33 194.5 73.5 c 128,-1,21
 88 180 88 180 88 369 c 0,22,23
 88 623 88 623 256 830.5 c 128,-1,24
 424 1038 424 1038 698 1038 c 0,25,26
 807 1038 807 1038 877 983 c 1,0,1
504 68 m 0,27,28
 673 68 673 68 773.5 254.5 c 128,-1,29
 874 441 874 441 874 664 c 0,30,31
 874 932 874 932 674 932 c 0,32,33
 506 932 506 932 403.5 745.5 c 128,-1,34
 301 559 301 559 301 336 c 0,35,36
 301 68 301 68 504 68 c 0,27,28
EndSplineSet
EndChar

StartChar: divide
Encoding: 247 247 185
Width: 1145
GlyphClass: 2
Flags: W
LayerCount: 2
Fore
SplineSet
590 1233 m 0,0,1
 694 1233 694 1233 694 1120 c 0,2,3
 694 1008 694 1008 590 1008 c 0,4,5
 485 1008 485 1008 485 1120 c 0,6,7
 485 1233 485 1233 590 1233 c 0,0,1
1028 672 m 1,8,-1
 150 672 l 1,9,-1
 150 793 l 1,10,-1
 1028 793 l 1,11,-1
 1028 672 l 1,8,-1
590 457 m 0,12,13
 694 457 694 457 694 344 c 256,14,15
 694 231 694 231 590 231 c 0,16,17
 485 231 485 231 485 344 c 256,18,19
 485 457 485 457 590 457 c 0,12,13
EndSplineSet
EndChar

StartChar: oslash
Encoding: 248 248 186
Width: 1182
GlyphClass: 2
Flags: W
LayerCount: 2
Fore
SplineSet
942 1044 m 1,0,-1
 1057 1180 l 1,1,-1
 1176 1180 l 1,2,-1
 1010 977 l 1,3,4
 1087 871 1087 871 1087 694 c 0,5,6
 1087 419 1087 419 920 197 c 128,-1,7
 753 -25 753 -25 481 -25 c 0,8,9
 340 -25 340 -25 238 47 c 1,10,-1
 131 -82 l 1,11,-1
 10 -82 l 1,12,-1
 172 113 l 1,13,14
 88 223 88 223 88 403 c 0,15,16
 88 679 88 679 256.5 898.5 c 128,-1,17
 425 1118 425 1118 698 1118 c 0,18,19
 847 1118 847 1118 942 1044 c 1,0,-1
305 274 m 1,20,-1
 838 918 l 1,21,22
 789 1010 789 1010 674 1010 c 0,23,24
 507 1010 507 1010 404 809 c 128,-1,25
 301 608 301 608 301 362 c 0,26,27
 301 297 301 297 305 274 c 1,20,-1
868 809 m 1,28,-1
 338 168 l 1,29,30
 384 76 384 76 504 76 c 0,31,32
 672 76 672 76 773 277.5 c 128,-1,33
 874 479 874 479 874 725 c 0,34,35
 874 769 874 769 868 809 c 1,28,-1
EndSplineSet
EndChar

StartChar: thorn
Encoding: 254 254 192
Width: 1151
GlyphClass: 2
Flags: W
LayerCount: 2
Fore
SplineSet
248 27 m 1,0,1
 239 -51 239 -51 233 -72 c 1,2,-1
 202 -223 l 1,3,4
 188 -281 188 -281 188 -317 c 0,5,6
 188 -406 188 -406 332 -406 c 2,7,-1
 358 -406 l 1,8,-1
 340 -492 l 1,9,-1
 -49 -492 l 1,10,-1
 324 1266 l 2,11,12
 342 1351 342 1351 342 1374 c 0,13,14
 342 1470 342 1470 199 1470 c 2,15,-1
 182 1470 l 1,16,-1
 201 1556 l 1,17,-1
 578 1556 l 1,18,-1
 473 1065 l 2,19,20
 456 986 456 986 412 825 c 1,21,-1
 424 825 l 1,22,23
 572 1118 572 1118 799 1118 c 0,24,25
 924 1118 924 1118 993.5 1023 c 128,-1,26
 1063 928 1063 928 1063 748 c 0,27,28
 1063 473 1063 473 890 226.5 c 128,-1,29
 717 -20 717 -20 451 -20 c 0,30,31
 331 -20 331 -20 248 27 c 1,0,1
281 145 m 1,32,33
 346 72 346 72 444 72 c 0,34,35
 615 72 615 72 734.5 295 c 128,-1,36
 854 518 854 518 854 750 c 0,37,38
 854 863 854 863 818.5 926 c 128,-1,39
 783 989 783 989 721 989 c 0,40,41
 614 989 614 989 505 838.5 c 128,-1,42
 396 688 396 688 365 535 c 1,43,-1
 281 145 l 1,32,33
EndSplineSet
EndChar

StartChar: dcroat
Encoding: 273 273 211
Width: 1182
GlyphClass: 2
Flags: W
LayerCount: 2
Fore
SplineSet
723 190 m 1,0,-1
 713 190 l 1,1,2
 634 60 634 60 564 20 c 128,-1,3
 494 -20 494 -20 397 -20 c 0,4,5
 255 -20 255 -20 171.5 85.5 c 128,-1,6
 88 191 88 191 88 373 c 0,7,8
 88 638 88 638 250 857.5 c 128,-1,9
 412 1077 412 1077 676 1077 c 0,10,11
 778 1077 778 1077 868 1030 c 1,12,13
 871 1047 871 1047 876 1067 c 2,14,-1
 884 1107 l 2,15,16
 890 1137 890 1137 899 1176 c 2,17,-1
 907 1214 l 1,18,-1
 557 1214 l 1,19,-1
 575 1311 l 1,20,-1
 928 1311 l 1,21,-1
 932 1331 l 2,22,23
 937 1355 937 1355 937 1374 c 0,24,25
 937 1470 937 1470 793 1470 c 2,26,-1
 776 1470 l 1,27,-1
 795 1556 l 1,28,-1
 1171 1556 l 1,29,-1
 1118 1311 l 1,30,-1
 1305 1311 l 1,31,-1
 1286 1214 l 1,32,-1
 1098 1214 l 1,33,-1
 934 440 l 2,34,35
 903 294 903 294 903 213 c 0,36,37
 903 109 903 109 971 109 c 0,38,39
 1037 109 1037 109 1118 162 c 1,40,-1
 1155 102 l 1,41,42
 1013 -20 1013 -20 879 -20 c 0,43,44
 733 -20 733 -20 723 190 c 1,0,-1
842 920 m 1,45,46
 785 985 785 985 686 985 c 0,47,48
 518 985 518 985 407.5 774.5 c 128,-1,49
 297 564 297 564 297 352 c 0,50,51
 297 109 297 109 469 109 c 0,52,53
 570 109 570 109 641 195.5 c 128,-1,54
 712 282 712 282 739 416 c 2,55,-1
 842 920 l 1,45,46
EndSplineSet
EndChar

StartChar: Hbar
Encoding: 294 294 232
Width: 1624
GlyphClass: 2
Flags: W
LayerCount: 2
Fore
SplineSet
829 0 m 1,0,-1
 846 86 l 1,1,-1
 872 86 l 2,2,3
 969 86 969 86 1012.5 122 c 128,-1,4
 1056 158 1056 158 1073 233 c 1,5,-1
 1174 713 l 1,6,-1
 508 713 l 1,7,-1
 406 225 l 2,8,9
 397 182 397 182 397 168 c 0,10,11
 397 86 397 86 545 86 c 2,12,-1
 571 86 l 1,13,-1
 553 0 l 1,14,-1
 -43 0 l 1,15,-1
 -27 86 l 1,16,-1
 0 86 l 2,17,18
 99 86 99 86 142 123.5 c 128,-1,19
 185 161 185 161 201 233 c 2,20,-1
 367 1022 l 1,21,-1
 174 1022 l 1,22,-1
 193 1122 l 1,23,-1
 389 1122 l 1,24,-1
 414 1237 l 2,25,26
 422 1274 422 1274 422 1294 c 0,27,28
 422 1376 422 1376 274 1376 c 2,29,-1
 248 1376 l 1,30,-1
 266 1462 l 1,31,-1
 862 1462 l 1,32,-1
 844 1376 l 1,33,-1
 817 1376 l 2,34,35
 719 1376 719 1376 676 1339 c 128,-1,36
 633 1302 633 1302 618 1229 c 2,37,-1
 596 1122 l 1,38,-1
 1262 1122 l 1,39,-1
 1286 1237 l 2,40,41
 1294 1275 1294 1275 1294 1294 c 0,42,43
 1294 1376 1294 1376 1147 1376 c 2,44,-1
 1120 1376 l 1,45,-1
 1139 1462 l 1,46,-1
 1735 1462 l 1,47,-1
 1716 1376 l 1,48,-1
 1690 1376 l 2,49,50
 1592 1376 1592 1376 1549 1338.5 c 128,-1,51
 1506 1301 1506 1301 1491 1229 c 2,52,-1
 1468 1122 l 1,53,-1
 1661 1122 l 1,54,-1
 1642 1022 l 1,55,-1
 1446 1022 l 1,56,-1
 1278 225 l 2,57,58
 1270 187 1270 187 1270 168 c 0,59,60
 1270 86 1270 86 1417 86 c 2,61,-1
 1444 86 l 1,62,-1
 1425 0 l 1,63,-1
 829 0 l 1,0,-1
1196 815 m 1,64,-1
 1239 1022 l 1,65,-1
 573 1022 l 1,66,-1
 530 815 l 1,67,-1
 1196 815 l 1,64,-1
EndSplineSet
EndChar

StartChar: hbar
Encoding: 295 295 233
Width: 1227
GlyphClass: 2
Flags: W
LayerCount: 2
Fore
SplineSet
463 799 m 1,0,1
 628 1075 628 1075 842 1075 c 0,2,3
 1061 1075 1061 1075 1061 848 c 0,4,5
 1061 792 1061 792 1036 678 c 0,6,7
 1029 649 1029 649 1024 623 c 2,8,-1
 979 422 l 2,9,10
 952 301 952 301 952 207 c 0,11,12
 952 109 952 109 1024 109 c 0,13,14
 1083 109 1083 109 1155 156 c 1,15,-1
 1192 96 l 1,16,17
 1058 -20 1058 -20 942 -20 c 0,18,19
 857 -20 857 -20 806.5 35 c 128,-1,20
 756 90 756 90 756 184 c 256,21,22
 756 278 756 278 795 461 c 1,23,-1
 834 632 l 1,24,25
 864 756 864 756 864 823 c 0,26,27
 864 944 864 944 770 944 c 0,28,29
 656 944 656 944 535.5 788.5 c 128,-1,30
 415 633 415 633 383 483 c 2,31,-1
 281 0 l 1,32,-1
 90 0 l 1,33,-1
 344 1214 l 1,34,-1
 160 1214 l 1,35,-1
 178 1311 l 1,36,-1
 365 1311 l 1,37,38
 375 1357 375 1357 375 1374 c 0,39,40
 375 1470 375 1470 231 1470 c 2,41,-1
 215 1470 l 1,42,-1
 233 1556 l 1,43,-1
 610 1556 l 1,44,-1
 557 1311 l 1,45,-1
 907 1311 l 1,46,-1
 889 1214 l 1,47,-1
 537 1214 l 1,48,-1
 530 1180 l 2,49,50
 479 932 479 932 440 799 c 1,51,-1
 463 799 l 1,0,1
EndSplineSet
EndChar

StartChar: dotlessi
Encoding: 305 305 243
Width: 623
GlyphClass: 2
Flags: W
LayerCount: 2
Fore
SplineSet
127 1012 m 1,0,-1
 145 1098 l 1,1,-1
 512 1098 l 1,2,-1
 373 440 l 2,3,4
 342 293 342 293 342 213 c 0,5,6
 342 109 342 109 410 109 c 0,7,8
 469 109 469 109 557 162 c 1,9,-1
 594 102 l 1,10,11
 452 -20 452 -20 317 -20 c 0,12,13
 241 -20 241 -20 194 35 c 128,-1,14
 147 90 147 90 147 174 c 0,15,16
 147 266 147 266 193 496 c 1,17,-1
 272 872 l 2,18,19
 279 905 279 905 279 926 c 0,20,21
 279 1012 279 1012 154 1012 c 2,22,-1
 127 1012 l 1,0,-1
EndSplineSet
EndChar

StartChar: kgreenlandic
Encoding: 312 312 250
Width: 1165
GlyphClass: 2
Flags: W
LayerCount: 2
Fore
SplineSet
694 786 m 2,0,1
 845 917 845 917 845 979 c 0,2,3
 845 1010 845 1010 754 1010 c 1,4,-1
 772 1096 l 1,5,-1
 1225 1096 l 1,6,-1
 1206 1010 l 1,7,8
 1087 1010 1087 1010 877 819 c 1,9,-1
 692 649 l 1,10,-1
 879 244 l 2,11,12
 958 72 958 72 1087 72 c 1,13,-1
 1069 -14 l 1,14,15
 891 -14 891 -14 812.5 29 c 128,-1,16
 734 72 734 72 684 197 c 2,17,-1
 551 524 l 1,18,-1
 365 406 l 1,19,-1
 281 0 l 1,20,-1
 90 0 l 1,21,-1
 260 807 l 2,22,23
 279 897 279 897 279 915 c 0,24,25
 279 1012 279 1012 135 1012 c 2,26,-1
 119 1012 l 1,27,-1
 137 1098 l 1,28,-1
 514 1098 l 1,29,-1
 459 844 l 2,30,31
 420 662 420 662 371 506 c 1,32,-1
 694 786 l 2,0,1
EndSplineSet
EndChar

StartChar: Lslash
Encoding: 321 321 259
Width: 1276
GlyphClass: 2
Flags: W
LayerCount: 2
Fore
SplineSet
-23 86 m 1,0,-1
 4 86 l 2,1,2
 100 86 100 86 142 123.5 c 128,-1,3
 184 161 184 161 201 233 c 1,4,-1
 274 582 l 1,5,-1
 53 469 l 1,6,-1
 78 584 l 1,7,-1
 299 696 l 1,8,-1
 414 1237 l 2,9,10
 422 1275 422 1275 422 1294 c 0,11,12
 422 1376 422 1376 274 1376 c 2,13,-1
 248 1376 l 1,14,-1
 266 1462 l 1,15,-1
 862 1462 l 1,16,-1
 844 1376 l 1,17,-1
 817 1376 l 2,18,19
 719 1376 719 1376 678 1339.5 c 128,-1,20
 637 1303 637 1303 621 1237 c 1,21,-1
 530 815 l 1,22,-1
 887 1001 l 1,23,-1
 862 883 l 1,24,-1
 506 698 l 1,25,-1
 379 102 l 1,26,-1
 782 102 l 2,27,28
 939 102 939 102 1001 287 c 1,29,-1
 1055 440 l 1,30,-1
 1161 440 l 1,31,-1
 1055 0 l 1,32,-1
 -41 0 l 1,33,-1
 -23 86 l 1,0,-1
EndSplineSet
EndChar

StartChar: lslash
Encoding: 322 322 260
Width: 664
GlyphClass: 2
Flags: W
LayerCount: 2
Fore
SplineSet
209 565 m 1,0,-1
 16 469 l 1,1,-1
 41 584 l 1,2,-1
 233 684 l 1,3,-1
 373 1331 l 2,4,5
 379 1357 379 1357 379 1376 c 0,6,7
 379 1470 379 1470 233 1470 c 2,8,-1
 207 1470 l 1,9,-1
 225 1556 l 1,10,-1
 612 1556 l 1,11,-1
 449 793 l 1,12,-1
 668 905 l 1,13,-1
 643 786 l 1,14,-1
 424 676 l 1,15,-1
 375 440 l 2,16,17
 344 291 344 291 344 213 c 0,18,19
 344 109 344 109 412 109 c 0,20,21
 471 109 471 109 559 162 c 1,22,-1
 596 102 l 1,23,24
 454 -20 454 -20 319 -20 c 0,25,26
 245 -20 245 -20 197.5 34 c 128,-1,27
 150 88 150 88 150 174 c 0,28,29
 150 271 150 271 195 496 c 2,30,-1
 209 565 l 1,0,-1
EndSplineSet
EndChar

StartChar: Eng
Encoding: 330 330 268
Width: 1624
GlyphClass: 2
Flags: W
LayerCount: 2
Fore
SplineSet
1389 1237 m 2,0,1
 1397 1275 1397 1275 1397 1294 c 0,2,3
 1397 1376 1397 1376 1249 1376 c 2,4,-1
 1223 1376 l 1,5,-1
 1241 1462 l 1,6,-1
 1755 1462 l 1,7,-1
 1737 1376 l 1,8,-1
 1710 1376 l 2,9,10
 1612 1376 1612 1376 1569 1339 c 128,-1,11
 1526 1302 1526 1302 1511 1229 c 2,12,-1
 1247 -16 l 2,13,14
 1193 -271 1193 -271 1083.5 -381.5 c 128,-1,15
 974 -492 974 -492 784 -492 c 0,16,17
 705 -492 705 -492 639 -469 c 1,18,-1
 664 -377 l 1,19,20
 715 -395 715 -395 776 -395 c 0,21,22
 898 -395 898 -395 991 -297 c 128,-1,23
 1084 -199 1084 -199 1124 -12 c 1,24,-1
 530 1200 l 1,25,-1
 324 225 l 2,26,27
 315 182 315 182 315 168 c 0,28,29
 315 86 315 86 463 86 c 2,30,-1
 489 86 l 1,31,-1
 471 0 l 1,32,-1
 -41 0 l 1,33,-1
 -23 86 l 1,34,-1
 4 86 l 2,35,36
 100 86 100 86 142 123.5 c 128,-1,37
 184 161 184 161 201 233 c 1,38,-1
 414 1237 l 2,39,40
 422 1275 422 1275 422 1294 c 0,41,42
 422 1376 422 1376 274 1376 c 2,43,-1
 248 1376 l 1,44,-1
 266 1462 l 1,45,-1
 627 1462 l 1,46,-1
 1192 309 l 1,47,-1
 1389 1237 l 2,0,1
EndSplineSet
EndChar

StartChar: eng
Encoding: 331 331 269
Width: 1151
GlyphClass: 2
Flags: W
LayerCount: 2
Fore
SplineSet
322 -475 m 1,0,-1
 340 -381 l 1,1,2
 391 -395 391 -395 434 -395 c 0,3,4
 537 -395 537 -395 595.5 -303.5 c 128,-1,5
 654 -212 654 -212 694 -16 c 1,6,-1
 829 614 l 2,7,8
 872 815 872 815 872 864 c 0,9,10
 872 985 872 985 778 985 c 0,11,12
 664 985 664 985 544.5 831 c 128,-1,13
 425 677 425 677 391 524 c 1,14,-1
 281 0 l 1,15,-1
 90 0 l 1,16,-1
 262 823 l 2,17,18
 274 880 274 880 274 915 c 0,19,20
 274 1012 274 1012 131 1012 c 2,21,-1
 115 1012 l 1,22,-1
 133 1098 l 1,23,-1
 512 1098 l 1,24,-1
 457 840 l 1,25,-1
 477 840 l 1,26,27
 645 1116 645 1116 850 1116 c 0,28,29
 1069 1116 1069 1116 1069 889 c 0,30,31
 1069 817 1069 817 1032 657 c 1,32,-1
 887 -16 l 2,33,34
 833 -265 833 -265 730 -378.5 c 128,-1,35
 627 -492 627 -492 440 -492 c 0,36,37
 383 -492 383 -492 322 -475 c 1,0,-1
EndSplineSet
EndChar

StartChar: OE
Encoding: 338 338 276
Width: 1970
GlyphClass: 2
Flags: W
LayerCount: 2
Fore
SplineSet
1073 102 m 1,0,-1
 1468 102 l 2,1,2
 1641 102 1641 102 1700 270 c 1,3,-1
 1733 358 l 1,4,-1
 1839 358 l 1,5,-1
 1749 0 l 1,6,-1
 868 0 l 1,7,-1
 799 -12 l 1,8,9
 719 -23 719 -23 643 -23 c 0,10,11
 400 -23 400 -23 253 130.5 c 128,-1,12
 106 284 106 284 106 545 c 0,13,14
 106 897 106 897 336 1191 c 128,-1,15
 566 1485 566 1485 926 1485 c 0,16,17
 1028 1485 1028 1485 1143 1462 c 1,18,-1
 1993 1462 l 1,19,-1
 1927 1104 l 1,20,-1
 1821 1104 l 1,21,22
 1831 1174 1831 1174 1831 1223 c 0,23,24
 1831 1356 1831 1356 1686 1360 c 1,25,-1
 1341 1360 l 1,26,-1
 1225 815 l 1,27,-1
 1718 815 l 1,28,-1
 1698 715 l 1,29,-1
 1204 715 l 1,30,-1
 1073 102 l 1,0,-1
872 125 m 1,31,-1
 1128 1333 l 1,32,33
 1015 1374 1015 1374 909 1374 c 0,34,35
 653 1374 653 1374 491.5 1090.5 c 128,-1,36
 330 807 330 807 330 487 c 0,37,38
 330 295 330 295 417 192.5 c 128,-1,39
 504 90 504 90 655 90 c 0,40,41
 790 90 790 90 872 125 c 1,31,-1
EndSplineSet
EndChar

StartChar: oe
Encoding: 339 339 277
Width: 1767
GlyphClass: 2
Flags: W
LayerCount: 2
Fore
SplineSet
1579 256 m 1,0,1
 1599 242 1599 242 1599 205 c 0,2,3
 1599 121 1599 121 1502.5 50.5 c 128,-1,4
 1406 -20 1406 -20 1245 -20 c 0,5,6
 1006 -20 1006 -20 901 166 c 1,7,8
 732 -33 732 -33 481 -33 c 0,9,10
 299 -33 299 -33 193.5 84 c 128,-1,11
 88 201 88 201 88 403 c 0,12,13
 88 680 88 680 256.5 904 c 128,-1,14
 425 1128 425 1128 698 1128 c 0,15,16
 946 1128 946 1128 1042 924 c 1,17,18
 1215 1118 1215 1118 1456 1118 c 0,19,20
 1586 1118 1586 1118 1657.5 1056 c 128,-1,21
 1729 994 1729 994 1729 883 c 0,22,23
 1729 791 1729 791 1668 702 c 128,-1,24
 1607 613 1607 613 1497.5 556.5 c 128,-1,25
 1388 500 1388 500 1303.5 486.5 c 128,-1,26
 1219 473 1219 473 1063 473 c 1,27,28
 1057 427 1057 427 1057 387 c 0,29,30
 1057 109 1057 109 1284 109 c 0,31,32
 1459 109 1459 109 1579 256 c 1,0,1
504 68 m 0,33,34
 672 68 672 68 773 273 c 128,-1,35
 874 478 874 478 874 725 c 0,36,37
 874 1020 874 1020 674 1020 c 0,38,39
 507 1020 507 1020 404 814.5 c 128,-1,40
 301 609 301 609 301 362 c 0,41,42
 301 68 301 68 504 68 c 0,33,34
1081 567 m 1,43,-1
 1102 567 l 2,44,45
 1283 567 1283 567 1400.5 656 c 128,-1,46
 1518 745 1518 745 1518 883 c 0,47,48
 1518 1020 1518 1020 1399 1020 c 0,49,50
 1299 1020 1299 1020 1212.5 893.5 c 128,-1,51
 1126 767 1126 767 1081 567 c 1,43,-1
EndSplineSet
EndChar

StartChar: Tbar
Encoding: 358 358 296
Width: 1255
GlyphClass: 2
Flags: W
LayerCount: 2
Fore
SplineSet
774 772 m 1,0,-1
 1118 772 l 1,1,-1
 1100 672 l 1,2,-1
 752 672 l 1,3,-1
 657 225 l 2,4,5
 649 187 649 187 649 168 c 0,6,7
 649 86 649 86 797 86 c 2,8,-1
 844 86 l 1,9,-1
 825 0 l 1,10,-1
 188 0 l 1,11,-1
 207 86 l 1,12,-1
 254 86 l 2,13,14
 350 86 350 86 391 119.5 c 128,-1,15
 432 153 432 153 451 223 c 1,16,-1
 545 672 l 1,17,-1
 205 672 l 1,18,-1
 223 772 l 1,19,-1
 567 772 l 1,20,-1
 692 1360 l 1,21,-1
 496 1360 l 2,22,23
 350 1360 350 1360 291 1192 c 1,24,-1
 262 1104 l 1,25,-1
 156 1104 l 1,26,-1
 242 1462 l 1,27,-1
 1395 1462 l 1,28,-1
 1329 1104 l 1,29,-1
 1223 1104 l 1,30,31
 1233 1184 1233 1184 1233 1229 c 0,32,33
 1233 1357 1233 1357 1098 1360 c 1,34,-1
 899 1360 l 1,35,-1
 774 772 l 1,0,-1
EndSplineSet
EndChar

StartChar: tbar
Encoding: 359 359 297
Width: 754
GlyphClass: 2
Flags: W
LayerCount: 2
Fore
SplineSet
616 154 m 1,0,-1
 651 78 l 1,1,2
 513 -20 513 -20 375 -20 c 0,3,4
 152 -20 152 -20 152 219 c 0,5,6
 152 302 152 302 172 391 c 1,7,-1
 215 596 l 1,8,-1
 76 596 l 1,9,-1
 94 692 l 1,10,-1
 236 692 l 1,11,-1
 297 981 l 1,12,-1
 141 981 l 1,13,-1
 160 1063 l 1,14,15
 360 1063 360 1063 473 1350 c 1,16,-1
 567 1350 l 1,17,-1
 514 1098 l 1,18,-1
 762 1098 l 1,19,-1
 737 981 l 1,20,-1
 489 981 l 1,21,-1
 428 692 l 1,22,-1
 674 692 l 1,23,-1
 655 596 l 1,24,-1
 408 596 l 1,25,-1
 365 397 l 2,26,27
 340 281 340 281 340 221 c 0,28,29
 340 109 340 109 449 109 c 0,30,31
 532 109 532 109 616 154 c 1,0,-1
EndSplineSet
EndChar

StartChar: longs
Encoding: 383 383 321
Width: 614
GlyphClass: 2
Flags: W
LayerCount: 2
Fore
SplineSet
-287 -475 m 1,0,-1
 -268 -381 l 1,1,2
 -217 -395 -217 -395 -174 -395 c 0,3,4
 -72 -395 -72 -395 -15 -307.5 c 128,-1,5
 42 -220 42 -220 84 -18 c 2,6,-1
 344 1210 l 2,7,8
 422 1577 422 1577 733 1577 c 0,9,10
 864 1577 864 1577 930.5 1535.5 c 128,-1,11
 997 1494 997 1494 997 1425 c 0,12,13
 997 1292 997 1292 827 1292 c 1,14,15
 827 1483 827 1483 723 1483 c 0,16,17
 656 1483 656 1483 614 1428.5 c 128,-1,18
 572 1374 572 1374 541 1229 c 2,19,-1
 276 -16 l 2,20,21
 224 -262 224 -262 122 -377 c 128,-1,22
 20 -492 20 -492 -168 -492 c 0,23,24
 -226 -492 -226 -492 -287 -475 c 1,0,-1
EndSplineSet
EndChar

StartChar: florin
Encoding: 402 402 322
Width: 1145
GlyphClass: 2
Flags: W
LayerCount: 2
Fore
SplineSet
911 815 m 1,0,-1
 643 815 l 1,1,-1
 481 -16 l 2,2,3
 433 -263 433 -263 329 -377.5 c 128,-1,4
 225 -492 225 -492 37 -492 c 0,5,6
 -24 -492 -24 -492 -82 -477 c 1,7,-1
 -63 -381 l 1,8,9
 -3 -395 -3 -395 31 -395 c 0,10,11
 134 -395 134 -395 192 -308 c 128,-1,12
 250 -221 250 -221 289 -18 c 2,13,-1
 451 815 l 1,14,-1
 244 815 l 1,15,-1
 262 911 l 1,16,-1
 469 911 l 1,17,-1
 508 1116 l 2,18,19
 578 1483 578 1483 897 1483 c 0,20,21
 1028 1483 1028 1483 1094.5 1441 c 128,-1,22
 1161 1399 1161 1399 1161 1331 c 0,23,24
 1161 1198 1161 1198 991 1198 c 1,25,26
 991 1389 991 1389 887 1389 c 0,27,28
 811 1389 811 1389 770 1326.5 c 128,-1,29
 729 1264 729 1264 705 1135 c 2,30,-1
 662 911 l 1,31,-1
 930 911 l 1,32,-1
 911 815 l 1,0,-1
EndSplineSet
EndChar

StartChar: Aringacute
Encoding: 506 506 323
Width: 1444
GlyphClass: 2
Flags: W
LayerCount: 2
Fore
SplineSet
887 1720 m 1,0,1
 1001 1827 1001 1827 1106 1962 c 1,2,-1
 1325 1962 l 1,3,-1
 1319 1946 l 1,4,5
 1158 1795 1158 1795 963 1700 c 1,6,-1
 881 1700 l 1,7,-1
 887 1720 l 1,0,1
1018 1229 m 1,8,-1
 1198 184 l 2,9,10
 1208 128 1208 128 1232.5 107 c 128,-1,11
 1257 86 1257 86 1319 86 c 2,12,-1
 1346 86 l 1,13,-1
 1329 0 l 1,14,-1
 772 0 l 1,15,-1
 788 86 l 1,16,-1
 836 86 l 2,17,18
 902 86 902 86 942.5 111.5 c 128,-1,19
 983 137 983 137 983 180 c 0,20,21
 983 218 983 218 979 244 c 2,22,-1
 950 430 l 1,23,-1
 397 430 l 1,24,-1
 285 256 l 2,25,26
 246 195 246 195 246 154 c 0,27,28
 246 86 246 86 360 86 c 2,29,-1
 408 86 l 1,30,-1
 391 0 l 1,31,-1
 -115 0 l 1,32,-1
 -98 86 l 1,33,-1
 -59 86 l 2,34,35
 3 86 3 86 38.5 115.5 c 128,-1,36
 74 145 74 145 131 231 c 2,37,-1
 795 1239 l 1,38,39
 672 1298 672 1298 672 1438 c 0,40,41
 672 1541 672 1541 740 1601 c 128,-1,42
 808 1661 808 1661 918 1661 c 0,43,44
 1027 1661 1027 1661 1095 1601 c 128,-1,45
 1163 1541 1163 1541 1163 1438 c 0,46,47
 1163 1283 1163 1283 1018 1229 c 1,8,-1
905 1315 m 1,48,-1
 918 1315 l 2,49,50
 1053 1315 1053 1315 1053 1438 c 256,51,52
 1053 1561 1053 1561 918 1561 c 0,53,54
 782 1561 782 1561 782 1438 c 0,55,56
 782 1320 782 1320 905 1315 c 1,48,-1
885 852 m 2,57,58
 854 1052 854 1052 848 1147 c 1,59,60
 812 1072 812 1072 733 949 c 2,61,-1
 469 532 l 1,62,-1
 934 532 l 1,63,-1
 885 852 l 2,57,58
EndSplineSet
EndChar

StartChar: aringacute
Encoding: 507 507 324
Width: 1186
GlyphClass: 2
Flags: W
LayerCount: 2
Fore
SplineSet
748 309 m 1,0,-1
 735 309 l 1,1,2
 588 -20 588 -20 352 -20 c 0,3,4
 227 -20 227 -20 157.5 78.5 c 128,-1,5
 88 177 88 177 88 354 c 0,6,7
 88 636 88 636 263.5 877 c 128,-1,8
 439 1118 439 1118 698 1118 c 0,9,10
 837 1118 837 1118 938 1044 c 1,11,-1
 1028 1096 l 1,12,-1
 1094 1096 l 1,13,-1
 954 440 l 2,14,15
 924 299 924 299 924 213 c 0,16,17
 924 109 924 109 991 109 c 0,18,19
 1049 109 1049 109 1139 162 c 1,20,-1
 1176 102 l 1,21,22
 1029 -20 1029 -20 887 -20 c 0,23,24
 727 -20 727 -20 727 150 c 0,25,26
 727 215 727 215 748 309 c 1,0,-1
864 952 m 1,27,28
 817 1026 817 1026 709 1026 c 0,29,30
 534 1026 534 1026 415.5 803.5 c 128,-1,31
 297 581 297 581 297 346 c 0,32,33
 297 109 297 109 426 109 c 0,34,35
 528 109 528 109 640 260 c 128,-1,36
 752 411 752 411 788 590 c 1,37,-1
 864 952 l 1,27,28
1010 1419 m 0,38,39
 1010 1311 1010 1311 938 1253.5 c 128,-1,40
 866 1196 866 1196 764 1196 c 256,41,42
 662 1196 662 1196 590 1253.5 c 128,-1,43
 518 1311 518 1311 518 1419 c 0,44,45
 518 1528 518 1528 590 1585 c 128,-1,46
 662 1642 662 1642 764 1642 c 256,47,48
 866 1642 866 1642 938 1585 c 128,-1,49
 1010 1528 1010 1528 1010 1419 c 0,38,39
899 1419 m 0,50,51
 899 1485 899 1485 859 1513.5 c 128,-1,52
 819 1542 819 1542 764 1542 c 256,53,54
 709 1542 709 1542 669 1513.5 c 128,-1,55
 629 1485 629 1485 629 1419 c 0,56,57
 629 1354 629 1354 669 1325 c 128,-1,58
 709 1296 709 1296 764 1296 c 256,59,60
 819 1296 819 1296 859 1325 c 128,-1,61
 899 1354 899 1354 899 1419 c 0,50,51
723 1720 m 1,62,63
 776 1769 776 1769 835.5 1836 c 128,-1,64
 895 1903 895 1903 942 1962 c 1,65,-1
 1161 1962 l 1,66,-1
 1155 1946 l 1,67,68
 1130 1921 1130 1921 1088.5 1888 c 128,-1,69
 1047 1855 1047 1855 998.5 1820.5 c 128,-1,70
 950 1786 950 1786 898 1754 c 128,-1,71
 846 1722 846 1722 799 1700 c 1,72,-1
 717 1700 l 1,73,-1
 723 1720 l 1,62,63
EndSplineSet
EndChar

StartChar: circumflex
Encoding: 710 710 331
Width: 1182
GlyphClass: 2
Flags: W
LayerCount: 2
Fore
SplineSet
381 1268 m 1,0,1
 567 1451 567 1451 651 1569 c 1,2,-1
 846 1569 l 1,3,4
 875 1452 875 1452 985 1268 c 1,5,-1
 979 1241 l 1,6,-1
 907 1241 l 1,7,8
 812 1306 812 1306 725 1425 c 1,9,10
 575 1298 575 1298 463 1241 c 1,11,-1
 375 1241 l 1,12,-1
 381 1268 l 1,0,1
EndSplineSet
EndChar

StartChar: caron
Encoding: 711 711 332
Width: 1182
GlyphClass: 2
Flags: W
LayerCount: 2
Fore
SplineSet
1085 1542 m 1,0,1
 932 1392 932 1392 815 1241 c 1,2,-1
 621 1241 l 1,3,4
 571 1393 571 1393 481 1542 c 1,5,-1
 487 1569 l 1,6,-1
 561 1569 l 1,7,8
 656 1494 656 1494 735 1382 c 1,9,10
 864 1492 864 1492 1006 1569 c 1,11,-1
 1092 1569 l 1,12,-1
 1085 1542 l 1,0,1
EndSplineSet
EndChar

StartChar: macron
Encoding: 713 713 333
Width: 1024
GlyphClass: 2
Flags: W
LayerCount: 2
Fore
SplineSet
958 1241 m 1,0,-1
 365 1241 l 1,1,-1
 391 1362 l 1,2,-1
 985 1362 l 1,3,-1
 958 1241 l 1,0,-1
EndSplineSet
EndChar

StartChar: breve
Encoding: 728 728 334
Width: 1182
GlyphClass: 2
Flags: W
LayerCount: 2
Fore
SplineSet
317 1522 m 1,0,-1
 412 1522 l 1,1,2
 428 1382 428 1382 590 1382 c 0,3,4
 753 1382 753 1382 811 1522 c 1,5,-1
 905 1522 l 1,6,7
 872 1390 872 1390 783.5 1315.5 c 128,-1,8
 695 1241 695 1241 575 1241 c 0,9,10
 334 1241 334 1241 317 1522 c 1,0,-1
EndSplineSet
EndChar

StartChar: dotaccent
Encoding: 729 729 335
Width: 623
GlyphClass: 2
Flags: W
LayerCount: 2
Fore
SplineSet
459 1303 m 0,0,1
 344 1303 344 1303 344 1415 c 0,2,3
 344 1480 344 1480 377.5 1519.5 c 128,-1,4
 411 1559 411 1559 467 1559 c 0,5,6
 582 1559 582 1559 582 1446 c 0,7,8
 582 1376 582 1376 547.5 1339.5 c 128,-1,9
 513 1303 513 1303 459 1303 c 0,0,1
EndSplineSet
EndChar

StartChar: ring
Encoding: 730 730 336
Width: 682
GlyphClass: 2
Flags: W
LayerCount: 2
Fore
SplineSet
504 1221 m 256,0,1
 397 1221 397 1221 327.5 1280 c 128,-1,2
 258 1339 258 1339 258 1444 c 0,3,4
 258 1548 258 1548 327 1607.5 c 128,-1,5
 396 1667 396 1667 504 1667 c 256,6,7
 612 1667 612 1667 681 1607.5 c 128,-1,8
 750 1548 750 1548 750 1444 c 0,9,10
 750 1339 750 1339 680.5 1280 c 128,-1,11
 611 1221 611 1221 504 1221 c 256,0,1
504 1567 m 256,12,13
 369 1567 369 1567 369 1444 c 256,14,15
 369 1321 369 1321 504 1321 c 256,16,17
 639 1321 639 1321 639 1444 c 256,18,19
 639 1567 639 1567 504 1567 c 256,12,13
EndSplineSet
EndChar

StartChar: ogonek
Encoding: 731 731 337
Width: 1024
GlyphClass: 2
Flags: W
LayerCount: 2
Fore
SplineSet
762 0 m 1,0,1
 653 -36 653 -36 585.5 -104 c 128,-1,2
 518 -172 518 -172 518 -254 c 0,3,4
 518 -305 518 -305 550 -335 c 128,-1,5
 582 -365 582 -365 635 -365 c 0,6,7
 687 -365 687 -365 768 -348 c 1,8,-1
 743 -459 l 1,9,10
 665 -492 665 -492 580 -492 c 0,11,12
 340 -492 340 -492 340 -283 c 0,13,14
 340 -181 340 -181 419.5 -107 c 128,-1,15
 499 -33 499 -33 645 0 c 1,16,-1
 762 0 l 1,0,1
EndSplineSet
EndChar

StartChar: tilde
Encoding: 732 732 338
Width: 1182
GlyphClass: 2
Flags: W
LayerCount: 2
Fore
SplineSet
1028 1483 m 1,0,-1
 1120 1483 l 1,1,2
 1048 1241 1048 1241 854 1241 c 0,3,4
 773 1241 773 1241 685 1306 c 1,5,6
 596 1370 596 1370 559 1370 c 0,7,8
 471 1370 471 1370 436 1262 c 1,9,-1
 344 1262 l 1,10,11
 416 1503 416 1503 612 1503 c 0,12,13
 694 1503 694 1503 781 1439 c 0,14,15
 868 1374 868 1374 905 1374 c 0,16,17
 994 1374 994 1374 1028 1483 c 1,0,-1
EndSplineSet
EndChar

StartChar: hungarumlaut
Encoding: 733 733 339
Width: 1182
GlyphClass: 2
Flags: W
LayerCount: 2
Fore
SplineSet
193 1241 m 1,0,-1
 199 1268 l 1,1,2
 311 1401 311 1401 418 1569 c 1,3,-1
 637 1569 l 1,4,-1
 631 1548 l 1,5,6
 491 1389 491 1389 283 1241 c 1,7,-1
 193 1241 l 1,0,-1
561 1241 m 1,8,-1
 567 1268 l 1,9,10
 673 1389 673 1389 786 1569 c 1,11,-1
 1006 1569 l 1,12,-1
 999 1548 l 2,13,14
 995 1535 995 1535 879.5 1427.5 c 128,-1,15
 764 1320 764 1320 651 1241 c 1,16,-1
 561 1241 l 1,8,-1
EndSplineSet
EndChar

StartChar: tonos
Encoding: 900 900 340
Width: 1182
GlyphClass: 2
Flags: W
LayerCount: 2
Fore
SplineSet
475 1268 m 1,0,1
 575 1435 575 1435 618 1569 c 1,2,-1
 803 1569 l 1,3,-1
 799 1548 l 2,4,5
 796 1530 796 1530 717 1431.5 c 128,-1,6
 638 1333 638 1333 539 1241 c 1,7,-1
 471 1241 l 1,8,-1
 475 1268 l 1,0,1
EndSplineSet
EndChar

StartChar: dieresistonos
Encoding: 901 901 341
Width: 1182
GlyphClass: 2
Flags: W
LayerCount: 2
Fore
SplineSet
518 1415 m 1,0,1
 613 1575 613 1575 662 1716 c 1,2,-1
 846 1716 l 1,3,-1
 842 1696 l 2,4,5
 838 1677 838 1677 761 1580.5 c 128,-1,6
 684 1484 684 1484 582 1389 c 1,7,-1
 514 1389 l 1,8,-1
 518 1415 l 1,0,1
375 1290 m 0,9,10
 283 1290 283 1290 283 1382 c 0,11,12
 283 1497 283 1497 381 1497 c 0,13,14
 473 1497 473 1497 473 1405 c 0,15,16
 473 1290 473 1290 375 1290 c 0,9,10
807 1290 m 0,17,18
 715 1290 715 1290 715 1382 c 0,19,20
 715 1497 715 1497 813 1497 c 0,21,22
 905 1497 905 1497 905 1405 c 0,23,24
 905 1290 905 1290 807 1290 c 0,17,18
EndSplineSet
EndChar

StartChar: Gamma
Encoding: 915 915 353
Width: 1149
GlyphClass: 2
Flags: W
LayerCount: 2
Fore
SplineSet
594 0 m 1,0,-1
 -41 0 l 1,1,-1
 -23 86 l 1,2,-1
 2 86 l 2,3,4
 170 86 170 86 201 233 c 2,5,-1
 412 1229 l 2,6,7
 422 1276 422 1276 422 1294 c 0,8,9
 422 1376 422 1376 274 1376 c 2,10,-1
 248 1376 l 1,11,-1
 266 1462 l 1,12,-1
 1284 1462 l 1,13,-1
 1221 1104 l 1,14,-1
 1114 1104 l 1,15,16
 1124 1192 1124 1192 1124 1223 c 0,17,18
 1124 1302 1124 1302 1083 1331 c 128,-1,19
 1042 1360 1042 1360 956 1360 c 2,20,-1
 647 1360 l 1,21,-1
 406 225 l 2,22,23
 397 183 397 183 397 168 c 0,24,25
 397 86 397 86 545 86 c 2,26,-1
 612 86 l 1,27,-1
 594 0 l 1,0,-1
EndSplineSet
EndChar

StartChar: Theta
Encoding: 920 920 358
Width: 1520
GlyphClass: 2
Flags: W
LayerCount: 2
Fore
SplineSet
926 1485 m 0,0,1
 1164 1485 1164 1485 1310 1337 c 128,-1,2
 1456 1189 1456 1189 1456 922 c 0,3,4
 1456 571 1456 571 1228 274 c 128,-1,5
 1000 -23 1000 -23 643 -23 c 0,6,7
 400 -23 400 -23 253 130.5 c 128,-1,8
 106 284 106 284 106 545 c 0,9,10
 106 897 106 897 336 1191 c 128,-1,11
 566 1485 566 1485 926 1485 c 0,0,1
655 90 m 0,12,13
 910 90 910 90 1070.5 372.5 c 128,-1,14
 1231 655 1231 655 1231 977 c 0,15,16
 1231 1168 1231 1168 1146.5 1271 c 128,-1,17
 1062 1374 1062 1374 909 1374 c 0,18,19
 653 1374 653 1374 491.5 1090.5 c 128,-1,20
 330 807 330 807 330 487 c 0,21,22
 330 295 330 295 417 192.5 c 128,-1,23
 504 90 504 90 655 90 c 0,12,13
612 930 m 1,24,-1
 614 891 l 2,25,26
 617 829 617 829 658.5 813 c 128,-1,27
 700 797 700 797 764 797 c 2,28,-1
 815 797 l 2,29,30
 966 797 966 797 1010 891 c 2,31,-1
 1028 930 l 1,32,-1
 1114 930 l 1,33,-1
 1034 561 l 1,34,-1
 948 561 l 1,35,-1
 946 600 l 2,36,37
 942 685 942 685 793 694 c 1,38,-1
 741 694 l 2,39,40
 655 694 655 694 616.5 672 c 128,-1,41
 578 650 578 650 551 600 c 1,42,-1
 532 561 l 1,43,-1
 446 561 l 1,44,-1
 526 930 l 1,45,-1
 612 930 l 1,24,-1
EndSplineSet
EndChar

StartChar: Lambda
Encoding: 923 923 361
Width: 1382
GlyphClass: 2
Flags: W
LayerCount: 2
Fore
SplineSet
961 1462 m 1,0,-1
 1135 195 l 2,1,2
 1142 142 1142 142 1165 114 c 128,-1,3
 1188 86 1188 86 1257 86 c 2,4,-1
 1284 86 l 1,5,-1
 1266 0 l 1,6,-1
 702 0 l 1,7,-1
 721 86 l 1,8,-1
 768 86 l 2,9,10
 915 86 915 86 915 197 c 0,11,12
 915 236 915 236 911 260 c 2,13,-1
 827 932 l 2,14,15
 807 1092 807 1092 807 1262 c 1,16,17
 746 1119 746 1119 641 932 c 1,18,-1
 276 274 l 2,19,20
 238 205 238 205 238 162 c 0,21,22
 238 86 238 86 354 86 c 2,23,-1
 401 86 l 1,24,-1
 383 0 l 1,25,-1
 -115 0 l 1,26,-1
 -96 86 l 1,27,-1
 -57 86 l 2,28,29
 3 86 3 86 37.5 115.5 c 128,-1,30
 72 145 72 145 129 246 c 2,31,-1
 811 1462 l 1,32,-1
 961 1462 l 1,0,-1
EndSplineSet
EndChar

StartChar: Xi
Encoding: 926 926 364
Width: 1272
GlyphClass: 2
Flags: W
LayerCount: 2
Fore
SplineSet
1233 1083 m 1,0,-1
 1126 1083 l 1,1,2
 1133 1160 1133 1160 1133 1180 c 0,3,4
 1133 1298 1133 1298 991 1298 c 2,5,-1
 588 1298 l 2,6,7
 437 1298 437 1298 383 1145 c 1,8,-1
 362 1083 l 1,9,-1
 256 1083 l 1,10,-1
 346 1462 l 1,11,-1
 1303 1462 l 1,12,-1
 1233 1083 l 1,0,-1
477 948 m 1,13,-1
 479 909 l 2,14,15
 482 857 482 857 516 836 c 128,-1,16
 550 815 550 815 629 815 c 2,17,-1
 741 815 l 2,18,19
 892 815 892 815 936 909 c 2,20,-1
 954 948 l 1,21,-1
 1040 948 l 1,22,-1
 958 559 l 1,23,-1
 872 559 l 1,24,-1
 870 598 l 2,25,26
 866 683 866 683 715 692 c 1,27,-1
 602 692 l 2,28,29
 513 692 513 692 475.5 669.5 c 128,-1,30
 438 647 438 647 414 598 c 2,31,-1
 395 559 l 1,32,-1
 309 559 l 1,33,-1
 391 948 l 1,34,-1
 477 948 l 1,13,-1
1055 0 m 1,35,-1
 -23 0 l 1,36,-1
 49 403 l 1,37,-1
 156 403 l 1,38,39
 152 351 152 351 152 313 c 0,40,41
 152 188 152 188 291 188 c 2,42,-1
 817 188 l 2,43,44
 972 188 972 188 1022 342 c 2,45,-1
 1042 403 l 1,46,-1
 1149 403 l 1,47,-1
 1055 0 l 1,35,-1
EndSplineSet
EndChar

StartChar: Pi
Encoding: 928 928 366
Width: 1563
GlyphClass: 2
Flags: W
LayerCount: 2
Fore
SplineSet
768 0 m 1,0,-1
 786 86 l 1,1,-1
 813 86 l 2,2,3
 910 86 910 86 952.5 123 c 128,-1,4
 995 160 995 160 1012 233 c 1,5,-1
 1251 1360 l 1,6,-1
 647 1360 l 1,7,-1
 406 225 l 2,8,9
 397 183 397 183 397 168 c 0,10,11
 397 86 397 86 545 86 c 2,12,-1
 571 86 l 1,13,-1
 553 0 l 1,14,-1
 -43 0 l 1,15,-1
 -27 86 l 1,16,-1
 0 86 l 2,17,18
 99 86 99 86 142 123.5 c 128,-1,19
 185 161 185 161 201 233 c 2,20,-1
 414 1237 l 2,21,22
 422 1275 422 1275 422 1294 c 0,23,24
 422 1376 422 1376 274 1376 c 2,25,-1
 248 1376 l 1,26,-1
 266 1462 l 1,27,-1
 1673 1462 l 1,28,-1
 1655 1376 l 1,29,-1
 1628 1376 l 2,30,31
 1531 1376 1531 1376 1488.5 1340 c 128,-1,32
 1446 1304 1446 1304 1430 1229 c 2,33,-1
 1217 225 l 2,34,35
 1208 183 1208 183 1208 168 c 0,36,37
 1208 86 1208 86 1356 86 c 2,38,-1
 1382 86 l 1,39,-1
 1364 0 l 1,40,-1
 768 0 l 1,0,-1
EndSplineSet
EndChar

StartChar: Sigma
Encoding: 931 931 368
Width: 1239
GlyphClass: 2
Flags: W
LayerCount: 2
Fore
SplineSet
764 188 m 2,0,1
 927 188 927 188 997 383 c 1,2,-1
 1020 444 l 1,3,-1
 1126 444 l 1,4,-1
 1022 0 l 1,5,-1
 -72 0 l 1,6,-1
 -59 66 l 1,7,-1
 516 727 l 1,8,-1
 268 1403 l 1,9,-1
 281 1462 l 1,10,-1
 1241 1462 l 1,11,-1
 1176 1104 l 1,12,-1
 1069 1104 l 1,13,-1
 1075 1165 l 2,14,15
 1079 1206 1079 1206 1079 1223 c 0,16,17
 1079 1358 1079 1358 934 1358 c 2,18,-1
 512 1358 l 1,19,-1
 709 813 l 1,20,-1
 694 778 l 1,21,-1
 182 188 l 1,22,-1
 764 188 l 2,0,1
EndSplineSet
EndChar

StartChar: Phi
Encoding: 934 934 371
Width: 1567
GlyphClass: 2
Flags: W
LayerCount: 2
Fore
SplineSet
809 1237 m 2,0,1
 817 1276 817 1276 817 1294 c 0,2,3
 817 1376 817 1376 666 1376 c 2,4,-1
 639 1376 l 1,5,-1
 657 1462 l 1,6,-1
 1249 1462 l 1,7,-1
 1231 1376 l 1,8,-1
 1208 1376 l 2,9,10
 1106 1376 1106 1376 1063.5 1339.5 c 128,-1,11
 1021 1303 1021 1303 1006 1229 c 1,12,-1
 997 1188 l 1,13,-1
 1061 1188 l 2,14,15
 1284 1188 1284 1188 1408 1084.5 c 128,-1,16
 1532 981 1532 981 1532 793 c 0,17,18
 1532 561 1532 561 1372 428 c 128,-1,19
 1212 295 1212 295 901 295 c 2,20,-1
 807 295 l 1,21,-1
 793 225 l 2,22,23
 784 180 784 180 784 168 c 0,24,25
 784 86 784 86 936 86 c 2,26,-1
 958 86 l 1,27,-1
 940 0 l 1,28,-1
 350 0 l 1,29,-1
 369 86 l 1,30,-1
 395 86 l 2,31,32
 565 86 565 86 596 233 c 1,33,-1
 608 295 l 1,34,-1
 541 295 l 2,35,36
 318 295 318 295 196 398.5 c 128,-1,37
 74 502 74 502 74 690 c 0,38,39
 74 923 74 923 230.5 1055.5 c 128,-1,40
 387 1188 387 1188 700 1188 c 2,41,-1
 799 1188 l 1,42,-1
 809 1237 l 2,0,1
778 1092 m 1,43,-1
 723 1092 l 2,44,45
 291 1092 291 1092 291 692 c 0,46,47
 291 393 291 393 590 393 c 2,48,-1
 631 393 l 1,49,-1
 778 1092 l 1,43,-1
827 391 m 1,50,-1
 879 391 l 2,51,52
 1315 391 1315 391 1315 791 c 0,53,54
 1315 1090 1315 1090 1012 1090 c 2,55,-1
 975 1090 l 1,56,-1
 827 391 l 1,50,-1
EndSplineSet
EndChar

StartChar: Psi
Encoding: 936 936 373
Width: 1696
GlyphClass: 2
Flags: W
LayerCount: 2
Fore
SplineSet
1348 1462 m 1,0,-1
 1329 1376 l 1,1,-1
 1303 1376 l 2,2,3
 1207 1376 1207 1376 1163.5 1340 c 128,-1,4
 1120 1304 1120 1304 1104 1229 c 2,5,-1
 971 606 l 1,6,-1
 1020 606 l 2,7,8
 1185 606 1185 606 1270.5 679.5 c 128,-1,9
 1356 753 1356 753 1405 979 c 1,10,-1
 1507 1462 l 1,11,-1
 1878 1462 l 1,12,-1
 1860 1376 l 1,13,14
 1764 1376 1764 1376 1720 1339.5 c 128,-1,15
 1676 1303 1676 1303 1661 1229 c 2,16,-1
 1608 975 l 2,17,18
 1557 731 1557 731 1411 620.5 c 128,-1,19
 1265 510 1265 510 1020 510 c 2,20,-1
 950 510 l 1,21,-1
 891 225 l 2,22,23
 883 186 883 186 883 168 c 0,24,25
 883 86 883 86 1030 86 c 2,26,-1
 1057 86 l 1,27,-1
 1038 0 l 1,28,-1
 455 0 l 1,29,-1
 471 86 l 1,30,-1
 498 86 l 2,31,32
 595 86 595 86 639 122.5 c 128,-1,33
 683 159 683 159 698 233 c 2,34,-1
 756 510 l 1,35,-1
 688 510 l 2,36,37
 279 510 279 510 279 821 c 0,38,39
 279 885 279 885 297 975 c 2,40,-1
 352 1237 l 2,41,42
 360 1275 360 1275 360 1294 c 0,43,44
 360 1376 360 1376 213 1376 c 2,45,-1
 186 1376 l 1,46,-1
 205 1462 l 1,47,-1
 602 1462 l 1,48,-1
 500 979 l 2,49,50
 477 870 477 870 477 807 c 0,51,52
 477 606 477 606 745 606 c 2,53,-1
 776 606 l 1,54,-1
 911 1237 l 2,55,56
 920 1279 920 1279 920 1294 c 0,57,58
 920 1376 920 1376 772 1376 c 2,59,-1
 745 1376 l 1,60,-1
 764 1462 l 1,61,-1
 1348 1462 l 1,0,-1
EndSplineSet
EndChar

StartChar: uni03A9
Encoding: 937 937 374
Width: 1542
GlyphClass: 2
Flags: W
LayerCount: 2
Fore
SplineSet
686 0 m 1,0,-1
 778 428 l 1,1,2
 1040 459 1040 459 1145.5 648 c 128,-1,3
 1251 837 1251 837 1251 1026 c 0,4,5
 1251 1195 1251 1195 1160.5 1284.5 c 128,-1,6
 1070 1374 1070 1374 899 1374 c 0,7,8
 624 1374 624 1374 502.5 1181 c 128,-1,9
 381 988 381 988 381 758 c 0,10,11
 381 622 381 622 448.5 532.5 c 128,-1,12
 516 443 516 443 639 428 c 1,13,-1
 561 0 l 1,14,-1
 -12 0 l 1,15,-1
 16 358 l 1,16,-1
 123 358 l 1,17,-1
 123 291 l 2,18,19
 123 217 123 217 160.5 190.5 c 128,-1,20
 198 164 198 164 289 164 c 2,21,-1
 483 164 l 1,22,-1
 518 344 l 1,23,24
 349 381 349 381 252.5 503.5 c 128,-1,25
 156 626 156 626 156 803 c 0,26,27
 156 1081 156 1081 357 1283 c 128,-1,28
 558 1485 558 1485 924 1485 c 0,29,30
 1179 1485 1179 1485 1327 1360.5 c 128,-1,31
 1475 1236 1475 1236 1475 1018 c 0,32,33
 1475 757 1475 757 1325 577 c 128,-1,34
 1175 397 1175 397 877 344 c 1,35,-1
 834 164 l 1,36,-1
 1028 164 l 2,37,38
 1120 164 1120 164 1169.5 191 c 128,-1,39
 1219 218 1219 218 1251 291 c 2,40,-1
 1280 358 l 1,41,-1
 1386 358 l 1,42,-1
 1294 0 l 1,43,-1
 686 0 l 1,0,-1
EndSplineSet
EndChar

StartChar: alpha
Encoding: 945 945 382
Width: 1229
GlyphClass: 2
Flags: W
LayerCount: 2
Fore
SplineSet
739 207 m 1,0,-1
 731 207 l 1,1,2
 586 -20 586 -20 385 -20 c 0,3,4
 247 -20 247 -20 165.5 82 c 128,-1,5
 84 184 84 184 84 358 c 0,6,7
 84 681 84 681 245 899.5 c 128,-1,8
 406 1118 406 1118 631 1118 c 0,9,10
 848 1118 848 1118 891 903 c 1,11,-1
 903 903 l 1,12,13
 978 1043 978 1043 1055 1098 c 1,14,-1
 1202 1098 l 1,15,16
 1086 949 1086 949 1016 694 c 1,17,-1
 956 469 l 2,18,19
 924 349 924 349 924 240 c 0,20,21
 924 123 924 123 1018 123 c 0,22,23
 1059 123 1059 123 1122 164 c 1,24,-1
 1159 98 l 1,25,26
 1042 -10 1042 -10 926 -10 c 0,27,28
 758 -10 758 -10 739 207 c 1,0,-1
799 590 m 1,29,-1
 831 719 l 2,30,31
 835 734 835 734 824 815.5 c 128,-1,32
 813 897 813 897 770 944 c 128,-1,33
 727 991 727 991 651 991 c 0,34,35
 502 991 502 991 396.5 801.5 c 128,-1,36
 291 612 291 612 291 365 c 0,37,38
 291 111 291 111 459 111 c 0,39,40
 673 111 673 111 799 590 c 1,29,-1
EndSplineSet
EndChar

StartChar: beta
Encoding: 946 946 383
Width: 1223
GlyphClass: 2
Flags: W
LayerCount: 2
Fore
SplineSet
-16 -494 m 1,0,-1
 336 1165 l 2,1,2
 420 1563 420 1563 819 1563 c 0,3,4
 998 1563 998 1563 1100 1483.5 c 128,-1,5
 1202 1404 1202 1404 1202 1262 c 0,6,7
 1202 973 1202 973 862 877 c 1,8,-1
 862 868 l 1,9,10
 1098 772 1098 772 1098 532 c 0,11,12
 1098 284 1098 284 960 132 c 128,-1,13
 822 -20 822 -20 594 -20 c 0,14,15
 404 -20 404 -20 297 72 c 1,16,-1
 176 -494 l 1,17,-1
 -16 -494 l 1,0,-1
741 813 m 1,18,19
 665 784 665 784 612 784 c 0,20,21
 541 784 541 784 541 842 c 0,22,23
 541 926 541 926 666 926 c 0,24,25
 731 926 731 926 782 909 c 1,26,27
 885 944 885 944 946.5 1036.5 c 128,-1,28
 1008 1129 1008 1129 1008 1249 c 0,29,30
 1008 1350 1008 1350 954 1410 c 128,-1,31
 900 1470 900 1470 809 1470 c 0,32,33
 696 1470 696 1470 630 1401.5 c 128,-1,34
 564 1333 564 1333 528 1157 c 1,35,-1
 324 197 l 1,36,37
 442 86 442 86 586 86 c 0,38,39
 736 86 736 86 819.5 205.5 c 128,-1,40
 903 325 903 325 903 532 c 0,41,42
 903 751 903 751 741 813 c 1,18,19
EndSplineSet
EndChar

StartChar: gamma
Encoding: 947 947 384
Width: 1108
GlyphClass: 2
Flags: W
LayerCount: 2
Fore
SplineSet
512 182 m 1,0,1
 674 316 674 316 783.5 532.5 c 128,-1,2
 893 749 893 749 893 883 c 0,3,4
 893 974 893 974 817 995 c 1,5,6
 844 1118 844 1118 954 1118 c 0,7,8
 1067 1118 1067 1118 1067 993 c 0,9,10
 1067 804 1067 804 890 511.5 c 128,-1,11
 713 219 713 219 512 61 c 1,12,13
 478 -192 478 -192 400 -342 c 128,-1,14
 322 -492 322 -492 229 -492 c 0,15,16
 162 -492 162 -492 162 -414 c 0,17,18
 162 -239 162 -239 338 10 c 1,19,20
 314 575 314 575 276 775 c 128,-1,21
 238 975 238 975 166 975 c 0,22,23
 128 975 128 975 78 948 c 1,24,-1
 49 1010 l 1,25,26
 177 1104 177 1104 281 1104 c 0,27,28
 407 1104 407 1104 451.5 895.5 c 128,-1,29
 496 687 496 687 512 182 c 1,0,1
EndSplineSet
EndChar

StartChar: delta
Encoding: 948 948 385
Width: 1182
GlyphClass: 2
Flags: W
LayerCount: 2
Fore
SplineSet
604 936 m 1,0,1
 436 1068 436 1068 436 1229 c 0,2,3
 436 1385 436 1385 549 1476 c 128,-1,4
 662 1567 662 1567 838 1567 c 0,5,6
 992 1567 992 1567 1083 1512 c 128,-1,7
 1174 1457 1174 1457 1174 1380 c 0,8,9
 1174 1309 1174 1309 1126.5 1267 c 128,-1,10
 1079 1225 1079 1225 1001 1225 c 1,11,12
 1001 1473 1001 1473 815 1473 c 0,13,14
 724 1473 724 1473 667 1415.5 c 128,-1,15
 610 1358 610 1358 610 1270 c 0,16,17
 610 1147 610 1147 811 997 c 1,18,19
 1067 811 1067 811 1067 584 c 0,20,21
 1067 318 1067 318 902 149 c 128,-1,22
 737 -20 737 -20 496 -20 c 0,23,24
 305 -20 305 -20 193.5 84 c 128,-1,25
 82 188 82 188 82 367 c 0,26,27
 82 792 82 792 604 936 c 1,0,1
676 881 m 1,28,29
 486 827 486 827 381 692 c 128,-1,30
 276 557 276 557 276 371 c 0,31,32
 276 234 276 234 339.5 160 c 128,-1,33
 403 86 403 86 514 86 c 0,34,35
 671 86 671 86 769.5 212.5 c 128,-1,36
 868 339 868 339 868 545 c 0,37,38
 868 747 868 747 676 881 c 1,28,29
EndSplineSet
EndChar

StartChar: epsilon
Encoding: 949 949 386
Width: 1016
GlyphClass: 2
Flags: W
LayerCount: 2
Fore
SplineSet
354 571 m 1,0,-1
 356 582 l 1,1,2
 207 645 207 645 207 803 c 0,3,4
 207 952 207 952 328.5 1034 c 128,-1,5
 450 1116 450 1116 662 1116 c 0,6,7
 821 1116 821 1116 907 1068.5 c 128,-1,8
 993 1021 993 1021 993 940 c 0,9,10
 993 801 993 801 817 801 c 1,11,12
 817 1022 817 1022 639 1022 c 0,13,14
 523 1022 523 1022 461 955.5 c 128,-1,15
 399 889 399 889 399 786 c 0,16,17
 399 704 399 704 439.5 664.5 c 128,-1,18
 480 625 480 625 537 625 c 0,19,20
 538 625 538 625 576 634 c 0,21,22
 664 655 664 655 700 655 c 0,23,24
 778 655 778 655 778 600 c 0,25,26
 778 502 778 502 651 502 c 0,27,28
 575 502 575 502 487 532 c 1,29,30
 389 510 389 510 325.5 443 c 128,-1,31
 262 376 262 376 262 283 c 0,32,33
 262 109 262 109 489 109 c 0,34,35
 691 109 691 109 854 260 c 1,36,37
 877 245 877 245 877 209 c 0,38,39
 877 116 877 116 764.5 48 c 128,-1,40
 652 -20 652 -20 463 -20 c 0,41,42
 61 -20 61 -20 61 266 c 0,43,44
 61 483 61 483 354 571 c 1,0,-1
EndSplineSet
EndChar

StartChar: zeta
Encoding: 950 950 387
Width: 946
GlyphClass: 2
Flags: W
LayerCount: 2
Fore
SplineSet
743 1350 m 1,0,1
 550 1380 550 1380 418 1516 c 1,2,-1
 489 1589 l 1,3,4
 633 1448 633 1448 834 1430 c 1,5,6
 979 1522 979 1522 1083 1522 c 0,7,8
 1167 1522 1167 1522 1167 1462 c 0,9,10
 1167 1331 1167 1331 838 1331 c 1,11,12
 601 1118 601 1118 448 839 c 128,-1,13
 295 560 295 560 295 350 c 0,14,15
 295 275 295 275 340 230.5 c 128,-1,16
 385 186 385 186 551 145 c 0,17,18
 668 116 668 116 721 71 c 128,-1,19
 774 26 774 26 774 -53 c 0,20,21
 774 -173 774 -173 684.5 -271 c 128,-1,22
 595 -369 595 -369 432 -412 c 1,23,-1
 401 -313 l 1,24,25
 596 -260 596 -260 596 -131 c 0,26,27
 596 -76 596 -76 551.5 -49 c 128,-1,28
 507 -22 507 -22 385 6 c 0,29,30
 96 71 96 71 96 295 c 0,31,32
 96 495 96 495 258 798 c 128,-1,33
 420 1101 420 1101 743 1350 c 1,0,1
EndSplineSet
EndChar

StartChar: eta
Encoding: 951 951 388
Width: 1212
GlyphClass: 2
Flags: W
LayerCount: 2
Fore
SplineSet
236 694 m 2,0,1
 268 844 268 844 268 1036 c 2,2,-1
 268 1070 l 2,3,4
 268 1085 268 1085 266 1098 c 1,5,-1
 383 1098 l 1,6,7
 414 1058 414 1058 424 895 c 1,8,-1
 436 895 l 1,9,10
 598 1118 598 1118 795 1118 c 0,11,12
 1073 1118 1073 1118 1073 854 c 0,13,14
 1073 793 1073 793 1057 717 c 2,15,-1
 874 -143 l 2,16,17
 842 -295 842 -295 842 -378 c 0,18,19
 842 -463 842 -463 850 -492 c 1,20,-1
 653 -492 l 1,21,22
 645 -466 645 -466 645 -414 c 0,23,24
 645 -307 645 -307 686 -119 c 2,25,-1
 866 727 l 2,26,27
 879 788 879 788 879 821 c 0,28,29
 879 987 879 987 721 987 c 0,30,31
 488 987 488 987 406 596 c 2,32,-1
 281 0 l 1,33,-1
 88 0 l 1,34,-1
 236 694 l 2,0,1
EndSplineSet
EndChar

StartChar: theta
Encoding: 952 952 389
Width: 1145
GlyphClass: 2
Flags: W
LayerCount: 2
Fore
SplineSet
113 508 m 0,0,1
 113 906 113 906 287 1235.5 c 128,-1,2
 461 1565 461 1565 745 1565 c 0,3,4
 927 1565 927 1565 1020.5 1431 c 128,-1,5
 1114 1297 1114 1297 1114 1047 c 0,6,7
 1114 671 1114 671 935.5 325.5 c 128,-1,8
 757 -20 757 -20 465 -20 c 0,9,10
 297 -20 297 -20 205 116.5 c 128,-1,11
 113 253 113 253 113 508 c 0,0,1
354 838 m 1,12,-1
 885 838 l 1,13,14
 920 1032 920 1032 920 1169 c 0,15,16
 920 1460 920 1460 737 1460 c 0,17,18
 498 1460 498 1460 354 838 c 1,12,-1
866 741 m 1,19,-1
 334 741 l 1,20,21
 293 541 293 541 293 387 c 0,22,23
 293 240 293 240 342 162 c 128,-1,24
 391 84 391 84 471 84 c 0,25,26
 722 84 722 84 866 741 c 1,19,-1
EndSplineSet
EndChar

StartChar: iota
Encoding: 953 953 390
Width: 684
GlyphClass: 2
Flags: W
LayerCount: 2
Fore
SplineSet
514 1098 m 1,0,-1
 365 397 l 2,1,2
 340 279 340 279 340 221 c 0,3,4
 340 109 340 109 449 109 c 0,5,6
 521 109 521 109 602 150 c 1,7,-1
 637 74 l 1,8,9
 504 -20 504 -20 358 -20 c 0,10,11
 152 -20 152 -20 152 219 c 0,12,13
 152 296 152 296 172 391 c 2,14,-1
 322 1098 l 1,15,-1
 514 1098 l 1,0,-1
EndSplineSet
EndChar

StartChar: kappa
Encoding: 954 954 391
Width: 1186
GlyphClass: 2
Flags: W
LayerCount: 2
Fore
SplineSet
1022 848 m 1,0,1
 1022 975 1022 975 936 975 c 0,2,3
 886 975 886 975 819 912.5 c 128,-1,4
 752 850 752 850 625 672 c 1,5,-1
 870 236 l 2,6,7
 927 134 927 134 971.5 103 c 128,-1,8
 1016 72 1016 72 1073 72 c 2,9,-1
 1096 72 l 1,10,-1
 1075 -14 l 1,11,-1
 1055 -14 l 2,12,13
 910 -14 910 -14 832.5 17.5 c 128,-1,14
 755 49 755 49 676 193 c 2,15,-1
 498 514 l 1,16,-1
 365 397 l 1,17,-1
 281 0 l 1,18,-1
 90 0 l 1,19,-1
 260 807 l 2,20,21
 279 897 279 897 279 915 c 0,22,23
 279 1012 279 1012 135 1012 c 2,24,-1
 119 1012 l 1,25,-1
 137 1098 l 1,26,-1
 514 1098 l 1,27,-1
 430 709 l 2,28,29
 405 593 405 593 375 498 c 1,30,-1
 559 750 l 2,31,32
 731 984 731 984 817.5 1050 c 128,-1,33
 904 1116 904 1116 1008 1116 c 0,34,35
 1088 1116 1088 1116 1134 1078.5 c 128,-1,36
 1180 1041 1180 1041 1180 981 c 0,37,38
 1180 848 1180 848 1022 848 c 1,0,1
EndSplineSet
EndChar

StartChar: lambda
Encoding: 955 955 392
Width: 1096
GlyphClass: 2
Flags: W
LayerCount: 2
Fore
SplineSet
651 1063 m 1,0,1
 643 1239 643 1239 607 1340.5 c 128,-1,2
 571 1442 571 1442 479 1442 c 0,3,4
 388 1442 388 1442 317 1354 c 1,5,6
 295 1371 295 1371 295 1430 c 0,7,8
 295 1496 295 1496 341 1536.5 c 128,-1,9
 387 1577 387 1577 473 1577 c 0,10,11
 606 1577 606 1577 672.5 1486 c 128,-1,12
 739 1395 739 1395 756 1200 c 1,13,-1
 811 483 l 2,14,15
 825 294 825 294 878.5 190 c 128,-1,16
 932 86 932 86 1004 86 c 2,17,-1
 1014 86 l 1,18,-1
 999 0 l 1,19,-1
 952 0 l 2,20,21
 817 0 817 0 764 60 c 128,-1,22
 711 120 711 120 691.5 362.5 c 128,-1,23
 672 605 672 605 672 848 c 1,24,-1
 666 848 l 1,25,26
 612 707 612 707 494 520 c 1,27,-1
 158 0 l 1,28,-1
 -57 0 l 1,29,-1
 651 1063 l 1,0,1
EndSplineSet
EndChar

StartChar: nu
Encoding: 957 957 394
Width: 1133
GlyphClass: 2
Flags: W
LayerCount: 2
Fore
SplineSet
518 182 m 1,0,1
 682 323 682 323 802 536 c 128,-1,2
 922 749 922 749 922 877 c 0,3,4
 922 974 922 974 842 995 c 1,5,6
 863 1118 863 1118 979 1118 c 0,7,8
 1092 1118 1092 1118 1092 985 c 0,9,10
 1092 790 1092 790 896.5 486 c 128,-1,11
 701 182 701 182 457 0 c 1,12,-1
 348 0 l 1,13,14
 294 640 294 640 254 807.5 c 128,-1,15
 214 975 214 975 150 975 c 0,16,17
 114 975 114 975 76 954 c 1,18,-1
 49 1018 l 1,19,20
 164 1104 164 1104 272 1104 c 0,21,22
 381 1104 381 1104 424 954.5 c 128,-1,23
 467 805 467 805 518 182 c 1,0,1
EndSplineSet
EndChar

StartChar: xi
Encoding: 958 958 395
Width: 963
GlyphClass: 2
Flags: W
LayerCount: 2
Fore
SplineSet
586 874 m 1,0,-1
 588 885 l 1,1,2
 305 957 305 957 305 1110 c 0,3,4
 305 1257 305 1257 602 1397 c 1,5,6
 411 1421 411 1421 305 1516 c 1,7,-1
 375 1589 l 1,8,9
 500 1491 500 1491 700 1470 c 1,10,11
 851 1561 851 1561 981 1561 c 0,12,13
 1057 1561 1057 1561 1057 1511 c 0,14,15
 1057 1378 1057 1378 694 1378 c 1,16,17
 494 1254 494 1254 494 1118 c 0,18,19
 494 989 494 989 694 938 c 1,20,21
 802 993 802 993 883 993 c 0,22,23
 958 993 958 993 958 940 c 0,24,25
 958 834 958 834 768 834 c 0,26,27
 721 834 721 834 674 844 c 1,28,29
 532 793 532 793 412.5 649.5 c 128,-1,30
 293 506 293 506 293 369 c 0,31,32
 293 290 293 290 350.5 240 c 128,-1,33
 408 190 408 190 590 145 c 1,34,35
 721 115 721 115 771 68.5 c 128,-1,36
 821 22 821 22 821 -53 c 0,37,38
 821 -171 821 -171 732 -269 c 128,-1,39
 643 -367 643 -367 479 -410 c 1,40,-1
 449 -311 l 1,41,42
 643 -257 643 -257 643 -131 c 0,43,44
 643 -71 643 -71 592.5 -43.5 c 128,-1,45
 542 -16 542 -16 430 6 c 0,46,47
 84 75 84 75 84 307 c 0,48,49
 84 478 84 478 218.5 633 c 128,-1,50
 353 788 353 788 586 874 c 1,0,-1
EndSplineSet
EndChar

StartChar: pi
Encoding: 960 960 397
Width: 1282
GlyphClass: 2
Flags: W
LayerCount: 2
Fore
SplineSet
1292 928 m 1,0,-1
 1073 928 l 1,1,2
 1013 754 1013 754 964 523.5 c 128,-1,3
 915 293 915 293 915 203 c 0,4,5
 915 109 915 109 999 109 c 0,6,7
 1040 109 1040 109 1106 139 c 1,8,-1
 1139 76 l 1,9,10
 1019 -16 1019 -16 909 -16 c 0,11,12
 748 -16 748 -16 748 158 c 0,13,14
 748 265 748 265 813.5 502 c 128,-1,15
 879 739 879 739 956 928 c 1,16,-1
 565 928 l 1,17,-1
 414 346 l 2,18,19
 352 106 352 106 283.5 48 c 128,-1,20
 215 -10 215 -10 109 -10 c 0,21,22
 33 -10 33 -10 -23 25 c 1,23,-1
 2 109 l 1,24,25
 102 109 102 109 160.5 178 c 128,-1,26
 219 247 219 247 270 397 c 2,27,-1
 449 928 l 1,28,-1
 362 928 l 2,29,30
 232 928 232 928 186 799 c 1,31,-1
 100 799 l 1,32,33
 134 966 134 966 202.5 1032 c 128,-1,34
 271 1098 271 1098 395 1098 c 2,35,-1
 1329 1098 l 1,36,-1
 1292 928 l 1,0,-1
EndSplineSet
EndChar

StartChar: rho
Encoding: 961 961 398
Width: 1249
GlyphClass: 2
Flags: W
LayerCount: 2
Fore
SplineSet
289 76 m 1,0,1
 284 48 284 48 277 2 c 0,2,3
 270 -45 270 -45 258 -100 c 2,4,-1
 174 -492 l 1,5,-1
 -18 -492 l 1,6,-1
 215 600 l 2,7,8
 272 867 272 867 403 992.5 c 128,-1,9
 534 1118 534 1118 754 1118 c 0,10,11
 944 1118 944 1118 1050.5 1008 c 128,-1,12
 1157 898 1157 898 1157 692 c 0,13,14
 1157 372 1157 372 1003.5 176 c 128,-1,15
 850 -20 850 -20 625 -20 c 0,16,17
 419 -20 419 -20 289 76 c 1,0,1
319 186 m 1,18,19
 449 86 449 86 612 86 c 0,20,21
 761 86 761 86 861 254.5 c 128,-1,22
 961 423 961 423 961 692 c 0,23,24
 961 1010 961 1010 743 1010 c 0,25,26
 614 1010 614 1010 535 916 c 128,-1,27
 456 822 456 822 408 600 c 2,28,-1
 319 186 l 1,18,19
EndSplineSet
EndChar

StartChar: sigma1
Encoding: 962 962 399
Width: 969
GlyphClass: 2
Flags: W
LayerCount: 2
Fore
SplineSet
432 -410 m 1,0,-1
 401 -311 l 1,1,2
 596 -258 596 -258 596 -129 c 0,3,4
 596 -69 596 -69 547.5 -37.5 c 128,-1,5
 499 -6 499 -6 385 20 c 1,6,7
 88 93 88 93 88 403 c 0,8,9
 88 671 88 671 261 894.5 c 128,-1,10
 434 1118 434 1118 698 1118 c 0,11,12
 840 1118 840 1118 918.5 1061.5 c 128,-1,13
 997 1005 997 1005 997 922 c 0,14,15
 997 860 997 860 947.5 819 c 128,-1,16
 898 778 898 778 815 778 c 1,17,18
 815 887 815 887 773 953.5 c 128,-1,19
 731 1020 731 1020 657 1020 c 0,20,21
 515 1020 515 1020 408 812 c 128,-1,22
 301 604 301 604 301 412 c 0,23,24
 301 313 301 313 351.5 257 c 128,-1,25
 402 201 402 201 547 160 c 0,26,27
 677 124 677 124 725.5 74.5 c 128,-1,28
 774 25 774 25 774 -51 c 0,29,30
 774 -171 774 -171 684.5 -269 c 128,-1,31
 595 -367 595 -367 432 -410 c 1,0,-1
EndSplineSet
EndChar

StartChar: sigma
Encoding: 963 963 400
Width: 1237
GlyphClass: 2
Flags: W
LayerCount: 2
Fore
SplineSet
1329 1098 m 1,0,-1
 1294 928 l 1,1,-1
 967 928 l 1,2,3
 1090 761 1090 761 1090 567 c 0,4,5
 1090 300 1090 300 939.5 137.5 c 128,-1,6
 789 -25 789 -25 530 -25 c 0,7,8
 326 -25 326 -25 207 97.5 c 128,-1,9
 88 220 88 220 88 430 c 0,10,11
 88 755 88 755 291.5 926.5 c 128,-1,12
 495 1098 495 1098 829 1098 c 2,13,-1
 1329 1098 l 1,0,-1
850 928 m 1,14,-1
 817 928 l 2,15,16
 573 928 573 928 427 796 c 128,-1,17
 281 664 281 664 281 406 c 0,18,19
 281 253 281 253 354.5 165.5 c 128,-1,20
 428 78 428 78 553 78 c 0,21,22
 719 78 719 78 807 225.5 c 128,-1,23
 895 373 895 373 895 647 c 0,24,25
 895 818 895 818 850 928 c 1,14,-1
EndSplineSet
EndChar

StartChar: tau
Encoding: 964 964 401
Width: 1012
GlyphClass: 2
Flags: W
LayerCount: 2
Fore
SplineSet
571 928 m 1,0,-1
 389 928 l 2,1,2
 222 928 222 928 180 754 c 1,3,-1
 94 754 l 1,4,5
 165 1098 165 1098 430 1098 c 2,6,-1
 1073 1098 l 1,7,-1
 1038 928 l 1,8,-1
 676 928 l 1,9,10
 500 419 500 419 500 221 c 0,11,12
 500 109 500 109 608 109 c 0,13,14
 681 109 681 109 762 150 c 1,15,-1
 797 74 l 1,16,17
 669 -20 669 -20 518 -20 c 0,18,19
 311 -20 311 -20 311 174 c 0,20,21
 311 393 311 393 571 928 c 1,0,-1
EndSplineSet
EndChar

StartChar: upsilon
Encoding: 965 965 402
Width: 1214
GlyphClass: 2
Flags: W
LayerCount: 2
Fore
SplineSet
375 457 m 2,0,1
 358 380 358 380 358 328 c 0,2,3
 358 111 358 111 567 111 c 0,4,5
 748 111 748 111 865.5 309 c 128,-1,6
 983 507 983 507 983 766 c 0,7,8
 983 958 983 958 840 979 c 1,9,10
 859 1120 859 1120 971 1120 c 0,11,12
 1044 1120 1044 1120 1086 1048 c 128,-1,13
 1128 976 1128 976 1128 854 c 0,14,15
 1128 510 1128 510 960 245 c 128,-1,16
 792 -20 792 -20 522 -20 c 0,17,18
 350 -20 350 -20 257 66.5 c 128,-1,19
 164 153 164 153 164 307 c 0,20,21
 164 375 164 375 178 434 c 2,22,-1
 258 793 l 2,23,24
 276 874 276 874 276 915 c 0,25,26
 276 1012 276 1012 133 1012 c 2,27,-1
 117 1012 l 1,28,-1
 135 1098 l 1,29,-1
 516 1098 l 1,30,-1
 375 457 l 2,0,1
EndSplineSet
EndChar

StartChar: phi
Encoding: 966 966 403
Width: 1380
GlyphClass: 2
Flags: W
LayerCount: 2
Fore
SplineSet
745 1116 m 1,0,-1
 840 1556 l 1,1,-1
 963 1556 l 1,2,-1
 868 1116 l 1,3,4
 1069 1098 1069 1098 1177.5 978 c 128,-1,5
 1286 858 1286 858 1286 653 c 0,6,7
 1286 393 1286 393 1117 194.5 c 128,-1,8
 948 -4 948 -4 625 -23 c 1,9,-1
 526 -492 l 1,10,-1
 403 -492 l 1,11,-1
 504 -20 l 1,12,13
 307 -2 307 -2 197.5 121.5 c 128,-1,14
 88 245 88 245 88 444 c 0,15,16
 88 706 88 706 259 901.5 c 128,-1,17
 430 1097 430 1097 745 1116 c 1,0,-1
844 1006 m 1,18,-1
 647 80 l 1,19,20
 856 103 856 103 966.5 271.5 c 128,-1,21
 1077 440 1077 440 1077 684 c 0,22,23
 1077 972 1077 972 844 1006 c 1,18,-1
524 80 m 1,24,-1
 721 1006 l 1,25,26
 516 980 516 980 406.5 813 c 128,-1,27
 297 646 297 646 297 403 c 0,28,29
 297 119 297 119 524 80 c 1,24,-1
EndSplineSet
EndChar

StartChar: chi
Encoding: 967 967 404
Width: 1081
GlyphClass: 2
Flags: W
LayerCount: 2
Fore
SplineSet
4 -492 m 1,0,-1
 -240 -492 l 1,1,-1
 418 379 l 1,2,-1
 348 801 l 2,3,4
 317 985 317 985 233 985 c 0,5,6
 172 985 172 985 121 958 c 1,7,-1
 96 1024 l 1,8,9
 206 1104 206 1104 313 1104 c 0,10,11
 388 1104 388 1104 424 1058 c 128,-1,12
 460 1012 460 1012 477 862 c 1,13,-1
 520 512 l 1,14,-1
 913 1098 l 1,15,-1
 1139 1098 l 1,16,-1
 559 295 l 1,17,-1
 637 -182 l 2,18,19
 657 -306 657 -306 685 -339.5 c 128,-1,20
 713 -373 713 -373 748 -373 c 0,21,22
 802 -373 802 -373 860 -346 c 1,23,-1
 881 -412 l 1,24,25
 771 -492 771 -492 668 -492 c 0,26,27
 596 -492 596 -492 561 -441 c 128,-1,28
 526 -390 526 -390 508 -244 c 2,29,-1
 457 160 l 1,30,-1
 4 -492 l 1,0,-1
EndSplineSet
EndChar

StartChar: psi
Encoding: 968 968 405
Width: 1450
GlyphClass: 2
Flags: W
LayerCount: 2
Fore
SplineSet
117 1012 m 1,0,-1
 135 1098 l 1,1,-1
 510 1098 l 1,2,-1
 369 426 l 2,3,4
 358 374 358 374 358 330 c 0,5,6
 358 128 358 128 602 111 c 1,7,-1
 911 1556 l 1,8,-1
 1034 1556 l 1,9,-1
 727 117 l 1,10,11
 948 148 948 148 1074 324.5 c 128,-1,12
 1200 501 1200 501 1200 756 c 0,13,14
 1200 925 1200 925 1087 987 c 1,15,16
 1114 1110 1114 1110 1210 1110 c 0,17,18
 1343 1110 1343 1110 1343 881 c 0,19,20
 1343 532 1343 532 1173 274 c 128,-1,21
 1003 16 1003 16 698 -16 c 1,22,-1
 598 -492 l 1,23,-1
 475 -492 l 1,24,-1
 575 -18 l 1,25,26
 378 -11 378 -11 271 75 c 128,-1,27
 164 161 164 161 164 307 c 0,28,29
 164 369 164 369 178 434 c 2,30,-1
 254 797 l 2,31,32
 276 902 276 902 276 915 c 0,33,34
 276 1012 276 1012 133 1012 c 2,35,-1
 117 1012 l 1,0,-1
EndSplineSet
EndChar

StartChar: omega
Encoding: 969 969 406
Width: 1565
GlyphClass: 2
Flags: W
LayerCount: 2
Fore
SplineSet
737 190 m 1,0,-1
 729 190 l 1,1,2
 617 -20 617 -20 401 -20 c 0,3,4
 260 -20 260 -20 174 81.5 c 128,-1,5
 88 183 88 183 88 358 c 0,6,7
 88 584 88 584 196 781.5 c 128,-1,8
 304 979 304 979 504 1118 c 1,9,-1
 575 1051 l 1,10,11
 287 710 287 710 287 350 c 0,12,13
 287 225 287 225 329.5 157.5 c 128,-1,14
 372 90 372 90 440 90 c 0,15,16
 615 90 615 90 702 340 c 1,17,18
 692 413 692 413 692 498 c 0,19,20
 692 624 692 624 732 695 c 128,-1,21
 772 766 772 766 834 766 c 0,22,23
 907 766 907 766 907 666 c 0,24,25
 907 528 907 528 797 328 c 1,26,27
 809 217 809 217 858.5 153.5 c 128,-1,28
 908 90 908 90 983 90 c 0,29,30
 1140 90 1140 90 1213 297 c 128,-1,31
 1286 504 1286 504 1286 709 c 0,32,33
 1286 893 1286 893 1227 1051 c 1,34,-1
 1327 1118 l 1,35,36
 1477 929 1477 929 1477 643 c 0,37,38
 1477 380 1477 380 1353.5 180 c 128,-1,39
 1230 -20 1230 -20 991 -20 c 0,40,41
 785 -20 785 -20 737 190 c 1,0,-1
EndSplineSet
EndChar

StartChar: afii10051
Encoding: 1026 1026 413
Width: 1565
GlyphClass: 2
Flags: W
LayerCount: 2
Fore
SplineSet
745 836 m 1,0,1
 925 897 925 897 1069 897 c 0,2,3
 1458 897 1458 897 1458 571 c 0,4,5
 1458 377 1458 377 1377 183.5 c 128,-1,6
 1296 -10 1296 -10 1020 -10 c 0,7,8
 914 -10 914 -10 858 12 c 1,9,-1
 885 104 l 1,10,11
 940 86 940 86 999 86 c 0,12,13
 1104 86 1104 86 1152 153.5 c 128,-1,14
 1200 221 1200 221 1224.5 354 c 128,-1,15
 1249 487 1249 487 1249 565 c 0,16,17
 1249 774 1249 774 1020 774 c 0,18,19
 876 774 876 774 723 723 c 1,20,-1
 616 225 l 2,21,22
 608 188 608 188 608 168 c 0,23,24
 608 86 608 86 756 86 c 2,25,-1
 782 86 l 1,26,-1
 764 0 l 1,27,-1
 147 0 l 1,28,-1
 166 86 l 1,29,-1
 213 86 l 2,30,31
 316 86 316 86 356 121.5 c 128,-1,32
 396 157 396 157 410 223 c 2,33,-1
 651 1360 l 1,34,-1
 496 1360 l 2,35,36
 350 1360 350 1360 291 1192 c 1,37,-1
 262 1104 l 1,38,-1
 156 1104 l 1,39,-1
 242 1462 l 1,40,-1
 1313 1462 l 1,41,-1
 1247 1104 l 1,42,-1
 1141 1104 l 1,43,44
 1151 1184 1151 1184 1151 1229 c 0,45,46
 1151 1360 1151 1360 1016 1360 c 2,47,-1
 858 1360 l 1,48,-1
 745 836 l 1,0,1
EndSplineSet
EndChar

StartChar: afii10053
Encoding: 1028 1028 415
Width: 1257
GlyphClass: 2
Flags: W
LayerCount: 2
Fore
SplineSet
1073 299 m 1,0,1
 1100 280 1100 280 1100 231 c 0,2,3
 1100 133 1100 133 986 56.5 c 128,-1,4
 872 -20 872 -20 672 -20 c 0,5,6
 405 -20 405 -20 255.5 123 c 128,-1,7
 106 266 106 266 106 528 c 0,8,9
 106 916 106 916 348 1199.5 c 128,-1,10
 590 1483 590 1483 950 1483 c 0,11,12
 1129 1483 1129 1483 1229 1421.5 c 128,-1,13
 1329 1360 1329 1360 1329 1255 c 0,14,15
 1329 1182 1329 1182 1274 1139 c 128,-1,16
 1219 1096 1219 1096 1128 1096 c 1,17,18
 1128 1374 1128 1374 924 1374 c 0,19,20
 738 1374 738 1374 589.5 1217.5 c 128,-1,21
 441 1061 441 1061 369 788 c 1,22,-1
 940 788 l 1,23,-1
 920 688 l 1,24,-1
 346 688 l 1,25,26
 330 590 330 590 330 496 c 0,27,28
 330 113 330 113 694 113 c 0,29,30
 931 113 931 113 1073 299 c 1,0,1
EndSplineSet
EndChar

StartChar: afii10058
Encoding: 1033 1033 420
Width: 1821
GlyphClass: 2
Flags: W
LayerCount: 2
Fore
SplineSet
791 1360 m 1,0,1
 734 1138 734 1138 628.5 811.5 c 128,-1,2
 523 485 523 485 421.5 289 c 128,-1,3
 320 93 320 93 242 39.5 c 128,-1,4
 164 -14 164 -14 66 -14 c 0,5,6
 -10 -14 -10 -14 -53 24.5 c 128,-1,7
 -96 63 -96 63 -96 123 c 0,8,9
 -96 185 -96 185 -62 219.5 c 128,-1,10
 -28 254 -28 254 25 254 c 1,11,12
 25 158 25 158 102 158 c 0,13,14
 287 158 287 158 474.5 704 c 128,-1,15
 662 1250 662 1250 662 1321 c 0,16,17
 662 1376 662 1376 512 1376 c 2,18,-1
 481 1376 l 1,19,-1
 500 1462 l 1,20,-1
 1487 1462 l 1,21,-1
 1468 1376 l 1,22,-1
 1442 1376 l 2,23,24
 1344 1376 1344 1376 1301 1338.5 c 128,-1,25
 1258 1301 1258 1301 1243 1229 c 2,26,-1
 1153 809 l 1,27,-1
 1208 809 l 2,28,29
 1712 809 1712 809 1712 467 c 0,30,31
 1712 242 1712 242 1561 121 c 128,-1,32
 1410 0 1410 0 1122 0 c 2,33,-1
 582 0 l 1,34,-1
 598 86 l 1,35,-1
 625 86 l 2,36,37
 722 86 722 86 766 122.5 c 128,-1,38
 810 159 810 159 825 233 c 2,39,-1
 1065 1360 l 1,40,-1
 791 1360 l 1,0,1
1004 102 m 1,41,-1
 1100 102 l 2,42,43
 1491 102 1491 102 1491 451 c 0,44,45
 1491 590 1491 590 1419.5 651.5 c 128,-1,46
 1348 713 1348 713 1202 713 c 2,47,-1
 1133 713 l 1,48,-1
 1004 102 l 1,41,-1
EndSplineSet
EndChar

StartChar: afii10059
Encoding: 1034 1034 421
Width: 1987
GlyphClass: 2
Flags: W
LayerCount: 2
Fore
SplineSet
1653 1462 m 1,0,-1
 1634 1376 l 1,1,-1
 1608 1376 l 2,2,3
 1510 1376 1510 1376 1467 1339 c 128,-1,4
 1424 1302 1424 1302 1409 1229 c 2,5,-1
 1319 809 l 1,6,-1
 1374 809 l 2,7,8
 1878 809 1878 809 1878 467 c 0,9,10
 1878 242 1878 242 1727 121 c 128,-1,11
 1576 0 1576 0 1288 0 c 2,12,-1
 748 0 l 1,13,-1
 764 86 l 1,14,-1
 791 86 l 2,15,16
 888 86 888 86 932 122.5 c 128,-1,17
 976 159 976 159 991 233 c 2,18,-1
 1092 713 l 1,19,-1
 508 713 l 1,20,-1
 406 225 l 2,21,22
 397 182 397 182 397 168 c 0,23,24
 397 86 397 86 545 86 c 2,25,-1
 571 86 l 1,26,-1
 553 0 l 1,27,-1
 -43 0 l 1,28,-1
 -27 86 l 1,29,-1
 0 86 l 2,30,31
 99 86 99 86 142 123.5 c 128,-1,32
 185 161 185 161 201 233 c 2,33,-1
 414 1237 l 2,34,35
 422 1275 422 1275 422 1294 c 0,36,37
 422 1376 422 1376 274 1376 c 2,38,-1
 248 1376 l 1,39,-1
 266 1462 l 1,40,-1
 862 1462 l 1,41,-1
 844 1376 l 1,42,-1
 817 1376 l 2,43,44
 719 1376 719 1376 676 1339 c 128,-1,45
 633 1302 633 1302 618 1229 c 2,46,-1
 530 815 l 1,47,-1
 1114 815 l 1,48,-1
 1204 1237 l 2,49,50
 1212 1275 1212 1275 1212 1294 c 0,51,52
 1212 1376 1212 1376 1065 1376 c 2,53,-1
 1038 1376 l 1,54,-1
 1057 1462 l 1,55,-1
 1653 1462 l 1,0,-1
1169 102 m 1,56,-1
 1266 102 l 2,57,58
 1657 102 1657 102 1657 451 c 0,59,60
 1657 590 1657 590 1586.5 651.5 c 128,-1,61
 1516 713 1516 713 1368 713 c 2,62,-1
 1298 713 l 1,63,-1
 1169 102 l 1,56,-1
EndSplineSet
EndChar

StartChar: afii10060
Encoding: 1035 1035 422
Width: 1702
GlyphClass: 2
Flags: W
LayerCount: 2
Fore
SplineSet
1567 86 m 1,0,-1
 1548 0 l 1,1,-1
 952 0 l 1,2,-1
 969 86 l 1,3,-1
 995 86 l 2,4,5
 1165 86 1165 86 1196 233 c 2,6,-1
 1223 362 l 2,7,8
 1249 486 1249 486 1249 580 c 0,9,10
 1249 774 1249 774 1020 774 c 0,11,12
 876 774 876 774 723 723 c 1,13,-1
 616 225 l 2,14,15
 608 188 608 188 608 168 c 0,16,17
 608 86 608 86 756 86 c 2,18,-1
 782 86 l 1,19,-1
 764 0 l 1,20,-1
 147 0 l 1,21,-1
 166 86 l 1,22,-1
 213 86 l 2,23,24
 316 86 316 86 356 121.5 c 128,-1,25
 396 157 396 157 410 223 c 2,26,-1
 651 1360 l 1,27,-1
 496 1360 l 2,28,29
 350 1360 350 1360 291 1192 c 1,30,-1
 262 1104 l 1,31,-1
 156 1104 l 1,32,-1
 242 1462 l 1,33,-1
 1313 1462 l 1,34,-1
 1247 1104 l 1,35,-1
 1141 1104 l 1,36,37
 1151 1184 1151 1184 1151 1229 c 0,38,39
 1151 1360 1151 1360 1016 1360 c 2,40,-1
 858 1360 l 1,41,-1
 745 836 l 1,42,43
 925 897 925 897 1069 897 c 0,44,45
 1460 897 1460 897 1460 594 c 0,46,47
 1460 499 1460 499 1432 373 c 1,48,-1
 1401 225 l 2,49,50
 1393 187 1393 187 1393 168 c 0,51,52
 1393 86 1393 86 1540 86 c 2,53,-1
 1567 86 l 1,0,-1
EndSplineSet
EndChar

StartChar: afii10145
Encoding: 1039 1039 425
Width: 1563
GlyphClass: 2
Flags: W
LayerCount: 2
Fore
SplineSet
1219 225 m 2,0,1
 1210 183 1210 183 1210 168 c 0,2,3
 1210 86 1210 86 1358 86 c 2,4,-1
 1384 86 l 1,5,-1
 1366 0 l 1,6,-1
 940 0 l 2,7,8
 712 0 712 0 618 -430 c 1,9,-1
 524 -430 l 1,10,11
 549 -322 549 -322 549 -238 c 0,12,13
 549 0 549 0 367 0 c 2,14,-1
 -39 0 l 1,15,-1
 -20 86 l 1,16,-1
 4 86 l 2,17,18
 102 86 102 86 144 122.5 c 128,-1,19
 186 159 186 159 201 225 c 2,20,-1
 418 1237 l 2,21,22
 426 1274 426 1274 426 1294 c 0,23,24
 426 1376 426 1376 279 1376 c 2,25,-1
 252 1376 l 1,26,-1
 270 1462 l 1,27,-1
 866 1462 l 1,28,-1
 848 1376 l 1,29,-1
 821 1376 l 2,30,31
 726 1376 726 1376 681.5 1340 c 128,-1,32
 637 1304 637 1304 621 1229 c 2,33,-1
 383 102 l 1,34,-1
 987 102 l 1,35,-1
 1229 1237 l 2,36,37
 1237 1275 1237 1275 1237 1294 c 0,38,39
 1237 1376 1237 1376 1090 1376 c 2,40,-1
 1063 1376 l 1,41,-1
 1081 1462 l 1,42,-1
 1677 1462 l 1,43,-1
 1659 1376 l 1,44,-1
 1632 1376 l 2,45,46
 1536 1376 1536 1376 1494 1342.5 c 128,-1,47
 1452 1309 1452 1309 1436 1239 c 2,48,-1
 1219 225 l 2,0,1
EndSplineSet
EndChar

StartChar: afii10018
Encoding: 1041 1041 427
Width: 1237
GlyphClass: 2
Flags: W
LayerCount: 2
Fore
SplineSet
1225 1462 m 1,0,-1
 1159 1104 l 1,1,-1
 1053 1104 l 1,2,3
 1063 1184 1063 1184 1063 1229 c 0,4,5
 1063 1360 1063 1360 928 1360 c 2,6,-1
 647 1360 l 1,7,-1
 528 809 l 1,8,-1
 645 809 l 2,9,10
 1149 809 1149 809 1149 467 c 0,11,12
 1149 242 1149 242 998 121 c 128,-1,13
 847 0 847 0 559 0 c 2,14,-1
 -43 0 l 1,15,-1
 -27 86 l 1,16,-1
 0 86 l 2,17,18
 170 86 170 86 201 233 c 2,19,-1
 414 1237 l 2,20,21
 422 1275 422 1275 422 1294 c 0,22,23
 422 1376 422 1376 274 1376 c 2,24,-1
 248 1376 l 1,25,-1
 266 1462 l 1,26,-1
 1225 1462 l 1,0,-1
379 102 m 1,27,-1
 537 102 l 2,28,29
 928 102 928 102 928 451 c 0,30,31
 928 590 928 590 857.5 651.5 c 128,-1,32
 787 713 787 713 639 713 c 2,33,-1
 508 713 l 1,34,-1
 379 102 l 1,27,-1
EndSplineSet
EndChar

StartChar: afii10021
Encoding: 1044 1044 430
Width: 1397
GlyphClass: 2
Flags: W
LayerCount: 2
Fore
SplineSet
51 102 m 1,0,1
 389 560 389 560 539.5 894.5 c 128,-1,2
 690 1229 690 1229 690 1317 c 0,3,4
 690 1345 690 1345 662.5 1360.5 c 128,-1,5
 635 1376 635 1376 526 1376 c 2,6,-1
 520 1376 l 1,7,-1
 539 1462 l 1,8,-1
 1481 1462 l 1,9,-1
 1462 1376 l 1,10,-1
 1436 1376 l 2,11,12
 1353 1376 1353 1376 1316 1341.5 c 128,-1,13
 1279 1307 1279 1307 1264 1239 c 2,14,-1
 1053 250 l 2,15,16
 1047 222 1047 222 1047 199 c 0,17,18
 1047 102 1047 102 1190 102 c 2,19,-1
 1231 102 l 1,20,-1
 1116 -430 l 1,21,-1
 1022 -430 l 1,22,23
 1044 -328 1044 -328 1044 -254 c 0,24,25
 1044 0 1044 0 811 0 c 2,26,-1
 301 0 l 2,27,28
 -1 0 -1 0 -92 -430 c 1,29,-1
 -186 -430 l 1,30,-1
 -72 102 l 1,31,-1
 51 102 l 1,0,1
823 1360 m 1,32,33
 710 851 710 851 193 102 c 1,34,-1
 817 102 l 1,35,-1
 1083 1360 l 1,36,-1
 823 1360 l 1,32,33
EndSplineSet
EndChar

StartChar: afii10024
Encoding: 1046 1046 432
Width: 2005
GlyphClass: 2
Flags: W
LayerCount: 2
Fore
SplineSet
573 0 m 1,0,-1
 590 86 l 1,1,-1
 616 86 l 2,2,3
 713 86 713 86 756.5 122 c 128,-1,4
 800 158 800 158 817 233 c 1,5,-1
 913 688 l 1,6,7
 748 688 748 688 681.5 663.5 c 128,-1,8
 615 639 615 639 565 549 c 1,9,-1
 360 193 l 2,10,11
 292 75 292 75 225 37.5 c 128,-1,12
 158 0 158 0 -45 0 c 2,13,-1
 -111 0 l 1,14,-1
 -92 86 l 1,15,-1
 -86 86 l 2,16,17
 76 86 76 86 176 250 c 1,18,-1
 379 596 l 2,19,20
 480 768 480 768 723 776 c 1,21,22
 642 844 642 844 567 1081 c 0,23,24
 514 1250 514 1250 479.5 1286.5 c 128,-1,25
 445 1323 445 1323 401 1323 c 0,26,27
 309 1323 309 1323 264 1208 c 1,28,29
 190 1238 190 1238 190 1327 c 0,30,31
 190 1475 190 1475 373 1475 c 0,32,33
 487 1475 487 1475 545.5 1405 c 128,-1,34
 604 1335 604 1335 659 1141 c 1,35,36
 728 910 728 910 786 846 c 128,-1,37
 844 782 844 782 934 782 c 1,38,-1
 1030 1237 l 2,39,40
 1038 1275 1038 1275 1038 1294 c 0,41,42
 1038 1376 1038 1376 891 1376 c 2,43,-1
 864 1376 l 1,44,-1
 883 1462 l 1,45,-1
 1462 1462 l 1,46,-1
 1444 1376 l 1,47,-1
 1417 1376 l 2,48,49
 1320 1376 1320 1376 1277 1339.5 c 128,-1,50
 1234 1303 1234 1303 1219 1229 c 2,51,-1
 1124 782 l 1,52,53
 1281 782 1281 782 1354.5 838 c 128,-1,54
 1428 894 1428 894 1548 1141 c 0,55,56
 1635 1319 1635 1319 1726.5 1397 c 128,-1,57
 1818 1475 1818 1475 1948 1475 c 0,58,59
 2105 1475 2105 1475 2105 1356 c 0,60,61
 2105 1218 2105 1218 1976 1208 c 1,62,63
 1976 1323 1976 1323 1880 1323 c 0,64,65
 1809 1323 1809 1323 1758 1271.5 c 128,-1,66
 1707 1220 1707 1220 1636 1081 c 0,67,68
 1505 822 1505 822 1409 774 c 1,69,70
 1506 740 1506 740 1554 596 c 1,71,-1
 1673 250 l 2,72,73
 1729 86 1729 86 1880 86 c 2,74,-1
 1886 86 l 1,75,-1
 1868 0 l 1,76,-1
 1839 0 l 2,77,78
 1672 0 1672 0 1589.5 35.5 c 128,-1,79
 1507 71 1507 71 1470 193 c 2,80,-1
 1360 549 l 2,81,82
 1332 639 1332 639 1283.5 663.5 c 128,-1,83
 1235 688 1235 688 1104 688 c 1,84,-1
 1006 225 l 2,85,86
 997 182 997 182 997 168 c 0,87,88
 997 86 997 86 1145 86 c 2,89,-1
 1171 86 l 1,90,-1
 1153 0 l 1,91,-1
 573 0 l 1,0,-1
EndSplineSet
EndChar

StartChar: afii10025
Encoding: 1047 1047 433
Width: 1235
GlyphClass: 2
Flags: W
LayerCount: 2
Fore
SplineSet
182 393 m 1,0,1
 182 274 182 274 269.5 182 c 128,-1,2
 357 90 357 90 502 90 c 0,3,4
 842 90 842 90 842 440 c 0,5,6
 842 561 842 561 761 629.5 c 128,-1,7
 680 698 680 698 530 698 c 2,8,-1
 371 698 l 1,9,-1
 393 803 l 1,10,-1
 567 803 l 2,11,12
 738 803 738 803 851.5 899.5 c 128,-1,13
 965 996 965 996 965 1149 c 0,14,15
 965 1258 965 1258 901 1319 c 128,-1,16
 837 1380 837 1380 721 1380 c 0,17,18
 493 1380 493 1380 430 1075 c 1,19,20
 272 1075 272 1075 272 1204 c 0,21,22
 272 1325 272 1325 399.5 1404 c 128,-1,23
 527 1483 527 1483 723 1483 c 0,24,25
 924 1483 924 1483 1051 1395.5 c 128,-1,26
 1178 1308 1178 1308 1178 1161 c 0,27,28
 1178 995 1178 995 1063 885 c 128,-1,29
 948 775 948 775 758 752 c 1,30,31
 899 733 899 733 985 649.5 c 128,-1,32
 1071 566 1071 566 1071 442 c 0,33,34
 1071 219 1071 219 917 98 c 128,-1,35
 763 -23 763 -23 479 -23 c 0,36,37
 263 -23 263 -23 145 48.5 c 128,-1,38
 27 120 27 120 27 244 c 0,39,40
 27 314 27 314 71 353.5 c 128,-1,41
 115 393 115 393 182 393 c 1,0,1
EndSplineSet
EndChar

StartChar: afii10026
Encoding: 1048 1048 434
Width: 1645
GlyphClass: 2
Flags: W
LayerCount: 2
Fore
SplineSet
1737 1376 m 1,0,-1
 1710 1376 l 2,1,2
 1612 1376 1612 1376 1569 1339 c 128,-1,3
 1526 1302 1526 1302 1511 1229 c 2,4,-1
 1298 225 l 2,5,6
 1290 187 1290 187 1290 168 c 0,7,8
 1290 86 1290 86 1438 86 c 2,9,-1
 1464 86 l 1,10,-1
 1446 0 l 1,11,-1
 850 0 l 1,12,-1
 866 86 l 1,13,-1
 893 86 l 2,14,15
 1063 86 1063 86 1094 233 c 2,16,-1
 1257 1018 l 1,17,-1
 416 279 l 1,18,-1
 406 225 l 2,19,20
 397 176 397 176 397 168 c 0,21,22
 397 86 397 86 545 86 c 2,23,-1
 571 86 l 1,24,-1
 553 0 l 1,25,-1
 -43 0 l 1,26,-1
 -27 86 l 1,27,-1
 0 86 l 2,28,29
 99 86 99 86 142 123.5 c 128,-1,30
 185 161 185 161 201 233 c 2,31,-1
 414 1237 l 2,32,33
 422 1275 422 1275 422 1294 c 0,34,35
 422 1376 422 1376 274 1376 c 2,36,-1
 248 1376 l 1,37,-1
 266 1462 l 1,38,-1
 862 1462 l 1,39,-1
 844 1376 l 1,40,-1
 817 1376 l 2,41,42
 719 1376 719 1376 676 1339 c 128,-1,43
 633 1302 633 1302 618 1229 c 2,44,-1
 455 446 l 1,45,-1
 1294 1182 l 1,46,-1
 1307 1237 l 2,47,48
 1315 1271 1315 1271 1315 1294 c 0,49,50
 1315 1376 1315 1376 1167 1376 c 2,51,-1
 1141 1376 l 1,52,-1
 1159 1462 l 1,53,-1
 1755 1462 l 1,54,-1
 1737 1376 l 1,0,-1
EndSplineSet
EndChar

StartChar: afii10028
Encoding: 1050 1050 436
Width: 1434
GlyphClass: 2
Flags: W
LayerCount: 2
Fore
SplineSet
-43 0 m 1,0,-1
 -27 86 l 1,1,-1
 0 86 l 2,2,3
 98 86 98 86 141 123.5 c 128,-1,4
 184 161 184 161 201 233 c 1,5,-1
 414 1237 l 2,6,7
 422 1275 422 1275 422 1294 c 0,8,9
 422 1376 422 1376 274 1376 c 2,10,-1
 248 1376 l 1,11,-1
 266 1462 l 1,12,-1
 862 1462 l 1,13,-1
 844 1376 l 1,14,-1
 817 1376 l 2,15,16
 719 1376 719 1376 676 1338.5 c 128,-1,17
 633 1301 633 1301 618 1229 c 2,18,-1
 524 782 l 1,19,20
 664 782 664 782 726.5 832 c 128,-1,21
 789 882 789 882 932 1141 c 1,22,23
 1031 1318 1031 1318 1123 1396.5 c 128,-1,24
 1215 1475 1215 1475 1354 1475 c 0,25,26
 1520 1475 1520 1475 1520 1352 c 0,27,28
 1520 1218 1520 1218 1391 1208 c 1,29,30
 1391 1323 1391 1323 1290 1323 c 0,31,32
 1149 1323 1149 1323 1018 1081 c 1,33,34
 869 814 869 814 795 774 c 1,35,36
 914 767 914 767 969 596 c 1,37,-1
 1087 250 l 2,38,39
 1143 86 1143 86 1294 86 c 2,40,-1
 1300 86 l 1,41,-1
 1282 0 l 1,42,-1
 1253 0 l 2,43,44
 1076 0 1076 0 1001 30 c 128,-1,45
 926 60 926 60 885 193 c 2,46,-1
 774 549 l 2,47,48
 749 628 749 628 710.5 658 c 128,-1,49
 672 688 672 688 504 688 c 1,50,-1
 406 225 l 2,51,52
 397 182 397 182 397 168 c 0,53,54
 397 86 397 86 545 86 c 2,55,-1
 571 86 l 1,56,-1
 553 0 l 1,57,-1
 -43 0 l 1,0,-1
EndSplineSet
EndChar

StartChar: afii10029
Encoding: 1051 1051 437
Width: 1438
GlyphClass: 2
Flags: W
LayerCount: 2
Fore
SplineSet
25 254 m 1,0,1
 25 158 25 158 102 158 c 0,2,3
 287 158 287 158 474.5 704 c 128,-1,4
 662 1250 662 1250 662 1321 c 0,5,6
 662 1376 662 1376 512 1376 c 2,7,-1
 481 1376 l 1,8,-1
 500 1462 l 1,9,-1
 1548 1462 l 1,10,-1
 1530 1376 l 1,11,-1
 1503 1376 l 2,12,13
 1406 1376 1406 1376 1363 1339.5 c 128,-1,14
 1320 1303 1320 1303 1305 1229 c 2,15,-1
 1092 225 l 2,16,17
 1083 183 1083 183 1083 168 c 0,18,19
 1083 86 1083 86 1231 86 c 2,20,-1
 1257 86 l 1,21,-1
 1239 0 l 1,22,-1
 643 0 l 1,23,-1
 659 86 l 1,24,-1
 686 86 l 2,25,26
 856 86 856 86 887 233 c 2,27,-1
 1124 1360 l 1,28,-1
 791 1360 l 1,29,30
 733 1137 733 1137 627.5 810 c 128,-1,31
 522 483 522 483 421 289 c 128,-1,32
 320 95 320 95 241 40.5 c 128,-1,33
 162 -14 162 -14 66 -14 c 0,34,35
 -10 -14 -10 -14 -53 24.5 c 128,-1,36
 -96 63 -96 63 -96 123 c 0,37,38
 -96 185 -96 185 -62 219.5 c 128,-1,39
 -28 254 -28 254 25 254 c 1,0,1
EndSplineSet
EndChar

StartChar: afii10037
Encoding: 1059 1059 445
Width: 1372
GlyphClass: 2
Flags: W
LayerCount: 2
Fore
SplineSet
1571 1462 m 1,0,-1
 1552 1376 l 1,1,-1
 1513 1376 l 2,2,3
 1456 1376 1456 1376 1423 1348.5 c 128,-1,4
 1390 1321 1390 1321 1325 1217 c 2,5,-1
 801 375 l 2,6,7
 636 109 636 109 550 49.5 c 128,-1,8
 464 -10 464 -10 236 -10 c 2,9,-1
 86 -10 l 1,10,-1
 106 86 l 1,11,-1
 219 86 l 2,12,13
 440 86 440 86 578 309 c 1,14,-1
 319 1268 l 2,15,16
 302 1331 302 1331 278.5 1353.5 c 128,-1,17
 255 1376 255 1376 197 1376 c 2,18,-1
 170 1376 l 1,19,-1
 188 1462 l 1,20,-1
 756 1462 l 1,21,-1
 739 1376 l 1,22,-1
 684 1376 l 2,23,24
 545 1376 545 1376 545 1276 c 0,25,26
 545 1230 545 1230 561 1163 c 1,27,-1
 676 715 l 2,28,29
 719 548 719 548 733 438 c 1,30,31
 788 558 788 558 881 709 c 2,32,-1
 1178 1188 l 2,33,34
 1217 1251 1217 1251 1217 1303 c 0,35,36
 1217 1376 1217 1376 1102 1376 c 2,37,-1
 1055 1376 l 1,38,-1
 1071 1462 l 1,39,-1
 1571 1462 l 1,0,-1
EndSplineSet
EndChar

StartChar: afii10040
Encoding: 1062 1062 448
Width: 1563
GlyphClass: 2
Flags: W
LayerCount: 2
Fore
SplineSet
-20 86 m 1,0,-1
 4 86 l 2,1,2
 102 86 102 86 144 122.5 c 128,-1,3
 186 159 186 159 201 225 c 2,4,-1
 418 1237 l 2,5,6
 426 1274 426 1274 426 1294 c 0,7,8
 426 1376 426 1376 279 1376 c 2,9,-1
 252 1376 l 1,10,-1
 270 1462 l 1,11,-1
 866 1462 l 1,12,-1
 848 1376 l 1,13,-1
 821 1376 l 2,14,15
 726 1376 726 1376 681.5 1340 c 128,-1,16
 637 1304 637 1304 621 1229 c 2,17,-1
 383 102 l 1,18,-1
 987 102 l 1,19,-1
 1229 1237 l 2,20,21
 1237 1275 1237 1275 1237 1294 c 0,22,23
 1237 1376 1237 1376 1090 1376 c 2,24,-1
 1063 1376 l 1,25,-1
 1081 1462 l 1,26,-1
 1677 1462 l 1,27,-1
 1659 1376 l 1,28,-1
 1632 1376 l 2,29,30
 1536 1376 1536 1376 1494 1342.5 c 128,-1,31
 1452 1309 1452 1309 1436 1239 c 2,32,-1
 1219 225 l 2,33,34
 1210 183 1210 183 1210 168 c 0,35,36
 1210 91 1210 91 1333 86 c 1,37,-1
 1405 86 l 1,38,-1
 1294 -430 l 1,39,-1
 1200 -430 l 1,40,41
 1222 -330 1222 -330 1222 -255 c 0,42,43
 1222 0 1222 0 977 0 c 2,44,-1
 -39 0 l 1,45,-1
 -20 86 l 1,0,-1
EndSplineSet
EndChar

StartChar: afii10041
Encoding: 1063 1063 449
Width: 1548
GlyphClass: 2
Flags: W
LayerCount: 2
Fore
SplineSet
719 0 m 1,0,-1
 735 86 l 1,1,-1
 762 86 l 2,2,3
 932 86 932 86 963 233 c 2,4,-1
 1047 625 l 1,5,6
 793 537 793 537 659 537 c 0,7,8
 268 537 268 537 268 840 c 0,9,10
 268 900 268 900 307 1075 c 2,11,-1
 342 1235 l 2,12,13
 350 1272 350 1272 350 1292 c 0,14,15
 350 1374 350 1374 203 1374 c 2,16,-1
 176 1374 l 1,17,-1
 195 1460 l 1,18,-1
 791 1460 l 1,19,-1
 774 1374 l 1,20,-1
 748 1374 l 2,21,22
 650 1374 650 1374 606 1337 c 128,-1,23
 562 1300 562 1300 547 1227 c 2,24,-1
 516 1085 l 2,25,26
 479 916 479 916 479 854 c 0,27,28
 479 659 479 659 709 659 c 0,29,30
 832 659 832 659 1069 737 c 1,31,-1
 1176 1237 l 2,32,33
 1184 1274 1184 1274 1184 1294 c 0,34,35
 1184 1376 1184 1376 1036 1376 c 2,36,-1
 1010 1376 l 1,37,-1
 1028 1462 l 1,38,-1
 1624 1462 l 1,39,-1
 1606 1376 l 1,40,-1
 1579 1376 l 2,41,42
 1481 1376 1481 1376 1438 1339 c 128,-1,43
 1395 1302 1395 1302 1380 1229 c 2,44,-1
 1167 225 l 2,45,46
 1159 187 1159 187 1159 168 c 0,47,48
 1159 86 1159 86 1307 86 c 2,49,-1
 1333 86 l 1,50,-1
 1315 0 l 1,51,-1
 719 0 l 1,0,-1
EndSplineSet
EndChar

StartChar: afii10042
Encoding: 1064 1064 450
Width: 2210
GlyphClass: 2
Flags: W
LayerCount: 2
Fore
SplineSet
-41 0 m 1,0,-1
 -23 86 l 1,1,-1
 2 86 l 2,2,3
 100 86 100 86 142 122.5 c 128,-1,4
 184 159 184 159 199 225 c 2,5,-1
 416 1237 l 2,6,7
 424 1274 424 1274 424 1294 c 0,8,9
 424 1376 424 1376 276 1376 c 2,10,-1
 250 1376 l 1,11,-1
 268 1462 l 1,12,-1
 864 1462 l 1,13,-1
 846 1376 l 1,14,-1
 819 1376 l 2,15,16
 649 1376 649 1376 618 1229 c 2,17,-1
 381 102 l 1,18,-1
 903 102 l 1,19,-1
 1145 1237 l 2,20,21
 1153 1275 1153 1275 1153 1294 c 0,22,23
 1153 1376 1153 1376 1006 1376 c 2,24,-1
 979 1376 l 1,25,-1
 997 1462 l 1,26,-1
 1593 1462 l 1,27,-1
 1575 1376 l 1,28,-1
 1548 1376 l 2,29,30
 1452 1376 1452 1376 1410 1342.5 c 128,-1,31
 1368 1309 1368 1309 1352 1239 c 2,32,-1
 1108 102 l 1,33,-1
 1632 102 l 1,34,-1
 1874 1237 l 2,35,36
 1882 1275 1882 1275 1882 1294 c 0,37,38
 1882 1376 1882 1376 1735 1376 c 2,39,-1
 1708 1376 l 1,40,-1
 1726 1462 l 1,41,-1
 2322 1462 l 1,42,-1
 2304 1376 l 1,43,-1
 2277 1376 l 2,44,45
 2181 1376 2181 1376 2139 1342.5 c 128,-1,46
 2097 1309 2097 1309 2081 1239 c 2,47,-1
 1864 225 l 2,48,49
 1855 183 1855 183 1855 168 c 0,50,51
 1855 86 1855 86 2003 86 c 2,52,-1
 2030 86 l 1,53,-1
 2011 0 l 1,54,-1
 -41 0 l 1,0,-1
EndSplineSet
EndChar

StartChar: afii10043
Encoding: 1065 1065 451
Width: 2210
GlyphClass: 2
Flags: W
LayerCount: 2
Fore
SplineSet
2050 86 m 1,0,-1
 1939 -430 l 1,1,-1
 1845 -430 l 1,2,3
 1866 -331 1866 -331 1866 -257 c 0,4,5
 1866 -6 1866 -6 1636 0 c 1,6,-1
 -41 0 l 1,7,-1
 -23 86 l 1,8,-1
 2 86 l 2,9,10
 100 86 100 86 142 122.5 c 128,-1,11
 184 159 184 159 199 225 c 2,12,-1
 416 1237 l 2,13,14
 424 1274 424 1274 424 1294 c 0,15,16
 424 1376 424 1376 276 1376 c 2,17,-1
 250 1376 l 1,18,-1
 268 1462 l 1,19,-1
 864 1462 l 1,20,-1
 846 1376 l 1,21,-1
 819 1376 l 2,22,23
 649 1376 649 1376 618 1229 c 2,24,-1
 381 102 l 1,25,-1
 903 102 l 1,26,-1
 1145 1237 l 2,27,28
 1153 1275 1153 1275 1153 1294 c 0,29,30
 1153 1376 1153 1376 1006 1376 c 2,31,-1
 979 1376 l 1,32,-1
 997 1462 l 1,33,-1
 1593 1462 l 1,34,-1
 1575 1376 l 1,35,-1
 1548 1376 l 2,36,37
 1452 1376 1452 1376 1410 1342.5 c 128,-1,38
 1368 1309 1368 1309 1352 1239 c 2,39,-1
 1108 102 l 1,40,-1
 1632 102 l 1,41,-1
 1874 1237 l 2,42,43
 1882 1275 1882 1275 1882 1294 c 0,44,45
 1882 1376 1882 1376 1735 1376 c 2,46,-1
 1708 1376 l 1,47,-1
 1726 1462 l 1,48,-1
 2322 1462 l 1,49,-1
 2304 1376 l 1,50,-1
 2277 1376 l 2,51,52
 2181 1376 2181 1376 2139 1342.5 c 128,-1,53
 2097 1309 2097 1309 2081 1239 c 2,54,-1
 1864 225 l 2,55,56
 1855 183 1855 183 1855 168 c 0,57,58
 1855 91 1855 91 1978 86 c 1,59,-1
 2050 86 l 1,0,-1
EndSplineSet
EndChar

StartChar: afii10044
Encoding: 1066 1066 452
Width: 1446
GlyphClass: 2
Flags: W
LayerCount: 2
Fore
SplineSet
168 0 m 1,0,-1
 184 86 l 1,1,-1
 211 86 l 2,2,3
 381 86 381 86 412 233 c 2,4,-1
 651 1360 l 1,5,-1
 496 1360 l 2,6,7
 350 1360 350 1360 291 1192 c 1,8,-1
 262 1104 l 1,9,-1
 156 1104 l 1,10,-1
 242 1462 l 1,11,-1
 1114 1462 l 1,12,-1
 1096 1376 l 1,13,-1
 1028 1376 l 2,14,15
 931 1376 931 1376 888.5 1342 c 128,-1,16
 846 1308 846 1308 831 1239 c 2,17,-1
 739 809 l 1,18,-1
 856 809 l 2,19,20
 1360 809 1360 809 1360 467 c 0,21,22
 1360 244 1360 244 1209 122 c 128,-1,23
 1058 0 1058 0 770 0 c 2,24,-1
 168 0 l 1,0,-1
590 102 m 1,25,-1
 748 102 l 2,26,27
 1139 102 1139 102 1139 451 c 0,28,29
 1139 713 1139 713 850 713 c 2,30,-1
 719 713 l 1,31,-1
 590 102 l 1,25,-1
EndSplineSet
EndChar

StartChar: afii10045
Encoding: 1067 1067 453
Width: 1858
GlyphClass: 2
Flags: W
LayerCount: 2
Fore
SplineSet
-27 86 m 1,0,-1
 33 86 l 2,1,2
 78 86 78 86 130.5 116.5 c 128,-1,3
 183 147 183 147 201 233 c 2,4,-1
 414 1237 l 2,5,6
 422 1275 422 1275 422 1294 c 0,7,8
 422 1376 422 1376 274 1376 c 2,9,-1
 248 1376 l 1,10,-1
 266 1462 l 1,11,-1
 862 1462 l 1,12,-1
 844 1376 l 1,13,-1
 817 1376 l 2,14,15
 717 1376 717 1376 674.5 1336 c 128,-1,16
 632 1296 632 1296 614 1217 c 1,17,-1
 528 809 l 1,18,-1
 584 809 l 2,19,20
 1087 809 1087 809 1087 467 c 0,21,22
 1087 244 1087 244 936 122 c 128,-1,23
 785 0 785 0 498 0 c 2,24,-1
 -43 0 l 1,25,-1
 -27 86 l 1,0,-1
379 102 m 1,26,-1
 475 102 l 2,27,28
 866 102 866 102 866 451 c 0,29,30
 866 589 866 589 795.5 651 c 128,-1,31
 725 713 725 713 578 713 c 2,32,-1
 508 713 l 1,33,-1
 379 102 l 1,26,-1
1968 1462 m 1,34,-1
 1950 1376 l 1,35,-1
 1923 1376 l 2,36,37
 1825 1376 1825 1376 1782 1339 c 128,-1,38
 1739 1302 1739 1302 1724 1229 c 2,39,-1
 1511 225 l 2,40,41
 1503 187 1503 187 1503 168 c 0,42,43
 1503 86 1503 86 1651 86 c 2,44,-1
 1677 86 l 1,45,-1
 1659 0 l 1,46,-1
 1063 0 l 1,47,-1
 1079 86 l 1,48,-1
 1106 86 l 2,49,50
 1276 86 1276 86 1307 233 c 2,51,-1
 1520 1237 l 2,52,53
 1528 1275 1528 1275 1528 1294 c 0,54,55
 1528 1376 1528 1376 1380 1376 c 2,56,-1
 1354 1376 l 1,57,-1
 1372 1462 l 1,58,-1
 1968 1462 l 1,34,-1
EndSplineSet
EndChar

StartChar: afii10046
Encoding: 1068 1068 454
Width: 1255
GlyphClass: 2
Flags: W
LayerCount: 2
Fore
SplineSet
-27 86 m 1,0,-1
 33 86 l 2,1,2
 78 86 78 86 130.5 116.5 c 128,-1,3
 183 147 183 147 201 233 c 2,4,-1
 414 1237 l 2,5,6
 422 1275 422 1275 422 1294 c 0,7,8
 422 1376 422 1376 274 1376 c 2,9,-1
 248 1376 l 1,10,-1
 266 1462 l 1,11,-1
 862 1462 l 1,12,-1
 844 1376 l 1,13,-1
 817 1376 l 2,14,15
 717 1376 717 1376 674.5 1336 c 128,-1,16
 632 1296 632 1296 614 1217 c 1,17,-1
 528 809 l 1,18,-1
 666 809 l 2,19,20
 1169 809 1169 809 1169 467 c 0,21,22
 1169 244 1169 244 1018 122 c 128,-1,23
 867 0 867 0 580 0 c 2,24,-1
 -43 0 l 1,25,-1
 -27 86 l 1,0,-1
379 102 m 1,26,-1
 557 102 l 2,27,28
 948 102 948 102 948 451 c 0,29,30
 948 590 948 590 877.5 651.5 c 128,-1,31
 807 713 807 713 659 713 c 2,32,-1
 508 713 l 1,33,-1
 379 102 l 1,26,-1
EndSplineSet
EndChar

StartChar: afii10047
Encoding: 1069 1069 455
Width: 1292
GlyphClass: 2
Flags: W
LayerCount: 2
Fore
SplineSet
965 688 m 1,0,-1
 395 688 l 1,1,-1
 416 788 l 1,2,-1
 981 788 l 1,3,4
 1004 912 1004 912 1004 1001 c 0,5,6
 1004 1184 1004 1184 931 1282 c 128,-1,7
 858 1380 858 1380 721 1380 c 0,8,9
 606 1380 606 1380 525.5 1299.5 c 128,-1,10
 445 1219 445 1219 416 1083 c 1,11,12
 350 1083 350 1083 308 1119.5 c 128,-1,13
 266 1156 266 1156 266 1225 c 0,14,15
 266 1330 266 1330 397 1406.5 c 128,-1,16
 528 1483 528 1483 733 1483 c 0,17,18
 969 1483 969 1483 1100 1347 c 128,-1,19
 1231 1211 1231 1211 1231 958 c 0,20,21
 1231 555 1231 555 1015.5 267.5 c 128,-1,22
 800 -20 800 -20 453 -20 c 0,23,24
 249 -20 249 -20 138 50 c 128,-1,25
 27 120 27 120 27 244 c 0,26,27
 27 314 27 314 71 353.5 c 128,-1,28
 115 393 115 393 182 393 c 1,29,30
 182 275 182 275 261 182.5 c 128,-1,31
 340 90 340 90 469 90 c 0,32,33
 834 90 834 90 965 688 c 1,0,-1
EndSplineSet
EndChar

StartChar: afii10048
Encoding: 1070 1070 456
Width: 2144
GlyphClass: 2
Flags: W
LayerCount: 2
Fore
SplineSet
807 713 m 1,0,-1
 508 713 l 1,1,-1
 406 225 l 2,2,3
 397 182 397 182 397 168 c 0,4,5
 397 86 397 86 545 86 c 2,6,-1
 571 86 l 1,7,-1
 553 0 l 1,8,-1
 -43 0 l 1,9,-1
 -27 86 l 1,10,-1
 0 86 l 2,11,12
 99 86 99 86 142 123.5 c 128,-1,13
 185 161 185 161 201 233 c 2,14,-1
 414 1237 l 2,15,16
 422 1275 422 1275 422 1294 c 0,17,18
 422 1376 422 1376 274 1376 c 2,19,-1
 248 1376 l 1,20,-1
 266 1462 l 1,21,-1
 862 1462 l 1,22,-1
 844 1376 l 1,23,-1
 817 1376 l 2,24,25
 719 1376 719 1376 676 1339 c 128,-1,26
 633 1302 633 1302 618 1229 c 2,27,-1
 530 815 l 1,28,-1
 829 815 l 1,29,30
 913 1121 913 1121 1112 1303 c 128,-1,31
 1311 1485 1311 1485 1575 1485 c 0,32,33
 1802 1485 1802 1485 1941.5 1337 c 128,-1,34
 2081 1189 2081 1189 2081 922 c 0,35,36
 2081 571 2081 571 1863.5 274 c 128,-1,37
 1646 -23 1646 -23 1305 -23 c 0,38,39
 1075 -23 1075 -23 934 130 c 128,-1,40
 793 283 793 283 793 545 c 0,41,42
 793 638 793 638 807 713 c 1,0,-1
1319 90 m 0,43,44
 1556 90 1556 90 1705.5 372 c 128,-1,45
 1855 654 1855 654 1855 977 c 0,46,47
 1855 1169 1855 1169 1777 1271.5 c 128,-1,48
 1699 1374 1699 1374 1556 1374 c 0,49,50
 1318 1374 1318 1374 1167 1090 c 128,-1,51
 1016 806 1016 806 1016 487 c 0,52,53
 1016 297 1016 297 1097 193.5 c 128,-1,54
 1178 90 1178 90 1319 90 c 0,43,44
EndSplineSet
EndChar

StartChar: afii10049
Encoding: 1071 1071 457
Width: 1343
GlyphClass: 2
Flags: W
LayerCount: 2
Fore
SplineSet
674 631 m 1,0,-1
 373 184 l 2,1,2
 301 77 301 77 223 38.5 c 128,-1,3
 145 0 145 0 -45 0 c 2,4,-1
 -74 0 l 1,5,-1
 -61 86 l 1,6,-1
 -55 86 l 2,7,8
 9 86 9 86 59.5 116.5 c 128,-1,9
 110 147 110 147 184 250 c 2,10,-1
 496 686 l 1,11,12
 283 791 283 791 283 1020 c 0,13,14
 283 1251 283 1251 439 1356.5 c 128,-1,15
 595 1462 595 1462 948 1462 c 2,16,-1
 1454 1462 l 1,17,-1
 1436 1376 l 1,18,-1
 1409 1376 l 2,19,20
 1311 1376 1311 1376 1268 1338.5 c 128,-1,21
 1225 1301 1225 1301 1210 1229 c 2,22,-1
 997 225 l 2,23,24
 989 187 989 187 989 168 c 0,25,26
 989 86 989 86 1137 86 c 2,27,-1
 1163 86 l 1,28,-1
 1145 0 l 1,29,-1
 549 0 l 1,30,-1
 565 86 l 1,31,-1
 592 86 l 2,32,33
 762 86 762 86 793 233 c 2,34,-1
 877 631 l 1,35,-1
 674 631 l 1,0,-1
1032 1364 m 1,36,-1
 901 1364 l 2,37,38
 498 1364 498 1364 498 1020 c 0,39,40
 498 727 498 727 825 727 c 2,41,-1
 897 727 l 1,42,-1
 1032 1364 l 1,36,-1
EndSplineSet
EndChar

StartChar: afii10066
Encoding: 1073 1073 459
Width: 1188
GlyphClass: 2
Flags: W
LayerCount: 2
Fore
SplineSet
1155 1569 m 1,0,-1
 1245 1573 l 1,1,2
 1216 1424 1216 1424 1146.5 1372 c 128,-1,3
 1077 1320 1077 1320 745 1284 c 1,4,5
 520 1258 520 1258 424.5 1177.5 c 128,-1,6
 329 1097 329 1097 272 838 c 1,7,-1
 287 838 l 1,8,9
 348 941 348 941 459.5 1002 c 128,-1,10
 571 1063 571 1063 694 1063 c 0,11,12
 877 1063 877 1063 989.5 947 c 128,-1,13
 1102 831 1102 831 1102 631 c 0,14,15
 1102 360 1102 360 934.5 170 c 128,-1,16
 767 -20 767 -20 504 -20 c 0,17,18
 315 -20 315 -20 208.5 124 c 128,-1,19
 102 268 102 268 102 528 c 0,20,21
 102 940 102 940 274.5 1188.5 c 128,-1,22
 447 1437 447 1437 760 1473 c 0,23,24
 1123 1514 1123 1514 1155 1569 c 1,0,-1
530 86 m 0,25,26
 674 86 674 86 781.5 253.5 c 128,-1,27
 889 421 889 421 889 668 c 0,28,29
 889 954 889 954 678 954 c 0,30,31
 534 954 534 954 425.5 791 c 128,-1,32
 317 628 317 628 317 375 c 0,33,34
 317 86 317 86 530 86 c 0,25,26
EndSplineSet
EndChar

StartChar: afii10067
Encoding: 1074 1074 460
Width: 1057
GlyphClass: 2
Flags: W
LayerCount: 2
Fore
SplineSet
639 575 m 1,0,1
 940 505 940 505 940 303 c 0,2,3
 940 163 940 163 817 71.5 c 128,-1,4
 694 -20 694 -20 498 -20 c 0,5,6
 304 -20 304 -20 196 80 c 128,-1,7
 88 180 88 180 88 362 c 0,8,9
 88 657 88 657 259.5 887.5 c 128,-1,10
 431 1118 431 1118 698 1118 c 0,11,12
 835 1118 835 1118 923.5 1052 c 128,-1,13
 1012 986 1012 986 1012 883 c 0,14,15
 1012 651 1012 651 639 575 c 1,0,1
338 627 m 1,16,-1
 358 627 l 2,17,18
 566 627 566 627 683.5 688.5 c 128,-1,19
 801 750 801 750 801 864 c 0,20,21
 801 939 801 939 759.5 979.5 c 128,-1,22
 718 1020 718 1020 653 1020 c 0,23,24
 561 1020 561 1020 469 902 c 128,-1,25
 377 784 377 784 338 627 c 1,16,-1
319 532 m 1,26,27
 301 444 301 444 301 338 c 0,28,29
 301 92 301 92 506 92 c 0,30,31
 615 92 615 92 676 149 c 128,-1,32
 737 206 737 206 737 307 c 0,33,34
 737 417 737 417 648 479 c 128,-1,35
 559 541 559 541 516 541 c 1,36,-1
 319 532 l 1,26,27
EndSplineSet
EndChar

StartChar: afii10068
Encoding: 1075 1075 461
Width: 1020
GlyphClass: 2
Flags: W
LayerCount: 2
Fore
SplineSet
793 254 m 1,0,1
 815 234 815 234 815 188 c 0,2,3
 815 90 815 90 723 35 c 128,-1,4
 631 -20 631 -20 451 -20 c 256,5,6
 271 -20 271 -20 172.5 53.5 c 128,-1,7
 74 127 74 127 74 254 c 0,8,9
 74 342 74 342 116 403 c 128,-1,10
 158 464 158 464 230 505.5 c 128,-1,11
 302 547 302 547 481 614 c 0,12,13
 629 670 629 670 676 721.5 c 128,-1,14
 723 773 723 773 723 846 c 0,15,16
 723 987 723 987 559 987 c 0,17,18
 370 987 370 987 276 862 c 1,19,20
 260 874 260 874 260 913 c 0,21,22
 260 1116 260 1116 590 1116 c 0,23,24
 749 1116 749 1116 842.5 1050.5 c 128,-1,25
 936 985 936 985 936 879 c 0,26,27
 936 687 936 687 687 597 c 0,28,29
 428 503 428 503 357.5 445.5 c 128,-1,30
 287 388 287 388 287 272 c 0,31,32
 287 106 287 106 487 106 c 0,33,34
 680 106 680 106 793 254 c 1,0,1
EndSplineSet
EndChar

StartChar: afii10069
Encoding: 1076 1076 462
Width: 1206
GlyphClass: 2
Flags: W
LayerCount: 2
Fore
SplineSet
911 952 m 1,0,1
 911 1194 911 1194 838 1334.5 c 128,-1,2
 765 1475 765 1475 627 1475 c 0,3,4
 516 1475 516 1475 416 1442 c 1,5,-1
 389 1530 l 1,6,7
 503 1577 503 1577 655 1577 c 0,8,9
 876 1577 876 1577 996 1405 c 128,-1,10
 1116 1233 1116 1233 1116 909 c 0,11,12
 1116 476 1116 476 953 228 c 128,-1,13
 790 -20 790 -20 506 -20 c 0,14,15
 306 -20 306 -20 197 90.5 c 128,-1,16
 88 201 88 201 88 403 c 0,17,18
 88 668 88 668 254 859.5 c 128,-1,19
 420 1051 420 1051 672 1051 c 0,20,21
 837 1051 837 1051 911 952 c 1,0,1
909 778 m 1,22,23
 836 944 836 944 662 944 c 0,24,25
 509 944 509 944 404 787.5 c 128,-1,26
 299 631 299 631 299 379 c 0,27,28
 299 80 299 80 537 80 c 0,29,30
 694 80 694 80 794.5 274 c 128,-1,31
 895 468 895 468 909 778 c 1,22,23
EndSplineSet
EndChar

StartChar: afii10072
Encoding: 1078 1078 464
Width: 2068
GlyphClass: 2
Flags: W
LayerCount: 2
Fore
SplineSet
827 0 m 1,0,-1
 932 504 l 1,1,-1
 782 504 l 1,2,3
 720 263 720 263 578 119 c 128,-1,4
 436 -25 436 -25 256 -25 c 0,5,6
 138 -25 138 -25 70 27 c 128,-1,7
 2 79 2 79 2 164 c 0,8,9
 2 227 2 227 47 267 c 128,-1,10
 92 307 92 307 166 307 c 1,11,12
 166 74 166 74 295 74 c 0,13,14
 419 74 419 74 520 277.5 c 128,-1,15
 621 481 621 481 621 707 c 0,16,17
 621 985 621 985 446 985 c 0,18,19
 302 985 302 985 203 838 c 1,20,21
 186 857 186 857 186 889 c 0,22,23
 186 972 186 972 268 1043 c 128,-1,24
 350 1114 350 1114 487 1114 c 0,25,26
 640 1114 640 1114 725.5 1013 c 128,-1,27
 811 912 811 912 811 731 c 0,28,29
 811 664 811 664 801 600 c 1,30,-1
 952 600 l 1,31,-1
 1057 1098 l 1,32,-1
 1235 1098 l 1,33,-1
 1128 600 l 1,34,-1
 1288 600 l 1,35,36
 1353 835 1353 835 1494 976.5 c 128,-1,37
 1635 1118 1635 1118 1812 1118 c 0,38,39
 1929 1118 1929 1118 1997.5 1066.5 c 128,-1,40
 2066 1015 2066 1015 2066 930 c 0,41,42
 2066 867 2066 867 2022 826.5 c 128,-1,43
 1978 786 1978 786 1903 786 c 1,44,45
 1903 1020 1903 1020 1774 1020 c 0,46,47
 1650 1020 1650 1020 1549 816.5 c 128,-1,48
 1448 613 1448 613 1448 387 c 0,49,50
 1448 109 1448 109 1622 109 c 0,51,52
 1768 109 1768 109 1866 256 c 1,53,54
 1882 238 1882 238 1882 205 c 0,55,56
 1882 121 1882 121 1799.5 50.5 c 128,-1,57
 1717 -20 1717 -20 1581 -20 c 0,58,59
 1429 -20 1429 -20 1343 80.5 c 128,-1,60
 1257 181 1257 181 1257 362 c 0,61,62
 1257 424 1257 424 1270 504 c 1,63,-1
 1108 504 l 1,64,-1
 999 0 l 1,65,-1
 827 0 l 1,0,-1
EndSplineSet
EndChar

StartChar: afii10073
Encoding: 1079 1079 465
Width: 975
GlyphClass: 2
Flags: W
LayerCount: 2
Fore
SplineSet
172 334 m 1,0,1
 172 216 172 216 236 147 c 128,-1,2
 300 78 300 78 403 78 c 0,3,4
 510 78 510 78 579.5 150 c 128,-1,5
 649 222 649 222 649 336 c 0,6,7
 649 417 649 417 593 468.5 c 128,-1,8
 537 520 537 520 446 520 c 2,9,-1
 256 520 l 1,10,-1
 279 631 l 1,11,-1
 471 631 l 2,12,13
 590 631 590 631 657.5 689 c 128,-1,14
 725 747 725 747 725 852 c 0,15,16
 725 929 725 929 679.5 975.5 c 128,-1,17
 634 1022 634 1022 549 1022 c 0,18,19
 354 1022 354 1022 305 801 c 1,20,21
 164 801 164 801 164 891 c 0,22,23
 164 988 164 988 267.5 1052 c 128,-1,24
 371 1116 371 1116 565 1116 c 0,25,26
 733 1116 733 1116 829.5 1046.5 c 128,-1,27
 926 977 926 977 926 864 c 0,28,29
 926 662 926 662 645 580 c 1,30,-1
 643 569 l 1,31,32
 848 512 848 512 848 340 c 0,33,34
 848 169 848 169 723.5 74.5 c 128,-1,35
 599 -20 599 -20 375 -20 c 0,36,37
 201 -20 201 -20 102.5 41.5 c 128,-1,38
 4 103 4 103 4 199 c 0,39,40
 4 257 4 257 45.5 295.5 c 128,-1,41
 87 334 87 334 172 334 c 1,0,1
EndSplineSet
EndChar

StartChar: afii10076
Encoding: 1082 1082 468
Width: 1239
GlyphClass: 2
Flags: W
LayerCount: 2
Fore
SplineSet
88 0 m 1,0,-1
 258 793 l 2,1,2
 276 877 276 877 276 915 c 0,3,4
 276 1012 276 1012 133 1012 c 2,5,-1
 117 1012 l 1,6,-1
 135 1098 l 1,7,-1
 516 1098 l 1,8,-1
 410 602 l 1,9,10
 495 602 495 602 550.5 652.5 c 128,-1,11
 606 703 606 703 748 877 c 1,12,13
 870 1021 870 1021 934 1065.5 c 128,-1,14
 998 1110 998 1110 1087 1110 c 0,15,16
 1239 1110 1239 1110 1239 987 c 0,17,18
 1239 874 1239 874 1128 856 c 1,19,20
 1128 971 1128 971 1038 971 c 0,21,22
 981 971 981 971 924 924.5 c 128,-1,23
 867 878 867 878 752 738 c 0,24,25
 661 628 661 628 606 596 c 1,26,27
 670 594 670 594 728 542 c 128,-1,28
 786 490 786 490 817 416 c 1,29,-1
 889 250 l 2,30,31
 960 86 960 86 1098 86 c 2,32,-1
 1104 86 l 1,33,-1
 1085 0 l 1,34,-1
 1014 0 l 2,35,36
 864 0 864 0 804 40.5 c 128,-1,37
 744 81 744 81 698 193 c 1,38,-1
 631 365 l 2,39,40
 595 457 595 457 546.5 482.5 c 128,-1,41
 498 508 498 508 389 508 c 1,42,-1
 285 0 l 1,43,-1
 88 0 l 1,0,-1
EndSplineSet
EndChar

StartChar: afii10077
Encoding: 1083 1083 469
Width: 1315
GlyphClass: 2
Flags: W
LayerCount: 2
Fore
SplineSet
119 254 m 1,0,1
 119 216 119 216 141 187 c 128,-1,2
 163 158 163 158 199 158 c 0,3,4
 271 158 271 158 334.5 273.5 c 128,-1,5
 398 389 398 389 527 742 c 0,6,7
 621 1002 621 1002 696.5 1056 c 128,-1,8
 772 1110 772 1110 899 1110 c 0,9,10
 1033 1110 1033 1110 1214 1077 c 1,11,-1
 1073 414 l 2,12,13
 1047 292 1047 292 1047 207 c 0,14,15
 1047 109 1047 109 1120 109 c 0,16,17
 1171 109 1171 109 1245 154 c 1,18,-1
 1282 94 l 1,19,20
 1152 -20 1152 -20 1022 -20 c 0,21,22
 939 -20 939 -20 890.5 34.5 c 128,-1,23
 842 89 842 89 842 174 c 0,24,25
 842 254 842 254 864 356 c 2,26,-1
 999 997 l 1,27,28
 950 1018 950 1018 895 1018 c 0,29,30
 784 1018 784 1018 733 943.5 c 128,-1,31
 682 869 682 869 559 530 c 1,32,33
 458 244 458 244 368 115 c 128,-1,34
 278 -14 278 -14 133 -14 c 0,35,36
 72 -14 72 -14 38 26 c 128,-1,37
 4 66 4 66 4 123 c 256,38,39
 4 180 4 180 37 217 c 128,-1,40
 70 254 70 254 119 254 c 1,0,1
EndSplineSet
EndChar

StartChar: afii10078
Encoding: 1084 1084 470
Width: 1843
GlyphClass: 2
Flags: W
LayerCount: 2
Fore
SplineSet
1475 848 m 1,0,-1
 1466 848 l 1,1,-1
 881 0 l 1,2,-1
 786 0 l 1,3,-1
 662 817 l 1,4,5
 645 774 645 774 621 706 c 0,6,7
 515 403 515 403 451.5 260 c 128,-1,8
 388 117 388 117 311 51.5 c 128,-1,9
 234 -14 234 -14 133 -14 c 0,10,11
 72 -14 72 -14 38 26 c 128,-1,12
 4 66 4 66 4 123 c 256,13,14
 4 180 4 180 37 217 c 128,-1,15
 70 254 70 254 119 254 c 1,16,17
 119 216 119 216 141 187 c 128,-1,18
 163 158 163 158 199 158 c 0,19,20
 256 158 256 158 321.5 251 c 128,-1,21
 387 344 387 344 510 701 c 0,22,23
 580 904 580 904 616 956 c 1,24,25
 571 1012 571 1012 455 1012 c 2,26,-1
 428 1012 l 1,27,-1
 444 1098 l 1,28,-1
 815 1098 l 1,29,-1
 936 268 l 1,30,-1
 1516 1098 l 1,31,-1
 1880 1098 l 1,32,-1
 1864 1012 l 1,33,-1
 1858 1012 l 2,34,35
 1764 1012 1764 1012 1729 976.5 c 128,-1,36
 1694 941 1694 941 1679 874 c 2,37,-1
 1581 414 l 2,38,39
 1554 287 1554 287 1554 207 c 0,40,41
 1554 109 1554 109 1628 109 c 0,42,43
 1679 109 1679 109 1753 154 c 1,44,-1
 1790 94 l 1,45,46
 1660 -20 1660 -20 1530 -20 c 0,47,48
 1447 -20 1447 -20 1398.5 34.5 c 128,-1,49
 1350 89 1350 89 1350 174 c 0,50,51
 1350 254 1350 254 1372 356 c 2,52,-1
 1475 848 l 1,0,-1
EndSplineSet
EndChar

StartChar: afii10079
Encoding: 1085 1085 471
Width: 1288
GlyphClass: 2
Flags: W
LayerCount: 2
Fore
SplineSet
1184 1098 m 1,0,-1
 1036 414 l 2,1,2
 1010 294 1010 294 1010 207 c 0,3,4
 1010 109 1010 109 1083 109 c 0,5,6
 1134 109 1134 109 1208 154 c 1,7,-1
 1245 94 l 1,8,9
 1115 -20 1115 -20 985 -20 c 0,10,11
 902 -20 902 -20 853.5 34.5 c 128,-1,12
 805 89 805 89 805 174 c 0,13,14
 805 254 805 254 827 356 c 2,15,-1
 860 516 l 1,16,-1
 389 516 l 1,17,-1
 281 0 l 1,18,-1
 90 0 l 1,19,-1
 262 823 l 2,20,21
 274 880 274 880 274 915 c 0,22,23
 274 1012 274 1012 131 1012 c 2,24,-1
 115 1012 l 1,25,-1
 133 1098 l 1,26,-1
 512 1098 l 1,27,-1
 408 610 l 1,28,-1
 881 610 l 1,29,-1
 983 1098 l 1,30,-1
 1184 1098 l 1,0,-1
EndSplineSet
EndChar

StartChar: afii10086
Encoding: 1092 1092 478
Width: 1612
GlyphClass: 2
Flags: W
LayerCount: 2
Fore
SplineSet
762 -72 m 2,0,1
 722 -263 722 -263 616.5 -377.5 c 128,-1,2
 511 -492 511 -492 356 -492 c 0,3,4
 119 -492 119 -492 119 -340 c 0,5,6
 119 -229 119 -229 270 -229 c 1,7,8
 270 -397 270 -397 381 -397 c 0,9,10
 519 -397 519 -397 573 -137 c 2,11,-1
 614 57 l 1,12,13
 517 -20 517 -20 375 -20 c 0,14,15
 245 -20 245 -20 166.5 87 c 128,-1,16
 88 194 88 194 88 387 c 0,17,18
 88 665 88 665 243.5 891.5 c 128,-1,19
 399 1118 399 1118 655 1118 c 0,20,21
 750 1118 750 1118 829 1075 c 1,22,-1
 856 1194 l 2,23,24
 907 1418 907 1418 1006.5 1497.5 c 128,-1,25
 1106 1577 1106 1577 1241 1577 c 0,26,27
 1366 1577 1366 1577 1429.5 1541.5 c 128,-1,28
 1493 1506 1493 1506 1493 1450 c 0,29,30
 1493 1333 1493 1333 1335 1333 c 1,31,32
 1335 1483 1335 1483 1231 1483 c 0,33,34
 1094 1483 1094 1483 1038 1223 c 2,35,-1
 999 1040 l 1,36,37
 1097 1118 1097 1118 1239 1118 c 0,38,39
 1368 1118 1368 1118 1446 1011 c 128,-1,40
 1524 904 1524 904 1524 711 c 0,41,42
 1524 432 1524 432 1368 206 c 128,-1,43
 1212 -20 1212 -20 956 -20 c 0,44,45
 861 -20 861 -20 782 23 c 1,46,-1
 762 -72 l 2,0,1
639 176 m 1,47,-1
 803 952 l 1,48,49
 792 984 792 984 750 1005 c 128,-1,50
 708 1026 708 1026 666 1026 c 0,51,52
 506 1026 506 1026 401.5 809.5 c 128,-1,53
 297 593 297 593 297 365 c 0,54,55
 297 92 297 92 459 92 c 0,56,57
 548 92 548 92 639 176 c 1,47,-1
975 922 m 1,58,-1
 809 145 l 1,59,60
 820 112 820 112 862.5 92 c 128,-1,61
 905 72 905 72 946 72 c 0,62,63
 1106 72 1106 72 1210.5 289 c 128,-1,64
 1315 506 1315 506 1315 733 c 0,65,66
 1315 1006 1315 1006 1155 1006 c 0,67,68
 1066 1006 1066 1006 975 922 c 1,58,-1
EndSplineSet
EndChar

StartChar: afii10088
Encoding: 1094 1094 480
Width: 1227
GlyphClass: 2
Flags: W
LayerCount: 2
Fore
SplineSet
1079 10 m 1,0,1
 994 -20 994 -20 936 -20 c 0,2,3
 859 -20 859 -20 810.5 33 c 128,-1,4
 762 86 762 86 762 174 c 0,5,6
 762 227 762 227 772 295 c 1,7,-1
 756 295 l 1,8,9
 645 112 645 112 557.5 47 c 128,-1,10
 470 -18 470 -18 360 -18 c 0,11,12
 141 -18 141 -18 141 209 c 0,13,14
 141 274 141 274 178 434 c 1,15,-1
 258 793 l 2,16,17
 276 874 276 874 276 915 c 0,18,19
 276 1012 276 1012 133 1012 c 2,20,-1
 117 1012 l 1,21,-1
 135 1098 l 1,22,-1
 516 1098 l 1,23,-1
 381 485 l 2,24,25
 340 299 340 299 340 238 c 0,26,27
 340 113 340 113 440 113 c 0,28,29
 545 113 545 113 666.5 264.5 c 128,-1,30
 788 416 788 416 825 588 c 2,31,-1
 932 1098 l 1,32,-1
 1130 1098 l 1,33,-1
 989 440 l 2,34,35
 961 309 961 309 961 213 c 0,36,37
 961 109 961 109 1028 109 c 0,38,39
 1086 109 1086 109 1159 154 c 1,40,-1
 1196 94 l 1,41,42
 1149 -194 1149 -194 1086 -330.5 c 128,-1,43
 1023 -467 1023 -467 858 -467 c 0,44,45
 761 -467 761 -467 682 -436 c 1,46,-1
 705 -356 l 1,47,48
 739 -367 739 -367 786 -367 c 0,49,50
 871 -367 871 -367 959.5 -263.5 c 128,-1,51
 1048 -160 1048 -160 1079 10 c 1,0,1
EndSplineSet
EndChar

StartChar: afii10089
Encoding: 1095 1095 481
Width: 1247
GlyphClass: 2
Flags: W
LayerCount: 2
Fore
SplineSet
1147 1098 m 1,0,-1
 999 414 l 2,1,2
 973 294 973 294 973 207 c 0,3,4
 973 109 973 109 1047 109 c 0,5,6
 1097 109 1097 109 1171 154 c 1,7,-1
 1208 94 l 1,8,9
 1077 -20 1077 -20 948 -20 c 0,10,11
 865 -20 865 -20 816.5 34.5 c 128,-1,12
 768 89 768 89 768 174 c 0,13,14
 768 249 768 249 791 356 c 1,15,-1
 821 508 l 1,16,17
 655 416 655 416 584 396.5 c 128,-1,18
 513 377 513 377 436 377 c 0,19,20
 325 377 325 377 255.5 441.5 c 128,-1,21
 186 506 186 506 186 616 c 0,22,23
 186 647 186 647 197 698 c 2,24,-1
 225 823 l 2,25,26
 238 881 238 881 238 915 c 0,27,28
 238 1012 238 1012 94 1012 c 2,29,-1
 78 1012 l 1,30,-1
 96 1098 l 1,31,-1
 475 1098 l 1,32,-1
 395 727 l 2,33,34
 377 644 377 644 377 614 c 0,35,36
 377 512 377 512 498 512 c 0,37,38
 653 512 653 512 842 606 c 1,39,-1
 946 1098 l 1,40,-1
 1147 1098 l 1,0,-1
EndSplineSet
EndChar

